<?xml version="1.0" standalone="no"?>
<!DOCTYPE svg PUBLIC "-//W3C//DTD SVG 1.1//EN" "http://www.w3.org/Graphics/SVG/1.1/DTD/svg11.dtd" >
<svg>
<metadata>
Created by FontForge 20090914 at Mon Sep 12 14:13:55 2022
 By www-data
Copyright (c) 2006 by P22/IHOF. All rights reserved.
</metadata>
<defs>
<font id="P22AllysonPro" horiz-adv-x="275" >
  <font-face 
    font-family="P22 Allyson Pro"
    font-weight="400"
    font-style="italic"
    font-stretch="normal"
    units-per-em="1000"
    panose-1="2 0 0 0 0 0 0 0 0 0"
    ascent="725"
    descent="-275"
    x-height="160"
    cap-height="720.001"
    bbox="-334.001 -299 1727 839.004"
    underline-thickness="50"
    underline-position="-50"
    slope="-60"
    unicode-range="U+0020-U+2122"
  />
<missing-glyph horiz-adv-x="500" 
d="M21 451h458v-451h-458v451zM443 379c0 12.667 -4.16895 23.167 -12.502 31.5s-19.5 12.5 -33.5 12.5s-28 -2.83301 -42 -8.5s-27 -12.667 -39 -21s-22.833 -17.833 -32.5 -28.5s-17.5 -21 -23.5 -31c6.66699 10 15.334 20 26.001 30s22.167 19 34.5 27s25 14.667 38 20
s25.5 8 37.5 8c8 0 14.833 -2.5 20.5 -7.5s8.5 -12.167 8.5 -21.5c0 -20.667 -4.5 -39.167 -13.5 -55.5s-20.667 -31.333 -35 -45s-30.833 -26.334 -49.5 -38.001s-38 -22.834 -58 -33.501c-20.667 -11.333 -42 -23.833 -64 -37.5s-43.333 -29.5 -64 -47.5l2 -1
c20.667 17.333 43.834 33 69.501 47l72.5 38l58.5 30.5c19 10.333 35.833 21.833 50.5 34.5s26.5 26.834 35.5 42.501s13.5 33.834 13.5 54.501zM61.998 44c0 -9.33301 3.66699 -14.001 11 -14.001c5.33301 0 10 2.33301 14 7s6 10.667 6 18c0 10.667 -3.66699 16 -11 16
c-5.33301 0 -10 -2.66699 -14 -8s-6 -11.666 -6 -18.999zM259.998 285.999c-5.33301 0 -9.00195 1 -11.002 3c2 -4.66699 5 -7 9 -7c7.33301 0 18.5 3.66699 33.5 11s30.167 18.333 45.5 33c-15.333 -13.333 -30.166 -23.333 -44.499 -30s-25.166 -10 -32.499 -10z" />
    <glyph glyph-name=".notdef" horiz-adv-x="500" 
d="M21 451h458v-451h-458v451zM443 379c0 12.667 -4.16895 23.167 -12.502 31.5s-19.5 12.5 -33.5 12.5s-28 -2.83301 -42 -8.5s-27 -12.667 -39 -21s-22.833 -17.833 -32.5 -28.5s-17.5 -21 -23.5 -31c6.66699 10 15.334 20 26.001 30s22.167 19 34.5 27s25 14.667 38 20
s25.5 8 37.5 8c8 0 14.833 -2.5 20.5 -7.5s8.5 -12.167 8.5 -21.5c0 -20.667 -4.5 -39.167 -13.5 -55.5s-20.667 -31.333 -35 -45s-30.833 -26.334 -49.5 -38.001s-38 -22.834 -58 -33.501c-20.667 -11.333 -42 -23.833 -64 -37.5s-43.333 -29.5 -64 -47.5l2 -1
c20.667 17.333 43.834 33 69.501 47l72.5 38l58.5 30.5c19 10.333 35.833 21.833 50.5 34.5s26.5 26.834 35.5 42.501s13.5 33.834 13.5 54.501zM61.998 44c0 -9.33301 3.66699 -14.001 11 -14.001c5.33301 0 10 2.33301 14 7s6 10.667 6 18c0 10.667 -3.66699 16 -11 16
c-5.33301 0 -10 -2.66699 -14 -8s-6 -11.666 -6 -18.999zM259.998 285.999c-5.33301 0 -9.00195 1 -11.002 3c2 -4.66699 5 -7 9 -7c7.33301 0 18.5 3.66699 33.5 11s30.167 18.333 45.5 33c-15.333 -13.333 -30.166 -23.333 -44.499 -30s-25.166 -10 -32.499 -10z" />
    <glyph glyph-name="space" unicode=" " horiz-adv-x="250" 
 />
    <glyph glyph-name="exclam" unicode="!" horiz-adv-x="200" 
d="M106 104l53.999 59l76 78l66.5 68l80.5 84h37l2 -6l-78.5 -74l-84.5 -82l-78.5 -77.5c-24.333 -24.333 -44.166 -44.833 -59.499 -61.5zM28.999 14c0 8.66699 2.83203 16.001 8.49902 22.001s12.834 9 21.501 9c6 0 11 -2 15 -6s6 -8.66699 6 -14
c0 -8.66699 -3 -15.667 -9 -21s-13 -8 -21 -8c-6 0 -11 1.66699 -15 5s-6 7.66602 -6 12.999z" />
    <glyph glyph-name="quotedbl" unicode="&#x22;" horiz-adv-x="350" 
d="M177 195c10 3.33301 20.667 7.50098 32 12.501s22.5 10.333 33.5 16s20.833 12 29.5 19s15.667 14.167 21 21.5h-3c-6 0 -11 1.66699 -15 5s-6 7.66602 -6 12.999c0 9.33301 3 16.833 9 22.5s13 8.5 21 8.5c6 0 11 -2 15 -6s6 -8.66699 6 -14v-4
c-1.33301 -13.333 -6.83301 -25.5 -16.5 -36.5s-21.5 -20.833 -35.5 -29.5s-29 -16.5 -45 -23.5s-30.333 -12.833 -43 -17.5zM251 195.001c10 3.33301 20.833 7.50098 32.5 12.501s23 10.333 34 16s20.833 12 29.5 19s15.667 14.167 21 21.5h-3c-6 0 -11 1.66699 -15 5
s-6 7.66602 -6 12.999c0 9.33301 3 16.833 9 22.5s12.667 8.5 20 8.5c6 0 11 -2 15 -6s6 -8.66699 6 -14v-4c-1.33301 -13.333 -6.83301 -25.5 -16.5 -36.5s-21.5 -20.833 -35.5 -29.5s-29 -16.5 -45 -23.5s-30.333 -12.833 -43 -17.5z" />
    <glyph glyph-name="numbersign" unicode="#" 
d="M167 80l-76.998 0.000976562l-23 -42.5l-23 -42.5l-18 6l44 79h-51l4 12h54c5.33301 10.667 11.166 21 17.499 31s12.166 20.333 17.499 31h-62l4 13h66l23 40.5l23 40.5l18 -6l-44 -75h75c6.66699 12 13.5 25.667 20.5 41s13.833 28.666 20.5 39.999l18 -6l-40 -75h46
l-4 -13h-48c-5.33301 -9.33301 -10.833 -19.5 -16.5 -30.5l-16.5 -31.5h54l-4 -12h-57l-22 -43l-22 -42l-18 6zM97.002 92.001h77c5.33301 9.33301 10.833 19.5 16.5 30.5l16.5 31.5h-74z" />
    <glyph glyph-name="dollar" unicode="$" 
d="M64 -2c-13.333 3.33301 -23.832 9.16406 -31.499 17.4971s-11.5 18.166 -11.5 29.499c0 10 3.16699 18.667 9.5 26s14.166 11 23.499 11c12 0 18 -4.33301 18 -13c0 -5.33301 -2.16699 -10.166 -6.5 -14.499s-10.166 -6.5 -17.499 -6.5l-9 2v-5
c0 -9.33301 3 -17.166 9 -23.499s13.667 -10.833 23 -13.5l43.5 65l43.5 65c-2.66699 6.66699 -5.16699 13.834 -7.5 21.501s-3.5 15.167 -3.5 22.5c0 20.667 8.66699 38.167 26 52.5s38.666 21.5 63.999 21.5h3c1.33301 3.33301 3.5 7 6.5 11l7.5 10l14 -7l-12 -17
c9.33301 -2.66699 16.666 -6.5 21.999 -11.5s8 -10.5 8 -16.5c0 -10 -3 -18.667 -9 -26s-13.333 -11 -22 -11c-7.33301 0 -12.166 1.33301 -14.499 4s-3.5 5.66699 -3.5 9c0 5.33301 2 10.166 6 14.499s9.33301 6.5 16 6.5l8 -2c0 0.666992 0.166992 1.33398 0.5 2.00098
s0.5 1.66699 0.5 3c0 8.66699 -6.33301 14.667 -19 18l-31 -47l-31 -47c0.666992 -0.666992 1.16699 -1.5 1.5 -2.5s0.833008 -1.83301 1.5 -2.5c4.66699 -9.33301 9 -18.833 13 -28.5s6 -20.167 6 -31.5c0 -12.667 -3.16699 -24.5 -9.5 -35.5s-15 -20.5 -26 -28.5
s-23.667 -14.333 -38 -19s-29.833 -7 -46.5 -7c-2 0 -3.5 -0.166992 -4.5 -0.5s-2.16699 -0.166016 -3.5 0.500977l-23.5 -35.5l-23.5 -35.5l-14 7zM179.001 78.998c0 7.33301 -1.16895 14.168 -3.50195 20.501s-5.16602 13.166 -8.49902 20.499l-39 -56.5l-39 -57.5
c24.667 0 45.834 7.16699 63.501 21.5s26.5 31.5 26.5 51.5zM173.999 190c0 -7.33301 1.66699 -15.333 5 -24l26.5 39l26.5 39c-16.667 -1.33301 -30.5 -7 -41.5 -17s-16.5 -22.333 -16.5 -37z" />
    <glyph glyph-name="percent" unicode="%" horiz-adv-x="480" 
d="M36 113c0 24.667 7.66602 47.501 22.999 68.501s35.333 38.833 60 53.5s52.334 26.167 83.001 34.5s61 12.5 91 12.5l1 -10c-26.667 0 -54 -5.16699 -82 -15.5s-53.5 -23.5 -76.5 -39.5s-42 -33.333 -57 -52s-22.5 -36.334 -22.5 -53.001
c0 -6.66699 1.83301 -11.667 5.5 -15s7.83398 -5 12.501 -5c16.667 0 33.5 4.33301 50.5 13s33.167 20.167 48.5 34.5s29.166 30.833 41.499 49.5s21.5 38 27.5 58l18 -2c-6 -22 -15.333 -42.833 -28 -62.5s-27.5 -37 -44.5 -52s-35.167 -27 -54.5 -36s-39 -13.5 -59 -13.5
c-25.333 0 -38 10.667 -38 32zM229.999 3.00098c0 24.667 7.66699 47.334 23 68.001s35.166 38.5 59.499 53.5s51.833 26.667 82.5 35s61.334 12.5 92.001 12.5l1 -10c-26.667 0 -54 -5.16699 -82 -15.5s-53.5 -23.5 -76.5 -39.5s-42 -33.333 -57 -52
s-22.5 -36.334 -22.5 -53.001c0 -6.66699 1.83301 -11.667 5.5 -15s7.83398 -5 12.501 -5c16.667 0 33.5 4.33301 50.5 13s33.167 20 48.5 34s29.166 30.333 41.499 49s21.5 38 27.5 58l18 -2c-6 -21.333 -15.333 -42 -28 -62s-27.5 -37.5 -44.5 -52.5
s-35.167 -27 -54.5 -36s-39 -13.5 -59 -13.5c-25.333 0 -38 11 -38 33zM85.999 -47.999l293 352l15 -9l-294 -353z" />
    <glyph glyph-name="ampersand" unicode="&#x26;" horiz-adv-x="550" 
d="M635 186c0 -4 -2 -6.99609 -6 -8.99609s-9 -3 -15 -3c-56.667 -2.66699 -111.167 -13.667 -163.5 -33s-103.5 -43.666 -153.5 -72.999c0.666992 -5.33301 1 -11.5 1 -18.5v-18.5c0 -48.667 -9 -91.334 -27 -128.001s-41.5 -67.334 -70.5 -92.001
s-62.167 -43.167 -99.5 -55.5s-75 -18.5 -113 -18.5l-1 11c36.667 1.33301 72.5 7.83301 107.5 19.5s66.167 29 93.5 52s49.166 52 65.499 87s24.5 76.5 24.5 124.5v26c-56 -36 -111.667 -75.333 -167 -118h-37l-2 7l23 17l23 17l85.5 66l72.5 57l-4 65
c-1.33301 22 -2 40.667 -2 56c0 28.667 6.33301 58 19 88s28.834 57.167 48.501 81.5s41 44.166 64 59.499s44.833 23 65.5 23c8.66699 0 17.667 -4.16699 27 -12.5s14 -24.833 14 -49.5c0 -20.667 -2.83301 -42 -8.5 -64s-16.167 -45.833 -31.5 -71.5
s-36.833 -53.334 -64.5 -83.001s-63.5 -62.834 -107.5 -99.501v-9c70.667 42 132.167 70.333 184.5 85s97.5 22 135.5 22c12.667 0 19 -2.66699 19 -8zM290 221.004c0 -10 0.331055 -20.502 0.998047 -31.502s1.33398 -22.833 2.00098 -35.5
c0.666992 -6.66699 0.833984 -12.167 0.500977 -16.5s-0.166016 -10.166 0.500977 -17.499c33.333 28.667 62 57.334 86 86.001s43.667 56.167 59 82.5s26.666 50.833 33.999 73.5s11 42.667 11 60c0 16 -1.66699 26.667 -5 32s-7.66602 8 -12.999 8
c-18 0 -37.167 -7.33301 -57.5 -22s-39.333 -33.5 -57 -56.5s-32.334 -48.833 -44.001 -77.5s-17.5 -57 -17.5 -85zM276.998 81.002c-5.33301 -4.66699 -10.833 -9 -16.5 -13s-11.167 -8.33301 -16.5 -13l33 21v5v0z" />
    <glyph glyph-name="quotesingle" unicode="'" 
d="M176 195c10 3.33301 20.833 7.50098 32.5 12.501s23 10.333 34 16s20.833 12 29.5 19s15.667 14.167 21 21.5h-3c-6 0 -11 1.66699 -15 5s-6 7.66602 -6 12.999c0 9.33301 3 16.833 9 22.5s13 8.5 21 8.5c6 0 11 -2 15 -6s6 -8.66699 6 -14v-4
c-1.33301 -13.333 -6.83301 -25.5 -16.5 -36.5s-21.667 -20.833 -36 -29.5s-29.5 -16.5 -45.5 -23.5s-30.333 -12.833 -43 -17.5z" />
    <glyph glyph-name="parenleft" unicode="(" horiz-adv-x="350" 
d="M923 721c-36 0 -76.3311 -9.49512 -120.998 -28.4951s-91 -44.667 -139 -77s-96.5 -70 -145.5 -113s-96.5 -88.833 -142.5 -137.5s-89.167 -98.834 -129.5 -150.501s-75.333 -102 -105 -151s-53.167 -95.5 -70.5 -139.5s-26 -82.667 -26 -116
c0 -35.333 9.66699 -62.333 29 -81l-12 -13c-27.333 27.333 -41 62.666 -41 105.999c0 36 8.5 76.833 25.5 122.5s40.333 93.167 70 142.5s64.5 99.666 104.5 150.999s83.167 101 129.5 149s94.833 93.167 145.5 135.5s101.167 79.166 151.5 110.499
s99.666 56.166 147.999 74.499s93.166 27.5 134.499 27.5z" />
    <glyph glyph-name="parenright" unicode=")" horiz-adv-x="350" 
d="M-226 -271c36.667 0 77.165 9.49902 121.498 28.499s90.5 44.667 138.5 77s96.667 70 146 113s97 88.833 143 137.5s89.167 98.834 129.5 150.501s75.333 102 105 151s53.167 95.333 70.5 139s26 82.167 26 115.5c0 35.333 -9.66699 62.666 -29 81.999l12 13
c27.333 -28.667 41 -64.334 41 -107.001c0 -36 -8.5 -76.833 -25.5 -122.5s-40.333 -93.167 -70 -142.5s-64.5 -99.666 -104.5 -150.999s-83.167 -101 -129.5 -149s-94.833 -93 -145.5 -135s-101.167 -78.667 -151.5 -110s-99.666 -56.166 -147.999 -74.499
s-93.166 -27.5 -134.499 -27.5z" />
    <glyph glyph-name="asterisk" unicode="*" 
d="M351 279c-4 0 -8.6709 -0.334961 -14.0039 -1.00195s-11.333 -2 -18 -4c33.333 -24.667 50 -42.667 50 -54c0 -7.33301 -4.66699 -11 -14 -11c-5.33301 0 -9.33301 1.33301 -12 4s-5.33398 6.66699 -8.00098 12c-3.33301 7.33301 -6.83301 14 -10.5 20
s-8.16699 11.667 -13.5 17c-0.666992 -6 -1.66699 -12.667 -3 -20s-3.33301 -14.5 -6 -21.5s-5.83398 -12.833 -9.50098 -17.5s-8.5 -7 -14.5 -7c-5.33301 0 -8.83301 1.5 -10.5 4.5s-2.5 5.83301 -2.5 8.5s2.66699 7.66699 8 15c8 10 15.333 24.333 22 43
c-13.333 -4 -25 -7.16699 -35 -9.5s-18 -3.5 -24 -3.5c-12.667 0 -19 3 -19 9s2.33301 9.83301 7 11.5s8.66699 2.5 12 2.5c2 0 4.16699 -0.166992 6.5 -0.5s4.5 -0.5 6.5 -0.5c2.66699 -0.666992 6.66699 -1 12 -1c4 0 8.5 0.166992 13.5 0.5s11.167 1.5 18.5 3.5
c-33.333 26 -50 44.667 -50 56c0 7.33301 4.66699 11 14 11c5.33301 0 9.33301 -1.33301 12 -4s5.33398 -6.66699 8.00098 -12c3.33301 -7.33301 6.83301 -14.166 10.5 -20.499s8.16699 -12.166 13.5 -17.499c0.666992 6 1.66699 12.833 3 20.5s3.33301 15 6 22
s5.83398 12.833 9.50098 17.5s8.5 7 14.5 7c5.33301 0 8.83301 -1.5 10.5 -4.5s2.5 -5.83301 2.5 -8.5s-2.66699 -7.66699 -8 -15c-4.66699 -6 -8.66699 -12.167 -12 -18.5s-6.66602 -14.833 -9.99902 -25.5c26.667 9.33301 46.334 14 59.001 14s19 -3.33301 19 -10
c0 -6 -2.33301 -9.83301 -7 -11.5s-8.66699 -2.5 -12 -2.5h-6.5c-3 0 -5.5 0.333008 -7.5 1c-1.33301 0 -3.16602 0.166992 -5.49902 0.5s-4.16602 0.5 -5.49902 0.5z" />
    <glyph glyph-name="plus" unicode="+" 
d="M80 98h56l14 25.5l14 25.5l19 -6l-26 -45h54l-4 -13h-58l-13.5 -25l-13.5 -25l-19 6l24 44h-51z" />
    <glyph glyph-name="comma" unicode="," horiz-adv-x="150" 
d="M-55 -49c10 3.33301 20.833 7.50098 32.5 12.501s23 10.5 34 16.5s20.833 12.333 29.5 19s15.667 14 21 22h-3c-6 0 -11 1.66699 -15 5s-6 7.66602 -6 12.999c0 9.33301 3 16.833 9 22.5s13 8.5 21 8.5c6 0 11 -2 15 -6s6 -8.66699 6 -14v-4
c-1.33301 -13.333 -6.83301 -25.5 -16.5 -36.5s-21.667 -21 -36 -30s-29.5 -17 -45.5 -24s-30.333 -12.833 -43 -17.5z" />
    <glyph glyph-name="hyphen" unicode="-" 
d="M80 98h131l-4 -13h-131z" />
    <glyph glyph-name="period" unicode="." horiz-adv-x="150" 
d="M28 14c0 8.66699 2.83203 16.001 8.49902 22.001s12.834 9 21.501 9c6 0 11 -2 15 -6s6 -8.66699 6 -14c0 -8.66699 -3 -15.667 -9 -21s-13 -8 -21 -8c-6 0 -11 1.66699 -15 5s-6 7.66602 -6 12.999z" />
    <glyph glyph-name="slash" unicode="/" 
d="M-310 -264l1181 992l11 -12l-1182 -992z" />
    <glyph glyph-name="zero" unicode="0" horiz-adv-x="300" 
d="M11 37c0 32.667 10 62.666 30 89.999s46 51 78 71s68 35.5 108 46.5s80 16.5 120 16.5l1 -10c-35.333 0 -71.5 -7.16699 -108.5 -21.5s-71 -32.166 -102 -53.499s-56.333 -44.666 -76 -69.999s-29.5 -49 -29.5 -71c0 -9.33301 2.5 -16.333 7.5 -21s11.167 -7 18.5 -7
c22.667 0 45.667 5.66699 69 17s45.333 26.333 66 45s39.167 40.334 55.5 65.001s28.5 50.667 36.5 78l17 -2c-8 -28.667 -20.333 -56 -37 -82s-36 -48.833 -58 -68.5s-45.833 -35.334 -71.5 -47.001s-51.5 -17.5 -77.5 -17.5c-14.667 0 -26.167 3.66699 -34.5 11
s-12.5 17.666 -12.5 30.999z" />
    <glyph glyph-name="one" unicode="1" horiz-adv-x="300" 
d="M-9 71c46 12.667 97.333 33.0029 154 61.0029s114.667 65 174 111l11 -12l-72.5 -64.5l-58.5 -55c-18 -17.667 -35.167 -35.334 -51.5 -53.001l-51.5 -58.5h-42l-2 7l50 44.5l42 37.5l15 15l12 12l14 13.5c5.33301 5 12.666 11.167 21.999 18.5
c-37.333 -20.667 -74.166 -38.334 -110.499 -53.001s-70.5 -26.334 -102.5 -35.001z" />
    <glyph glyph-name="two" unicode="2" horiz-adv-x="300" 
d="M250 54c-19.333 -14 -39.832 -27.3281 -61.499 -39.9951s-46.5 -19 -74.5 -19c-10.667 0 -21.167 1.66699 -31.5 5s-20.5 7 -30.5 11c-1.33301 0.666992 -3.33301 1.33398 -6 2.00098s-5 1.66699 -7 3l-15 -5c-6 -2 -12.333 -3.83301 -19 -5.5s-13.334 -3 -20.001 -4
s-12.334 -1.5 -17.001 -1.5c-6 0 -11.167 1.16699 -15.5 3.5s-6.5 5.16602 -6.5 8.49902c0 6.66699 4.66699 12.5 14 17.5s20.666 7.5 33.999 7.5c8.66699 0 16.334 -0.333008 23.001 -1s13.667 -2 21 -4c33.333 12.667 63.833 26.667 91.5 42s51.334 31.166 71.001 47.499
s34.834 32.666 45.501 48.999s16 31.5 16 45.5c0 5.33301 -1.5 10 -4.5 14s-6.16699 6 -9.5 6c-14.667 0 -30.167 -4.33301 -46.5 -13s-31.5 -19.167 -45.5 -31.5s-25.5 -25 -34.5 -38s-13.5 -23.833 -13.5 -32.5c0 -6.66699 1.33301 -10 4 -10
c4.66699 0 11.834 2.16699 21.501 6.5s20.167 10.666 31.5 18.999s23 18.666 35 30.999s22.667 26.5 32 42.5l13 -6c-9.33301 -16.667 -20.5 -31.5 -33.5 -44.5s-26 -24 -39 -33s-25.167 -15.833 -36.5 -20.5s-20 -7 -26 -7c-7.33301 0 -12.5 2.16699 -15.5 6.5
s-4.5 9.16602 -4.5 14.499c0 10 4.5 22.333 13.5 37s21 28.667 36 42s32 24.833 51 34.5s38.5 14.5 58.5 14.5c11.333 0 21 -3.83301 29 -11.5s12 -17.167 12 -28.5c0 -21.333 -6 -41 -18 -59s-28.333 -34.667 -49 -50s-45 -29.333 -73 -42s-58 -24 -90 -34
c9.33301 -4 19.166 -7.5 29.499 -10.5s20.166 -4.5 29.499 -4.5c21.333 0 42.333 6 63 18s40.667 25.333 60 40z" />
    <glyph glyph-name="three" unicode="3" horiz-adv-x="300" 
d="M48 7c15.333 0 31.667 3.49609 49 10.4961s33.5 16 48.5 27s27.333 23.333 37 37s14.5 27.167 14.5 40.5v7.5c0 1.66699 -0.666992 3.16699 -2 4.5c-4.66699 -1.33301 -10.167 -2.66602 -16.5 -3.99902s-12.5 -2 -18.5 -2s-11.167 1.33301 -15.5 4s-6.5 6 -6.5 10
s2.33301 7.66699 7 11s10.334 5 17.001 5c8.66699 0 15.5 -0.333008 20.5 -1s10.833 -2.66699 17.5 -6c22 8.66699 39.833 17.834 53.5 27.501s20.5 23.167 20.5 40.5c0 4.66699 -2.16699 8.66699 -6.5 12s-9.16602 5 -14.499 5c-20.667 0 -38.334 -4.16699 -53.001 -12.5
s-22 -18.166 -22 -29.499c0 -6.66699 3 -10 9 -10c19.333 0 36.333 11.333 51 34l13 -6c-7.33301 -13.333 -17 -23.333 -29 -30s-24.333 -10 -37 -10c-7.33301 0 -13.333 2.16699 -18 6.5s-7 9.16602 -7 14.499c0 15.333 9.16699 28.333 27.5 39s40.5 16 66.5 16
c13.333 0 24.666 -3.66699 33.999 -11s14 -16 14 -26c0 -16.667 -6.33301 -30.167 -19 -40.5s-34 -20.166 -64 -29.499c4.66699 -4.66699 7.83398 -8.83398 9.50098 -12.501s2.5 -9.16699 2.5 -16.5c0 -13.333 -5.16699 -26.833 -15.5 -40.5s-24 -26.167 -41 -37.5
s-36.5 -20.666 -58.5 -27.999s-45 -11 -69 -11c-25.333 0 -46.833 2.5 -64.5 7.5s-26.5 12.167 -26.5 21.5c0 4 1.66699 7.5 5 10.5s7.66602 4.5 12.999 4.5c4.66699 0 9.66699 -1.16699 15 -3.5s10 -5.16602 14 -8.49902c6 -4.66699 13 -9.16699 21 -13.5s16 -6.5 24 -6.5z
" />
    <glyph glyph-name="four" unicode="4" horiz-adv-x="300" 
d="M273 57c-35.333 11.333 -68.6689 17.3311 -100.002 17.998l-33 -36c-12 -12.667 -23.333 -25.667 -34 -39h-42l-2 7l40 35l38 34c-42 0 -87.667 -5.33301 -137 -16l-2 12c34.667 22 67.167 48.333 97.5 79s55.5 63 75.5 97h43l2 -7c-10 -14.667 -22.667 -29.667 -38 -45
s-31.166 -30.166 -47.499 -44.499s-32.833 -27.666 -49.5 -39.999s-31.667 -22.833 -45 -31.5c16.667 2.66699 33.334 4.5 50.001 5.5s33.667 1.5 51 1.5h13l72.5 65l106.5 91l7 -12l-88 -79l-68 -65c15.333 -1.33301 31.333 -3.5 48 -6.5s32.667 -7.16699 48 -12.5z" />
    <glyph glyph-name="five" unicode="5" horiz-adv-x="300" 
d="M87 139c12.667 10 24.1689 19.502 34.502 28.502s19.833 18.5 28.5 28.5s17.167 20.333 25.5 31l26.5 35c16 -10 29.833 -16.333 41.5 -19s22.5 -4 32.5 -4c8 0 16.833 0.666992 26.5 2s22.167 5.33301 37.5 12l8 -9c-19.333 -14.667 -36.833 -24.667 -52.5 -30
s-30.834 -8 -45.501 -8c-10 0 -19.833 0.833008 -29.5 2.5s-20.167 4.5 -31.5 8.5c-7.33301 -9.33301 -13.833 -17 -19.5 -23l-22.5 -23c5.33301 1.33301 10.333 2.16602 15 2.49902s10 0.5 16 0.5c15.333 0 28.166 -4.33301 38.499 -13s15.5 -19.334 15.5 -32.001
c0 -13.333 -5.16699 -27.666 -15.5 -42.999s-24.166 -29.833 -41.499 -43.5s-37.166 -25 -59.499 -34s-45.5 -13.5 -69.5 -13.5c-22 0 -40.833 2.66699 -56.5 8s-23.5 11.666 -23.5 18.999c0 4 1.66699 7.5 5 10.5s7.66602 4.5 12.999 4.5c6 0 11 -1.16699 15 -3.5
s8 -5.16602 12 -8.49902l16.5 -12c5.66699 -4 12.167 -6 19.5 -6c12.667 0 27.667 4.16699 45 12.5s34 18.833 50 31.5s29.667 26.5 41 41.5s17 29.167 17 42.5c0 7.33301 -2.16699 13.666 -6.5 18.999s-9.5 8 -15.5 8c-9.33301 0 -20.333 -2 -33 -6
s-29.334 -14 -50.001 -30z" />
    <glyph glyph-name="six" unicode="6" horiz-adv-x="300" 
d="M31 45c0 30 11.6709 58.334 35.0039 85.001s53 51 89 73s75.833 41.333 119.5 58s86.167 29.667 127.5 39l2 -10c-41.333 -12 -82 -27 -122 -45s-75.833 -38.5 -107.5 -61.5s-57.167 -47.833 -76.5 -74.5s-29 -54 -29 -82c0 -5.33301 1.5 -10 4.5 -14s6.16699 -6 9.5 -6
c14 0 30.167 4.83301 48.5 14.5s35.666 21.5 51.999 35.5s30.166 28.667 41.499 44s17 28.666 17 39.999c0 8.66699 -3.66699 13 -11 13c-12 0 -24.333 -3.33301 -37 -10s-25 -15.667 -37 -27s-23.333 -24.166 -34 -38.499s-20.334 -29.5 -29.001 -45.5l-14 7
c8 16 17.333 31.667 28 47s22.5 28.833 35.5 40.5s27 21 42 28s30.833 10.5 47.5 10.5c7.33301 0 13.666 -2.33301 18.999 -7s8 -10.667 8 -18c0 -12.667 -6 -27.334 -18 -44.001s-27 -32.5 -45 -47.5s-37.333 -27.833 -58 -38.5s-39.667 -16 -57 -16
c-16 0 -28.5 5 -37.5 15s-13.5 21.667 -13.5 35z" />
    <glyph glyph-name="seven" unicode="7" horiz-adv-x="300" 
d="M60 155c14.667 9.33301 27.998 18.3311 39.998 26.998s23 17.5 33 26.5s19.333 18.5 28 28.5s17 21.333 25 34l14 -9l-19 -27c7.33301 2.66699 15 4.66699 23 6s15 2 21 2c9.33301 0 16.833 -0.833008 22.5 -2.5s11.167 -3.5 16.5 -5.5
c4.66699 -1.33301 9.16699 -2.83301 13.5 -4.5s8.16602 -2.5 11.499 -2.5c4 0 7.5 0.166992 10.5 0.5s6.33301 1.33301 10 3s8 4.16699 13 7.5s11.167 8 18.5 14l11 -12c-17.333 -15.333 -36.166 -30.666 -56.499 -45.999l-60.5 -44l-73 -53.5
c-25.333 -19 -49.5 -39 -72.5 -60s-44 -43 -63 -66s-34.5 -46.5 -46.5 -70.5h-44l-2 6c16.667 26 36 50.333 58 73s45.5 44.5 70.5 65.5s50.833 41.167 77.5 60.5l79 56l36 25.5l35 24.5c-8.66699 -1.33301 -17 -2.16602 -25 -2.49902s-15 -0.5 -21 -0.5
s-11.833 0.333008 -17.5 1s-11.167 1.66699 -16.5 3c-10 2 -19.667 3 -29 3c-5.33301 0 -10.166 -1.33301 -14.499 -4s-8.5 -5.66699 -12.5 -9c-11.333 -9.33301 -23.666 -18.833 -36.999 -28.5s-30 -20.167 -50 -31.5z" />
    <glyph glyph-name="eight" unicode="8" horiz-adv-x="300" 
d="M6 45c0 13.333 3.16797 24.834 9.50098 34.501s15.166 18.334 26.499 26.001s24.5 14.5 39.5 20.5s31.167 12 48.5 18c-2.66699 8.66699 -4 20 -4 34c0 19.333 9 36.666 27 51.999s42.667 23 74 23c8.66699 0 17.334 -1.33301 26.001 -4s16.667 -6.33398 24 -11.001
l-7 -9c-9.33301 4 -17.833 7 -25.5 9s-13.834 3 -18.501 3c-19.333 0 -35.5 -5.5 -48.5 -16.5s-19.5 -24.167 -19.5 -39.5c0 -11.333 2 -21.333 6 -30c18 6 35.833 12.5 53.5 19.5s34.5 15.167 50.5 24.5s30.667 20.333 44 33s24.666 27.667 33.999 45l13 -6
c-10 -18.667 -22 -34.834 -36 -48.501s-29.167 -25.5 -45.5 -35.5s-33.666 -18.667 -51.999 -26s-36.5 -14 -54.5 -20l3 -7l10 -23c3.33301 -8 5 -16 5 -24c0 -12.667 -3 -24.667 -9 -36s-14.167 -21.166 -24.5 -29.499s-22.333 -14.833 -36 -19.5s-28.167 -7 -43.5 -7
c-19.333 0 -35.833 5 -49.5 15s-20.5 21.667 -20.5 35zM153.001 72.001c0 8 -1.33301 15.832 -4 23.499s-5.66699 15.167 -9 22.5c-1.33301 4 -3 8 -5 12c-15.333 -5.33301 -29.5 -10.5 -42.5 -15.5s-24.5 -10.667 -34.5 -17s-17.833 -13.666 -23.5 -21.999
s-8.5 -17.833 -8.5 -28.5c0 -11.333 5.33301 -20.833 16 -28.5s23.667 -11.5 39 -11.5c20 0 37 6.33301 51 19s21 28 21 46z" />
    <glyph glyph-name="nine" unicode="9" horiz-adv-x="300" 
d="M352 231l-20.9971 -18.499l-21 -18.5l-149.5 -134c-51.667 -46.667 -103.834 -99.667 -156.501 -159h-43l-2 6l202 180c-22 -8 -43.667 -12 -65 -12c-14.667 0 -25.5 3.33301 -32.5 10s-10.5 15 -10.5 25c0 13.333 6 27.833 18 43.5s27.833 30.167 47.5 43.5
s41.667 24.5 66 33.5s48.833 13.5 73.5 13.5c13.333 0 24.166 -2 32.499 -6s12.5 -10.667 12.5 -20c0 -3.33301 0.166992 -4.83301 0.5 -4.5s0.166016 -0.833984 -0.500977 -3.50098l20 16.5l19 16.5zM257.003 232.001c-19.333 0 -39.5 -3.99902 -60.5 -11.999
s-40.167 -18 -57.5 -30s-31.666 -25 -42.999 -39s-17 -26.667 -17 -38c0 -7.33301 1.83301 -13.333 5.5 -18s9.16699 -7 16.5 -7c14 0 31.167 4.5 51.5 13.5s39.666 20 57.999 33s34 26.667 47 41s19.5 27.166 19.5 38.499c0 12 -6.66699 18 -20 18z" />
    <glyph glyph-name="colon" unicode=":" horiz-adv-x="150" 
d="M28 14c0 8.66699 2.83203 16.001 8.49902 22.001s12.834 9 21.501 9c6 0 11 -2 15 -6s6 -8.66699 6 -14c0 -8.66699 -3 -15.667 -9 -21s-13 -8 -21 -8c-6 0 -11 1.66699 -15 5s-6 7.66602 -6 12.999zM127.999 113.001c0 8.66699 2.83203 16.001 8.49902 22.001
s12.834 9 21.501 9c6 0 11 -2 15 -6s6 -8.66699 6 -14c0 -8.66699 -3 -15.667 -9 -21s-13 -8 -21 -8c-6 0 -11 1.66699 -15 5s-6 7.66602 -6 12.999z" />
    <glyph glyph-name="semicolon" unicode=";" horiz-adv-x="150" 
d="M-54 -49c10 3.33301 20.667 7.50098 32 12.501s22.5 10.5 33.5 16.5s20.833 12.333 29.5 19s15.667 14 21 22h-3c-6 0 -11 1.66699 -15 5s-6 7.66602 -6 12.999c0 9.33301 3 16.833 9 22.5s13 8.5 21 8.5c6 0 11 -2 15 -6s6 -8.66699 6 -14v-4
c-1.33301 -13.333 -6.83301 -25.5 -16.5 -36.5s-21.5 -21 -35.5 -30s-29 -17 -45 -24s-30.333 -12.833 -43 -17.5zM108 113.001c0 8.66699 2.83203 16.001 8.49902 22.001s12.834 9 21.501 9c5.33301 0 10 -2 14 -6s6 -8.66699 6 -14c0 -8.66699 -3 -15.667 -9 -21
s-12.667 -8 -20 -8c-6 0 -11 1.66699 -15 5s-6 7.66602 -6 12.999z" />
    <glyph glyph-name="less" unicode="&#x3c;" 
d="M171 30l-94 58l4 10l140 45l6 -15l-120 -37c12 -6.66699 24.333 -14 37 -22l37 -23z" />
    <glyph glyph-name="equal" unicode="=" 
d="M65 84h131l-4 -14h-131zM90 118h131l-4 -14h-131z" />
    <glyph glyph-name="greater" unicode="&#x3e;" 
d="M111 144l94 -58l-4 -10l-140 -45l-6 15l120 37c-12 6.66699 -24.333 14 -37 22l-37 23z" />
    <glyph glyph-name="question" unicode="?" horiz-adv-x="250" 
d="M430 349c0 -21.333 -4.50098 -39.9961 -13.501 -55.9961s-21 -30.333 -36 -43s-32.333 -24.334 -52 -35.001s-40.5 -21.334 -62.5 -32.001l-76.5 -40c-25.667 -14 -49.5 -30.667 -71.5 -50l-10 10c20.667 18.667 42.5 34.834 65.5 48.501l68.5 40.5l57 33.5
c18 11 33.833 23 47.5 36s24.667 27.333 33 43s12.5 34.167 12.5 55.5c0 8 -1.83301 14.167 -5.5 18.5s-8.16699 6.5 -13.5 6.5c-14 0 -29.167 -4.33301 -45.5 -13s-31.5 -19.167 -45.5 -31.5s-25.667 -25 -35 -38s-14 -23.833 -14 -32.5c0 -4 0.333008 -6.5 1 -7.5
s1.66699 -1.5 3 -1.5c4.66699 0 11.834 2.16699 21.501 6.5s20.167 10.666 31.5 18.999s23 18.833 35 31.5s23 27 33 43l11 -9c-9.33301 -16.667 -20.333 -31.334 -33 -44.001s-25.5 -23.334 -38.5 -32.001s-25.167 -15.334 -36.5 -20.001s-20 -7 -26 -7
c-7.33301 0 -12.5 2.16699 -15.5 6.5s-4.5 8.83301 -4.5 13.5c0 10 4.5 22.333 13.5 37s21 28.667 36 42s32 24.833 51 34.5s38.5 14.5 58.5 14.5c17.333 0 31 -4.66699 41 -14s15 -20.666 15 -33.999zM28.999 14.0039c0 8.66699 2.83203 16.001 8.49902 22.001
s12.834 9 21.501 9c6 0 11 -2 15 -6s6 -8.66699 6 -14c0 -8.66699 -3 -15.667 -9 -21s-13 -8 -21 -8c-6 0 -11 1.66699 -15 5s-6 7.66602 -6 12.999z" />
    <glyph glyph-name="at" unicode="@" horiz-adv-x="750" 
d="M698 278c0 -34 -9.33105 -68.333 -27.998 -103s-42.167 -66 -70.5 -94s-59.5 -50.833 -93.5 -68.5s-66.333 -26.5 -97 -26.5c-29.333 0 -44 10 -44 30c0 7.33301 4 16.333 12 27c-18 -10.667 -36.5 -19.5 -55.5 -26.5s-35.167 -10.5 -48.5 -10.5s-22.5 1.5 -27.5 4.5
s-7.5 9.16699 -7.5 18.5c0 14.667 7.83301 30 23.5 46s34.167 30.667 55.5 44s43.333 24.333 66 33s40.667 13 54 13c9.33301 0 16.833 -1.66699 22.5 -5s8.5 -10.333 8.5 -21v-4.5c0 -1 -0.666992 -3.16699 -2 -6.5c8 5.33301 16.167 10.5 24.5 15.5
s16.166 8.83301 23.499 11.5l6 -8l-34.5 -27c-15 -12 -30 -24.667 -45 -38s-28 -26.166 -39 -38.499s-16.5 -21.833 -16.5 -28.5c0 -4 1.83301 -7.5 5.5 -10.5s10.5 -4.5 20.5 -4.5c28 0 57.5 8.33301 88.5 25s59.833 38.334 86.5 65.001s48.667 56.5 66 89.5
s26 65.833 26 98.5c0 32 -7.33301 56.833 -22 74.5s-38 26.5 -70 26.5c-23.333 0 -52.666 -7.83301 -87.999 -23.5s-72.5 -36.334 -111.5 -62.001s-77.833 -55.5 -116.5 -89.5s-73.5 -69.167 -104.5 -105.5s-56.167 -72.833 -75.5 -109.5s-29 -70.667 -29 -102
c0 -32.667 9.16699 -56.5 27.5 -71.5s47.833 -22.5 88.5 -22.5c41.333 0 86.666 9.83301 135.999 29.5s97.333 46.834 144 81.501l8 -13c-46.667 -34.667 -94.834 -62 -144.501 -82s-97.5 -30 -143.5 -30c-46.667 0 -81 8.83301 -103 26.5s-33 45.5 -33 83.5
c0 35.333 9 72.166 27 110.499s41.667 76.166 71 113.499s63 73 101 107s77.333 63.833 118 89.5s80.667 46 120 61s75.333 22.5 108 22.5c36 0 63.667 -9.83301 83 -29.5s29 -48.167 29 -85.5zM258.002 27c0 -4.66699 4.66699 -7.00195 14 -7.00195
c14.667 0 32.167 4.33301 52.5 13s39.833 19.334 58.5 32.001s34.5 25.834 47.5 39.501s19.5 25.5 19.5 35.5c0 7.33301 -4 11 -12 11c-10 0 -25 -4.83301 -45 -14.5s-40 -21 -60 -34s-37.5 -26.667 -52.5 -41s-22.5 -25.833 -22.5 -34.5z" />
    <glyph glyph-name="A" unicode="A" horiz-adv-x="975" 
d="M976 70c-37.333 -18 -72.168 -33.498 -104.501 -46.498s-67.166 -21.5 -104.499 -25.5c-7.33301 -8.66699 -13.666 -17 -18.999 -25l-16 6c1.33301 3.33301 2.33301 6.16602 3 8.49902s1.66699 5.16602 3 8.49902h-9c-26.667 0 -52.334 5.5 -77.001 16.5
s-47.667 26.167 -69 45.5c-60 -38.667 -120.333 -67.167 -181 -85.5s-127.667 -27.5 -201 -27.5c-26.667 0 -51.5 1.66699 -74.5 5s-43 7.66602 -60 12.999s-30.5 11.333 -40.5 18s-15 13.667 -15 21c0 8 6 12 18 12c9.33301 0 17.5 -1.83301 24.5 -5.5
s14.167 -8.16699 21.5 -13.5l13.5 -8.5l10.5 -6.5c9.33301 -6 24 -11 44 -15s39.667 -6 59 -6c68.667 0 132.167 9 190.5 27s117.5 46 177.5 84c-20.667 21.333 -37.667 45.833 -51 73.5s-20 55.5 -20 83.5c0 20 2.83301 39 8.5 57s13.334 33.667 23.001 47
s21 23.833 34 31.5s26.833 11.5 41.5 11.5c40 0 75.333 -13.333 106 -40s53 -61.334 67 -104.001l101 88.5l113 103.5c46.667 43.333 93.167 83.666 139.5 120.999s89.833 69.833 130.5 97.5s77.167 49.334 109.5 65.001s58.5 23.5 78.5 23.5
c2.66699 0 5.16699 -0.833008 7.5 -2.5s3.5 -4.16699 3.5 -7.5c0 -4.66699 -5 -9.66699 -15 -15h1c-30.667 -19.333 -64.667 -45.333 -102 -78s-76.5 -69 -117.5 -109l-124.5 -127.5l-122 -134.5l-111.5 -129.5l-91.5 -112.5c31.333 4 62.166 12.333 92.499 25
s63.833 28 100.5 46c8 0 12 -2 12 -6c0 -1.33301 -0.5 -2.66602 -1.5 -3.99902s-3.16699 -2.66602 -6.5 -3.99902zM1003 410.002l-116.502 -107.499l-102.5 -91.5c6 -23.333 9 -47.333 9 -72c0 -11.333 -0.666992 -24 -2 -38s-3.33301 -27.333 -6 -40
c17.333 24 41 53.833 71 89.5l100 115.5l118 127.5l126 126c42 40.333 82.833 77.5 122.5 111.5s75.834 62 108.501 84c-15.333 -3.33301 -37.666 -13.166 -66.999 -29.499s-63 -37.833 -101 -64.5s-79.333 -57.834 -124 -93.501s-90 -74.834 -136 -117.501z
M518.996 228.003c0 -28 5.83398 -54.833 17.501 -80.5s27.167 -48.5 46.5 -68.5c28.667 18.667 57.5 39 86.5 61s59.833 47 92.5 75c-6 20 -14.333 38.833 -25 56.5s-22.834 33 -36.501 46s-28.5 23.333 -44.5 31s-32.333 11.5 -49 11.5c-12 0 -23.333 -3.5 -34 -10.5
s-20 -16.5 -28 -28.5s-14.333 -26 -19 -42s-7 -33 -7 -51zM772.997 139.003c0 20 -2 39 -6 57l-88 -71c-28 -22 -55.333 -41.667 -82 -59c19.333 -17.333 40.333 -31 63 -41s45.667 -15 69 -15h14c8 20.667 15 41.5 21 62.5s9 43.167 9 66.5z" />
    <glyph glyph-name="B" unicode="B" horiz-adv-x="1075" 
d="M996 170c-13.333 1.33301 -24.001 2.16895 -32.001 2.50195s-15.667 0.5 -23 0.5c-28 0 -54.667 -5 -80 -15s-47.833 -22.5 -67.5 -37.5s-35.334 -31.833 -47.001 -50.5s-17.5 -36.334 -17.5 -53.001c0 -13.333 4.16699 -24 12.5 -32s21.166 -12 38.499 -12
c30.667 0 62.334 8.5 95.001 25.5s62.5 38.667 89.5 65s49.167 55.666 66.5 87.999s26 63.833 26 94.5c0 15.333 -2.83301 30.166 -8.5 44.499s-12.834 26.5 -21.501 36.5c-20 -8 -40.333 -14.5 -61 -19.5s-39 -8.5 -55 -10.5l-9.5 -11.5l-9.5 -11.5
c-40 -51.333 -83 -98 -129 -140s-94.833 -78 -146.5 -108s-106.167 -53.333 -163.5 -70s-117.333 -25 -180 -25c-3.33301 0 -6.83301 0.166992 -10.5 0.5s-7.16699 0.5 -10.5 0.5h-15c-5.33301 -17.333 -9.66602 -35.166 -12.999 -53.499s-5 -36.833 -5 -55.5
c0 -22.667 3.5 -42.167 10.5 -58.5s18.833 -33.5 35.5 -51.5l-13 -12c-17.333 21.333 -30.333 41.5 -39 60.5s-13 39.5 -13 61.5c0 38 5.66699 74.667 17 110c-34.667 2 -65 5.83301 -91 11.5s-47.667 12 -65 19s-30.333 13.833 -39 20.5s-13 12.334 -13 17.001
c0 9.33301 5.33301 14 16 14c3.33301 0 7.66602 -1.5 12.999 -4.5l17 -9.5l31.5 -18.5c11.667 -7 23.834 -12.833 36.501 -17.5c16 -6.66699 31.833 -11.334 47.5 -14.001s32.167 -4.33398 49.5 -5.00098c15.333 40 39 77.833 71 113.5s73 68.5 123 98.5
c67.333 40 131.333 74 192 102s112.667 51 156 69l62 27l66 31.5l63.5 33c20.333 11 38.5 21.5 54.5 31.5c26 16 49.333 32.833 70 50.5l59 52.5c4.66699 4 9.5 8.66699 14.5 14s9.5 9.66602 13.5 12.999l12 -13l-23 -19.5l-23 -19.5l-54.5 -47
c-17.667 -15.333 -34.167 -30.666 -49.5 -45.999l-21.5 -24l-19.5 -22c-3.33301 -4 -6 -7.5 -8 -10.5s-4.66699 -6.16699 -8 -9.5c11.333 -1.33301 22.5 -4.33301 33.5 -9s20.5 -10.334 28.5 -17.001c32 14.667 63 32.667 93 54s56.333 43.833 79 67.5
s40.834 47.667 54.501 72s20.5 46.5 20.5 66.5c0 29.333 -9.33301 51.5 -28 66.5s-54 22.5 -106 22.5c-39.333 0 -78 -5.33301 -116 -16s-74.167 -25 -108.5 -43s-66 -38.833 -95 -62.5s-54 -48.167 -75 -73.5s-37.5 -51 -49.5 -77s-18 -50 -18 -72v-11.5
c0 -5 0.333008 -9.5 1 -13.5l-20 -2c-0.666992 3.33301 -1 8 -1 14v12c0 23.333 6.16699 48.5 18.5 75.5s29.666 53.833 51.999 80.5s48.666 52.167 78.999 76.5s63.333 45.833 99 64.5s73.334 33.667 113.001 45s80.167 17 121.5 17c56.667 0 96.834 -9.5 120.501 -28.5
s35.5 -45.167 35.5 -78.5c0 -28.667 -7.66699 -56.167 -23 -82.5s-35.333 -51 -60 -74s-52.5 -43.833 -83.5 -62.5s-61.833 -34.667 -92.5 -48c12 -12 21.5 -26.167 28.5 -42.5s10.5 -33.166 10.5 -50.499c0 -35.333 -9.33301 -70 -28 -104s-42.5 -64.167 -71.5 -90.5
s-61.333 -47.666 -97 -63.999s-70.5 -24.5 -104.5 -24.5c-24 0 -42 5.33301 -54 16s-18 24.667 -18 42c0 18.667 6.33301 38 19 58s29.834 38.333 51.501 55s46.5 30.167 74.5 40.5s57 15.5 87 15.5c20 0 38.667 -1 56 -3zM768.999 316.003
c-42.667 -17.333 -94.001 -40 -154.001 -68s-123.333 -61.667 -190 -101c-44 -27.333 -81.667 -58.333 -113 -93s-54.666 -71 -69.999 -109h32c56 0 112.167 10.5 168.5 31.5s110.666 48 162.999 81s101.5 69.333 147.5 109s86 78.167 120 115.5l12 14
c-13.333 0 -24.333 2.16699 -33 6.5s-13 9.83301 -13 16.5c0 14 10.333 25.833 31 35.5s46.334 15.167 77.001 16.5l24.5 27.5c8.33301 9 16.833 18.833 25.5 29.5c1.33301 1.33301 2 2.33301 2 3s0.666992 1.66699 2 3zM918.998 311.003
c31.333 4 63.335 12.999 96.002 26.999c-8.66699 6.66699 -17.334 11.834 -26.001 15.501s-18.334 5.5 -29.001 5.5zM937 358.002c-20 -2 -37.666 -6.5 -52.999 -13.5s-23 -15.167 -23 -24.5c0 -3.33301 2.66699 -6 8 -8s11.666 -3 18.999 -3h9z" />
    <glyph glyph-name="C" unicode="C" horiz-adv-x="1075" 
d="M616 342c12.667 0 25.8359 0.501953 39.5029 1.50195s27.834 2.83301 42.501 5.5c31.333 32 65.666 63.333 102.999 94s75.166 59.5 113.499 86.5s76.5 51.667 114.5 74s73.333 41.666 106 57.999s61.667 29 87 38s45.333 13.5 60 13.5c9.33301 0 16.166 -2 20.499 -6
s6.5 -9 6.5 -15c0 -10.667 -7.83301 -25.167 -23.5 -43.5s-37 -38.5 -64 -60.5s-58.667 -45 -95 -69s-75.333 -47.167 -117 -69.5s-84.834 -42.666 -129.501 -60.999s-89 -32.833 -133 -43.5c-24 -24.667 -47 -50 -69 -76s-41.167 -51.667 -57.5 -77
s-29.5 -49.833 -39.5 -73.5s-15 -45.5 -15 -65.5c0 -18 3 -33.833 9 -47.5s16.667 -23.834 32 -30.501c9.33301 32 23.166 64.5 41.499 97.5s39.666 64.833 63.999 95.5s51 59.334 80 86.001s59.167 50 90.5 70s63.166 35.667 95.499 47s64.166 17 95.499 17
c25.333 0 44.833 -6.5 58.5 -19.5s20.5 -32.5 20.5 -58.5c0 -20.667 -6 -43.834 -18 -69.501s-28.833 -51.834 -50.5 -78.501s-47.5 -52.667 -77.5 -78s-63.167 -47.833 -99.5 -67.5s-75.333 -35.5 -117 -47.5s-84.5 -18 -128.5 -18c-16 0 -29 1.33301 -39 4
c-3.33301 -12 -5.83301 -24.333 -7.5 -37s-2.5 -24.667 -2.5 -36c0 -14.667 1.16699 -27.834 3.5 -39.501s5.83301 -23 10.5 -34s10.834 -21.833 18.501 -32.5s16.834 -22 27.501 -34l-9 -12c-12.667 13.333 -23.5 25.833 -32.5 37.5s-16.333 23.5 -22 35.5
s-9.83398 24.333 -12.501 37s-4 26.667 -4 42c0 13.333 0.666992 26.5 2 39.5s4 26.167 8 39.5c-18.667 8.66699 -33.167 21.834 -43.5 39.501s-15.5 39.834 -15.5 66.501c0 42 12.5 85.5 37.5 130.5s58.5 89.833 100.5 134.5c-11.333 -1.33301 -22.333 -2.33301 -33 -3
s-21.667 -1 -33 -1c-25.333 0 -49 0.333008 -71 1s-43 1.66699 -63 3c-17.333 1.33301 -33.666 2.33301 -48.999 3s-30.666 1 -45.999 1c-38.667 0 -75.167 -2 -109.5 -6s-66.666 -12.167 -96.999 -24.5s-58.666 -29.833 -84.999 -52.5s-50.5 -52.667 -72.5 -90l-14 12
c22 37.333 46.333 67.5 73 90.5s55.667 40.667 87 53s65.166 20.666 101.499 24.999s75.5 6.5 117.5 6.5c15.333 0 32.333 -0.333008 51 -1s37.667 -1.66699 57 -3c20.667 -1.33301 41.167 -2.33301 61.5 -3s39.833 -1 58.5 -1zM1075 374.002
c-45.333 0 -91.499 -12.1689 -138.499 -36.502s-91.167 -55.833 -132.5 -94.5s-77.833 -82.167 -109.5 -130.5s-54.5 -96.166 -68.5 -143.499c5.33301 -1.33301 10.833 -2.33301 16.5 -3s11.834 -1 18.501 -1c43.333 0 85.166 5.83301 125.499 17.5s78 26.834 113 45.501
s66.833 40.334 95.5 65.001s53.167 49.667 73.5 75s36.166 50.5 47.499 75.5s17 47.5 17 67.5c0 19.333 -4.5 34.666 -13.5 45.999s-23.833 17 -44.5 17zM1281 699c-18.667 0 -47.334 -8.99805 -86.001 -26.998s-82 -42.333 -130 -73s-98.333 -66.167 -151 -106.5
s-102 -82.5 -148 -126.5c41.333 12 83 27 125 45s82.333 37.667 121 59s74.834 43.166 108.501 65.499s63 43.666 88 63.999s44.667 38.5 59 54.5s21.5 28.333 21.5 37c0 5.33301 -2.66699 8 -8 8z" />
    <glyph glyph-name="D" unicode="D" horiz-adv-x="975" 
d="M8 47c0 6.66699 3.50391 12.9961 10.5039 18.9961s16.5 11.167 28.5 15.5s26.167 7.83301 42.5 10.5s33.5 4 51.5 4c42 0 79.5 -5.83301 112.5 -17.5s64.5 -24.5 94.5 -38.5c5.33301 -2.66699 10.5 -5 15.5 -7l15.5 -6c21.333 8 42.333 17.167 63 27.5
s41 22.166 61 35.499c-1.33301 4 -2.33301 8 -3 12s-1.66699 8.33301 -3 13c-6 24 -11.667 50 -17 78s-8 58 -8 90c0 34 6.5 67.833 19.5 101.5s30.667 65.834 53 96.501s48.5 59.334 78.5 86.001s62 49.834 96 69.501s69.333 35 106 46s73 16.5 109 16.5
c24.667 0 47.167 -3.83301 67.5 -11.5s37.666 -18.5 51.999 -32.5s25.333 -30.5 33 -49.5s11.5 -39.833 11.5 -62.5c0 -44 -6.5 -88.333 -19.5 -133s-31.333 -87.5 -55 -128.5s-52.334 -79.333 -86.001 -115s-71.334 -67 -113.001 -94s-86.667 -48.667 -135 -65
s-98.833 -25.5 -151.5 -27.5c-2 -34 -10.833 -66 -26.5 -96s-36.5 -56.333 -62.5 -79s-56.333 -40.5 -91 -53.5s-71.334 -19.5 -110.001 -19.5c-22 0 -45.333 3 -70 9l6 14c26 -7.33301 47.333 -11 64 -11c36 0 69.833 6.16699 101.5 18.5s59.5 29 83.5 50
s43.5 45.833 58.5 74.5s23.5 59.334 25.5 92.001c-25.333 0.666992 -48.833 3.66699 -70.5 9s-41.167 11.333 -58.5 18c-27.333 -7.33301 -55.5 -13.166 -84.5 -17.499s-60.5 -6.5 -94.5 -6.5c-28 0 -54.167 1.66699 -78.5 5s-45.5 8 -63.5 14s-32.333 12.833 -43 20.5
s-16 16.167 -16 25.5zM1078 542.996c0 42 -13.168 76.1689 -39.501 102.502s-61.5 39.5 -105.5 39.5c-32 0 -65.167 -5.83301 -99.5 -17.5s-67.833 -27.5 -100.5 -47.5s-63.667 -43.333 -93 -70s-54.833 -55.334 -76.5 -86.001s-39 -62.334 -52 -95.001s-19.5 -65 -19.5 -97
c0 -24.667 2.66699 -50.167 8 -76.5s10.666 -50.833 15.999 -73.5c1.33301 -3.33301 2 -6.33301 2 -9s0.666992 -6 2 -10c43.333 30.667 86.166 66.5 128.499 107.5l120.5 118.5l116.5 116c41 39.333 82.5 73.333 124.5 102l8 -13c-42 -28 -79.833 -60.167 -113.5 -96.5
s-67.167 -74.5 -100.5 -114.5l-61.5 -70.5c-21 -23.667 -42.667 -46.5 -65 -68.5s-45.666 -43 -69.999 -63s-50.5 -38.333 -78.5 -55c2.66699 -11.333 4.83398 -23.333 6.50098 -36s2.5 -24.667 2.5 -36c48.667 2.66699 95.834 12.667 141.501 30s88.5 39.833 128.5 67.5
s76.5 59.334 109.5 95.001s61.5 73.5 85.5 113.5s42.5 80.667 55.5 122s19.5 81.666 19.5 120.999zM140.003 82.998c-30 0 -55.833 -3.5 -77.5 -10.5s-32.5 -15.167 -32.5 -24.5c0 -7.33301 4.66699 -14.166 14 -20.499s22.166 -11.833 38.499 -16.5
s35.333 -8.33398 57 -11.001s44.834 -4 69.501 -4c26 0 51 2.16699 75 6.5s47.667 10.166 71 17.499l-14 6l-14 6c-28 12.667 -57 24.334 -87 35.001s-63.333 16 -100 16zM518.003 -4.00195c0 20 -2 40 -6 60c-14.667 -8 -30.5 -15.667 -47.5 -23s-34.167 -14 -51.5 -20
c19.333 -7.33301 36.5 -12.333 51.5 -15s32.833 -4 53.5 -4v2z" />
    <glyph glyph-name="E" unicode="E" horiz-adv-x="875" 
d="M775 480c9.33301 0 17.834 0.166992 25.501 0.5s16.167 0.833008 25.5 1.5c10.667 25.333 30 51.666 58 78.999s61 52.166 99 74.499s78.5 40.833 121.5 55.5s84.833 22 125.5 22c9.33301 0 17.5 -2.33301 24.5 -7s10.5 -10.334 10.5 -17.001
c0 -16.667 -11.5 -36.334 -34.5 -59.001s-53.833 -45 -92.5 -67s-83.334 -41.667 -134.001 -59s-103.667 -29 -159 -35c-2.66699 -6.66699 -4 -12.334 -4 -17.001v-6c42 -1.33301 72.5 -5.16602 91.5 -11.499s28.5 -14.166 28.5 -23.499
c0 -7.33301 -4.66699 -13.833 -14 -19.5s-20.666 -8.5 -33.999 -8.5c-20 0 -38.333 4.83301 -55 14.5s-28 21.5 -34 35.5c-67.333 0 -131.333 -11.667 -192 -35s-114.167 -53.166 -160.5 -89.499s-83.166 -76.833 -110.499 -121.5s-41 -88.667 -41 -132
c0 -15.333 5.16699 -30.666 15.5 -45.999s26.166 -26.666 47.499 -33.999c5.33301 28 16 57 32 87s35.833 59.167 59.5 87.5s50.167 55 79.5 80s60 47 92 66s64.667 34 98 45s66 16.5 98 16.5c23.333 0 41.166 -6.16699 53.499 -18.5s18.5 -29.5 18.5 -51.5
s-6.33301 -45.5 -19 -70.5s-30.167 -50 -52.5 -75s-48.5 -49 -78.5 -72s-62.5 -43.333 -97.5 -61s-71.667 -31.667 -110 -42s-76.833 -15.5 -115.5 -15.5c-8 0 -15.167 0.333008 -21.5 1s-12.833 1.66699 -19.5 3c-0.666992 -3.33301 -1 -6.5 -1 -9.5v-9.5
c0 -30.667 8.66699 -59.334 26 -86.001s46 -49.667 86 -69l-7 -13c-24 11.333 -44.167 23.833 -60.5 37.5s-29.166 28 -38.499 43s-16 30 -20 45s-6 29.5 -6 43.5v11c0 4 0.333008 7.66699 1 11c-30.667 9.33301 -53.167 25 -67.5 47s-21.5 49.667 -21.5 83
c0 43.333 13.5 86.333 40.5 129s64.333 80.834 112 114.501s103.667 61 168 82s134.166 31.5 209.499 31.5v5v8c0 2.66699 0.333008 5.33398 1 8.00098c-8 -0.666992 -16 -1 -24 -1h-24c-68.667 0 -126.834 1.83301 -174.501 5.5s-89.167 7.16699 -124.5 10.5l-58.5 5.5
c-17.667 1.66699 -34.167 2.5 -49.5 2.5c-70.667 0 -134.834 -8.83301 -192.501 -26.5s-108.5 -49.834 -152.5 -96.501l-13 9c40.667 46.667 90.334 79.667 149.001 99s128.334 29 209.001 29c16 0 33.167 -0.833008 51.5 -2.5l60.5 -5.5
c34.667 -3.33301 75.667 -6.83301 123 -10.5s105 -5.5 173 -5.5zM845.001 343c-29.333 0 -59.832 -5.49805 -91.499 -16.498s-62.834 -25.833 -93.501 -44.5s-60.167 -40.5 -88.5 -65.5s-54 -51.333 -77 -79s-42.667 -55.834 -59 -84.501s-27.5 -56.334 -33.5 -83.001
c5.33301 -1.33301 11.5 -2.33301 18.5 -3s13.833 -1 20.5 -1c36 0 72.167 5 108.5 15s71.333 23.5 105 40.5s65.167 36.5 94.5 58.5s54.833 44.833 76.5 68.5s38.667 47.5 51 71.5s18.5 46.667 18.5 68c0 17.333 -5 30.833 -15 40.5s-21.667 14.5 -35 14.5zM1229 702.002
c-20.667 0 -43.168 -3.33301 -67.501 -10s-49 -15.667 -74 -27s-49.833 -24.5 -74.5 -39.5s-47.667 -30.5 -69 -46.5s-40.166 -32.167 -56.499 -48.5s-28.5 -31.5 -36.5 -45.5c52.667 6 102.834 17.333 150.501 34s89.667 35 126 55s65.166 40.333 86.499 61s32 38 32 52
c0 4 -1.5 7.5 -4.5 10.5s-7.16699 4.5 -12.5 4.5zM938.001 411.002c0 5.33301 -6.66699 10.168 -20 14.501s-37 6.83301 -71 7.5c5.33301 -10.667 14 -19.334 26 -26.001s25.333 -10 40 -10c7.33301 0 13.333 1.33301 18 4s7 6 7 10z" />
    <glyph glyph-name="F" unicode="F" horiz-adv-x="932" 
d="M263 -75c-34.667 0 -67.501 2.66602 -98.501 7.99902s-58 12 -81 20s-41.167 16.333 -54.5 25s-20 16.334 -20 23.001c0 2.66699 1.66699 4.83398 5 6.50098s6.66602 2.5 9.99902 2.5c6 0 12.333 -1.66699 19 -5s12.667 -6.66602 18 -9.99902
c9.33301 -6 20.833 -12.833 34.5 -20.5s29.834 -13.834 48.501 -18.501c3.33301 -0.666992 6.33301 -1.33398 9 -2.00098l8 -2c13.333 -3.33301 27.333 -6.33301 42 -9s34.334 -4 59.001 -4c84.667 0 159 9.33301 223 28s121 43.5 171 74.5s94.5 66.667 133.5 107
s76.167 82.166 111.5 125.499l34 42l31 39c7.33301 8.66699 14 17 20 25l18 23c-13.333 3.33301 -26 5 -38 5c-27.333 0 -56.833 -6.16699 -88.5 -18.5s-61.167 -28.666 -88.5 -48.999s-50 -44.166 -68 -71.499s-27 -56 -27 -86c0 -5.33301 0.333008 -11.333 1 -18
s2.66699 -15.667 6 -27l-15 -8c-4.66699 13.333 -7.5 23.833 -8.5 31.5s-1.5 15.167 -1.5 22.5c0 30.667 9.66699 60.334 29 89.001s43.5 54 72.5 76s60.333 39.667 94 53s64.834 20 93.501 20c9.33301 0 18 -0.666992 26 -2s15.667 -3 23 -5c20 24 39.333 45.833 58 65.5
s38.834 38 60.501 55s45.5 33.167 71.5 48.5s56 30.666 90 45.999l10 -11c-34 -16 -63.333 -31.5 -88 -46.5s-46.5 -31 -65.5 -48s-36.833 -35.5 -53.5 -55.5s-34 -42.333 -52 -67c2 -1.33301 4.33301 -3.33301 7 -6l7 -7c18 17.333 37.833 33.333 59.5 48l63.5 42l8 -13
c-21.333 -13.333 -42.833 -27.666 -64.5 -42.999s-40.167 -30 -55.5 -44c8.66699 -10.667 13 -22.334 13 -35.001c0 -8 -1.5 -16.333 -4.5 -25s-7 -16.5 -12 -23.5s-10.333 -12.833 -16 -17.5s-11.5 -7 -17.5 -7c-6.66699 0 -12.334 2.66699 -17.001 8s-7 11.666 -7 18.999
c0 13.333 3.5 26.833 10.5 40.5s16.167 26.834 27.5 39.501l-5.5 5.5c-2.33301 2.33301 -4.5 4.16602 -6.5 5.49902l-15.5 -22l-15.5 -22l-28.5 -39.5l-31.5 -43.5c-34.667 -46.667 -73.334 -90.5 -116.001 -131.5s-91.5 -76.667 -146.5 -107s-117 -54.333 -186 -72
s-146.5 -26.5 -232.5 -26.5zM608.999 395.999c0 44.667 11.4971 86.6699 34.4971 126.003s54.333 73.666 94 102.999s86.167 52.5 139.5 69.5s110.333 25.5 171 25.5c52.667 0 98.834 -4.16699 138.501 -12.5s75.5 -16.833 107.5 -25.5c20 -5.33301 38.333 -10 55 -14
s31.667 -6 45 -6c24.667 0 50.834 2.66699 78.501 8s53.167 17 76.5 35l8 -9c-24 -19.333 -50 -34.333 -78 -45s-60.333 -16 -97 -16c-20.667 0 -41.334 2.83301 -62.001 8.5s-40.667 12.167 -60 19.5c-27.333 10 -57.666 19.667 -90.999 29s-73.666 14 -120.999 14
c-58 0 -112.333 -8.16699 -163 -24.5s-95 -38.5 -133 -66.5s-68 -60.833 -90 -98.5s-33 -77.834 -33 -120.501c0 -24.667 3 -46.167 9 -64.5s17 -36.833 33 -55.5l-10 -10c-18 20.667 -31.167 41.167 -39.5 61.5s-12.5 43.166 -12.5 68.499zM1063 343.002
c0 4 -0.668945 8 -2.00195 12s-2.66602 7.66699 -3.99902 11c-8.66699 -10.667 -15.5 -21.5 -20.5 -32.5s-7.5 -22.167 -7.5 -33.5c0 -4 0.666992 -7.5 2 -10.5s3 -4.5 5 -4.5c6.66699 0 12.834 6.5 18.501 19.5s8.5 25.833 8.5 38.5z" />
    <glyph glyph-name="G" unicode="G" horiz-adv-x="918" 
d="M330 474c30 0 60.832 -2.49609 92.499 -7.49609s63.5 -10.5 95.5 -16.5c24.667 -5.33301 49.667 -9.83301 75 -13.5s50 -6.5 74 -8.5c24 22.667 52.5 45 85.5 67s68 43.167 105 63.5s75 39.166 114 56.499s76.5 32.5 112.5 45.5s69.333 23.167 100 30.5
s56.334 11 77.001 11c16 0 24 -5.33301 24 -16c0 -13.333 -9.5 -29.5 -28.5 -48.5s-44.333 -38.667 -76 -59s-67.834 -40.333 -108.501 -60s-82.667 -37.334 -126 -53.001s-86.5 -28.334 -129.5 -38.001s-82.167 -14.5 -117.5 -14.5h-3c-21.333 -20 -38.666 -40 -51.999 -60
s-20 -38.333 -20 -55c0 -17.333 7.33301 -31.833 22 -43.5s34 -17.5 58 -17.5c25.333 0 51.166 3.66699 77.499 11s53.5 17.333 81.5 30s57.167 27.834 87.5 45.501l95.5 56.5l7 -12c-7.33301 -6 -14.333 -11.333 -21 -16s-13 -9.33398 -19 -14.001l-16 -12l-19 -14
c-44 -55.333 -88.333 -103 -133 -143s-91.5 -72.667 -140.5 -98s-101.333 -44 -157 -56s-116.5 -18 -182.5 -18c-44.667 0 -84.334 2.66699 -119.001 8s-64 12 -88 20s-42.333 16.333 -55 25s-19 16.667 -19 24c0 6.66699 5 10 15 10c10.667 0 20 -2.16699 28 -6.5
s16 -9.16602 24 -14.499c6.66699 -4.66699 14.167 -9.33398 22.5 -14.001l25.5 -14c17.333 -6 40.833 -11.5 70.5 -16.5s61.5 -7.5 95.5 -7.5c60 0 115 6.5 165 19.5s97 31.333 141 55s86 52.334 126 86.001s79.667 71.5 119 113.5c-32 -15.333 -65.5 -29.5 -100.5 -42.5
s-71.833 -19.5 -110.5 -19.5c-34 0 -60.167 8 -78.5 24s-27.5 37.333 -27.5 64c0 16 4.5 32.667 13.5 50s22.167 35 39.5 53c-24.667 2 -48.667 5 -72 9s-46.333 8.66699 -69 14l-91 15.5c-30.667 5 -60.334 7.5 -89.001 7.5c-25.333 0 -52.166 -2.66699 -80.499 -8
s-56.333 -13 -84 -23s-54.167 -22.333 -79.5 -37s-47.333 -31.334 -66 -50.001l-12 11c18.667 19.333 40.834 36.5 66.501 51.5s53 27.667 82 38s58.333 18.166 88 23.499s57.834 8 84.501 8zM1259 688.004c-16.667 0 -38.001 -3.50098 -64.001 -10.501s-55 -16.667 -87 -29
s-65.833 -26.833 -101.5 -43.5s-71 -34.667 -106 -54s-68.5 -39.5 -100.5 -60.5s-60.667 -42.167 -86 -63.5c34 0.666992 71.167 5.83398 111.5 15.501s80.833 22 121.5 37s80.167 32 118.5 51s72.333 38 102 57s53.334 37.167 71.001 54.5s26.5 32 26.5 44
c0 1.33301 -2 2 -6 2z" />
    <glyph glyph-name="H" unicode="H" horiz-adv-x="1000" 
d="M1001 70c-28 -14.667 -59.0088 -26.9971 -93.0088 -36.9971s-69 -15.667 -105 -17c-3.33301 -4 -6.66602 -8.5 -9.99902 -13.5s-6.66602 -9.5 -9.99902 -13.5l-15 8l8 19c-27.333 1.33301 -52.833 7.66602 -76.5 18.999s-43.5 25.666 -59.5 42.999
c-57.333 -38.667 -120 -68.667 -188 -90s-146 -32.333 -234 -33c-5.33301 -14 -9.33301 -28.5 -12 -43.5s-4 -30.167 -4 -45.5c0 -26.667 6.66699 -51.334 20 -74.001l-13 -6c-9.33301 12 -16.166 24.833 -20.499 38.5s-6.5 26.834 -6.5 39.501c0 31.333 5 61.666 15 90.999
c-23.333 0.666992 -46.333 3.66699 -69 9s-42.667 11.333 -60 18s-31.333 13.334 -42 20.001s-16 12 -16 16c0 6.66699 4.66699 10 14 10c5.33301 0 10.5 -1.33301 15.5 -4s10.833 -6 17.5 -10h-1l14.5 -8.5l15.5 -9.5c16 -8 32.833 -14.5 50.5 -19.5
s39.167 -7.83301 64.5 -8.5c12.667 30 29.834 58.833 51.501 86.5s44.5 53.167 68.5 76.5s47.667 43.666 71 60.999s43.333 30.666 60 39.999l60.5 29l65.5 29.5l65 28l60 24.5l56 22.5c18.667 7.66699 36 15.167 52 22.5c37.333 16 69.333 31.5 96 46.5
s51.667 30.667 75 47s46.333 34.5 69 54.5l78 70l25 21.5l27 23.5l12 -12l-70.5 -63.5c-22.333 -20.333 -44.166 -41.5 -65.499 -63.5s-42.666 -45.167 -63.999 -69.5s-43.333 -50.833 -66 -79.5c-21.333 -27.333 -43.666 -54.333 -66.999 -81l-68 -75
c8 -13.333 14.333 -28.166 19 -44.499s7 -32.5 7 -48.5v-16c0 -5.33301 -0.333008 -12 -1 -20c30.667 42 67.5 85.833 110.5 131.5s90 91.167 141 136.5s104.667 89.666 161 132.999s112.833 83.333 169.5 120s112.167 69.167 166.5 97.5s105.5 50.5 153.5 66.5l5 -12
c-70 -24 -143.667 -59.167 -221 -105.5s-155.5 -100.833 -234.5 -163.5s-157 -132.334 -234 -209.001s-149.833 -157.667 -218.5 -243c30.667 2.66699 61.834 9 93.501 19s60.834 21.667 87.501 35c8 0 12 -2 12 -6c0 -1.33301 -0.5 -2.66602 -1.5 -3.99902
s-3.16699 -2.66602 -6.5 -3.99902zM668.991 280.003c21.333 0 41.5 -4.66699 60.5 -14s35.167 -22 48.5 -38l66 70c22.667 24.667 44.667 50.334 66 77.001l35.5 43c12.333 14.667 26.833 31 43.5 49c-25.333 -17.333 -52 -33.5 -80 -48.5s-58 -29.833 -90 -44.5l-53.5 -23
l-57.5 -24l-123 -52c-43.333 -18.667 -84.666 -38.334 -123.999 -59.001c-16 -9.33301 -35.333 -22 -58 -38s-45.334 -34.667 -68.001 -56s-44 -45 -64 -71s-36 -53.667 -48 -83c78 0.666992 149.5 13 214.5 37s126.833 55.667 185.5 95c-15.333 25.333 -23 52 -23 80
c0 34 6 59.167 18 75.5s29 24.5 51 24.5zM618.991 181.003c0 -13.333 1.83301 -25.832 5.5 -37.499s8.16699 -22.834 13.5 -33.501l68.5 53c22.333 18 42.166 35.667 59.499 53c-11.333 14.667 -25.666 26.667 -42.999 36s-35.333 14 -54 14c-33.333 0 -50 -28.333 -50 -85z
M778.991 194.004c-20.667 -21.333 -40.999 -40.668 -60.999 -58.001s-41.333 -33.666 -64 -48.999c15.333 -16.667 34 -30.167 56 -40.5s46 -15.833 72 -16.5c1.33301 3.33301 3 6.83301 5 10.5s3.66699 7.16699 5 10.5v-1c3.33301 16 5.16602 28.333 5.49902 37
s0.5 18 0.5 28c0 30 -6.33301 56.333 -19 79z" />
    <glyph glyph-name="I" unicode="I" horiz-adv-x="950" 
d="M281 -38c89.333 0 175.999 11.5059 259.999 34.5059s163.333 63.833 238 122.5c-1.33301 7.33301 -2.16602 15.166 -2.49902 23.499s-0.5 16.5 -0.5 24.5c0 56.667 15.833 114 47.5 172s77.334 112.167 137.001 162.5s132.334 95 218.001 134s182.5 67.833 290.5 86.5
l1 -10c-72.667 -20.667 -121.334 -38.667 -146.001 -54c-35.333 -22 -68.333 -46.833 -99 -74.5s-59.834 -56.834 -87.501 -87.501s-53.667 -62.334 -78 -95.001l-70.5 -96l-25.5 -35l-25.5 -34c-20.667 -28 -42.5 -53.667 -65.5 -77s-46.167 -44 -69.5 -62
c6 -24 14.833 -48.333 26.5 -73s24.834 -46.667 39.501 -66l-13 -12c-15.333 21.333 -29 43.5 -41 66.5s-21.333 47.167 -28 72.5c-36.667 -26.667 -75 -48.834 -115 -66.501s-81.167 -31.667 -123.5 -42s-86 -17.666 -131 -21.999s-90.833 -6.5 -137.5 -6.5
c-44.667 0 -83.834 2.16699 -117.501 6.5s-61.834 9.66602 -84.501 15.999s-39.834 12.833 -51.501 19.5s-17.5 12.667 -17.5 18c0 9.33301 5.33301 14 16 14c5.33301 0 13.666 -3.33301 24.999 -10c8.66699 -5.33301 19.334 -11.5 32.001 -18.5s26.667 -12.5 42 -16.5
c6.66699 -2 15.834 -3.83301 27.501 -5.5s24.667 -3.33398 39 -5.00098s29.333 -2.83398 45 -3.50098s30.834 -1 45.501 -1zM795.999 167.006l0.00195312 -16.501c0 -5 0.333008 -10.5 1 -16.5c38 33.333 76 74 114 122l88 114.5
c29.333 37.667 59.666 73.834 90.999 108.501s64.166 67.667 98.499 99s71.5 60 111.5 86c-39.333 -11.333 -79 -26 -119 -44s-78.667 -38.833 -116 -62.5s-72.333 -50 -105 -79s-61.167 -60 -85.5 -93s-43.5 -67.833 -57.5 -104.5s-21 -74.667 -21 -114z" />
    <glyph glyph-name="J" unicode="J" horiz-adv-x="675" 
d="M677 70c-19.333 -9.33301 -42.333 -19.1699 -69 -29.5029l-82 -30.5l-3 -3l22.5 -41c7.66699 -13.333 16.167 -26.666 25.5 -39.999l-14 -9l-27 40.5c-8.66699 13 -15.667 25.833 -21 38.5c-40.667 -38 -81.834 -73.833 -123.501 -107.5s-82.667 -63.167 -123 -88.5
s-79.166 -45.5 -116.499 -60.5s-71.333 -22.5 -102 -22.5c-12 0 -20.833 2.66699 -26.5 8s-8.5 11 -8.5 17c0 14 7.5 29.333 22.5 46s35 33.667 60 51s53.667 34.333 86 51s66.166 32.334 101.499 47.001l101 38.5l99 35.5h-1l18 18
c-3.33301 10.667 -5.66602 21.5 -6.99902 32.5s-2 22.833 -2 35.5c0 64 19.333 126.167 58 186.5s92 117.5 160 171.5s148 104.167 240 150.5s191.333 87.166 298 122.499l6 -11c-54.667 -39.333 -107.667 -81.666 -159 -126.999s-100 -91 -146 -137l-129.5 -135
l-109.5 -120l-58 -64.5l-49 -51.5l-44 -44l64.5 24c20.333 7.33301 38.5 14.666 54.5 21.999c8 0 12 -2 12 -6c0 -1.33301 -0.5 -2.66602 -1.5 -3.99902s-3.16699 -2.66602 -6.5 -3.99902zM506 96.9961c0 -20 1.99902 -38.001 5.99902 -54.001l29.5 29l29.5 29
c18 18 38 39.167 60 63.5l71 79.5l92 102l105.5 111.5l113.5 111c38.667 36.333 77.334 69.833 116.001 100.5c-54 -20 -107 -42.5 -159 -67.5s-101.167 -52 -147.5 -81s-88.833 -60 -127.5 -93s-72 -67.333 -100 -103s-49.833 -72.667 -65.5 -111
s-23.5 -77.166 -23.5 -116.499zM43.999 -269.005c26 0 55.3311 7.5 87.998 22.5s66.834 34.5 102.501 58.5s71.667 50.833 108 80.5s70.833 59.167 103.5 88.5l-78.5 -29c-26.333 -10 -52.5 -20.667 -78.5 -32c-35.333 -14 -68.666 -29 -99.999 -45s-59 -31.833 -83 -47.5
s-43 -30.834 -57 -45.501s-21 -27.667 -21 -39c0 -3.33301 1.33301 -6.16602 4 -8.49902s6.66699 -3.5 12 -3.5z" />
    <glyph glyph-name="K" unicode="K" horiz-adv-x="1125" 
d="M1124 84c6 0 8.99512 -1.99902 8.99512 -5.99902c0 -3.33301 -2.33301 -6 -7 -8l-47.5 -22.5c-19 -9 -38.667 -17.5 -59 -25.5s-40.166 -14.833 -59.499 -20.5s-36 -8.5 -50 -8.5c-12 0 -19.833 6.33301 -23.5 19s-5.5 32.667 -5.5 60c0 15.333 1 31 3 47
s4.66699 31.333 8 46c2.66699 14 5.16699 27.833 7.5 41.5s3.5 27.5 3.5 41.5v12c0 3.33301 -0.666992 7 -2 11c-8 0 -15.667 0.666992 -23 2s-14 3 -20 5c-41.333 -48 -84.166 -91.833 -128.499 -131.5s-92 -73.5 -143 -101.5s-106.667 -49.833 -167 -65.5
s-127.5 -23.834 -201.5 -24.501c-5.33301 -14 -9.33301 -28.5 -12 -43.5s-4 -30.167 -4 -45.5c0 -26.667 6.66699 -51.334 20 -74.001l-13 -6c-9.33301 12 -16.166 24.833 -20.499 38.5s-6.5 26.834 -6.5 39.501c0 31.333 5 61.666 15 90.999
c-23.333 0.666992 -46.333 3.66699 -69 9s-42.667 11.333 -60 18s-31.333 13.334 -42 20.001s-16 12 -16 16c0 6.66699 4.66699 10 14 10c5.33301 0 10.5 -1.33301 15.5 -4s10.833 -6 17.5 -10h-1l14.5 -8.5l15.5 -9.5c16 -8 32.833 -14.5 50.5 -19.5
s39.167 -7.83301 64.5 -8.5c12.667 30 29.834 58.833 51.501 86.5s44.5 53.167 68.5 76.5s47.667 43.666 71 60.999s43.333 30.666 60 39.999l60.5 29l65.5 29.5l65 28l60 24.5l56.5 22.5c19 7.66699 36.167 15.167 51.5 22.5c37.333 16 69.333 31.5 96 46.5
s51.667 30.667 75 47s46.5 34.5 69.5 54.5l78.5 70c7.33301 6 15.5 13.167 24.5 21.5l26.5 23.5l12 -12l-71 -63.5c-22 -20.333 -43.5 -41.333 -64.5 -63l-63.5 -68.5c-21.333 -24 -43.666 -51 -66.999 -81c-3.33301 -3.33301 -6.33301 -7 -9 -11
c-3.33301 -5.33301 -7.33301 -10.666 -12 -15.999l-13 -15c5.33301 -4.66699 10.166 -10.334 14.499 -17.001l11.5 -18c17.333 0.666992 35.5 5 54.5 13s38.667 18.5 59 31.5s41.666 28.167 63.999 45.5l69.5 55l103 78c38.667 28.667 81.334 58 128.001 88
s96.834 59.5 150.501 88.5s110.5 55.833 170.5 80.5l9 -15c-64 -26 -122.667 -53.167 -176 -81.5s-102.333 -57 -147 -86s-85.334 -57.5 -122.001 -85.5l-101 -79c-48 -39.333 -92.667 -72.666 -134 -99.999s-81.666 -43.333 -120.999 -48
c3.33301 -10 6.33301 -21.5 9 -34.5s4 -26.5 4 -40.5c0 -12 -1.16699 -24.333 -3.5 -37s-4.83301 -25.334 -7.5 -38.001c-3.33301 -13.333 -6 -26.666 -8 -39.999s-3 -27.333 -3 -42c0 -9.33301 0.833008 -15.666 2.5 -18.999s3.5 -5 5.5 -5c10.667 0 24.667 2.33301 42 7
s35.333 10.5 54 17.5s37 14.5 55 22.5s33.333 15.333 46 22h2zM460.995 216.001c-15.333 -8.66699 -34 -20.668 -56 -36.001s-44.5 -33.5 -67.5 -54.5s-44.667 -44.833 -65 -71.5s-36.833 -55.334 -49.5 -86.001c64 0.666992 124.833 10.334 182.5 29.001
s112.167 42.834 163.5 72.501s99.5 63.667 144.5 102s86.5 78.166 124.5 119.499c-4.66699 4.66699 -7 9.33398 -7 14.001c0 8.66699 2.33301 16 7 22s13 9 25 9l12 -3c6.66699 7.33301 12.667 14.333 18 21l17 21l35.5 43c12.333 14.667 26.833 31 43.5 49
c-25.333 -17.333 -52 -33.5 -80 -48.5s-58 -29.833 -90 -44.5l-53.5 -23l-57.5 -24l-123.5 -52c-42.333 -18 -83.5 -37.667 -123.5 -59zM868.995 291c8 -3.33301 16.667 -5 26 -5c-4.66699 10 -8.66699 17.667 -12 23zM862.995 322c-6.66699 0 -10 -4.66699 -10 -14l6 6
c2 2 4 4.33301 6 7l-2 1v0z" />
    <glyph glyph-name="L" unicode="L" horiz-adv-x="875" 
d="M876 70c-24 -11.333 -46.832 -21.502 -68.499 -30.502s-43 -16.667 -64 -23s-42.167 -11.166 -63.5 -14.499s-44.333 -5 -69 -5c-25.333 0 -50.666 3 -75.999 9s-50.666 13.667 -75.999 23c-28 -9.33301 -57.833 -16.833 -89.5 -22.5s-65.5 -8.5 -101.5 -8.5
c-26 0 -50.333 1.5 -73 4.5s-42.5 7.16699 -59.5 12.5s-30.333 11.333 -40 18s-14.5 14 -14.5 22c0 7.33301 3.66699 14.333 11 21s17.333 12.334 30 17.001s27.667 8.33398 45 11.001s35.666 4 54.999 4c14.667 0 31.334 -1.66699 50.001 -5s38.167 -7.5 58.5 -12.5
s41.166 -10.833 62.499 -17.5l62 -20c26 12 51.333 27 76 45s49.167 38.333 73.5 61s49 48 74 76l79.5 90c-6.66699 -0.666992 -14.334 -1.16699 -23.001 -1.5s-16.667 -0.5 -24 -0.5c-30.667 0 -61.5 1.66699 -92.5 5s-61.167 7.33301 -90.5 12
c-28.667 4 -57.667 7.83301 -87 11.5s-57.333 5.5 -84 5.5c-32 0 -63.5 -2.83301 -94.5 -8.5s-61 -14 -90 -25s-56.5 -24.833 -82.5 -41.5s-49.333 -35.667 -70 -57l-11 11c41.333 44 92.5 77.5 153.5 100.5s125.833 34.5 194.5 34.5c30 0 59.5 -1.83301 88.5 -5.5
l88.5 -11.5c30 -4.66699 59.833 -8.66699 89.5 -12s59.5 -5 89.5 -5c9.33301 0 18.833 0.166992 28.5 0.5s19.5 1.16602 29.5 2.49902c38 46 81.167 90.833 129.5 134.5s96.5 82.667 144.5 117s93.667 61.833 137 82.5s79 31 107 31c19.333 0 29 -8.66699 29 -26
c0 -16 -6.33301 -34.5 -19 -55.5s-30.5 -42.833 -53.5 -65.5s-50 -45.5 -81 -68.5s-65 -44.667 -102 -65s-76 -38.5 -117 -54.5s-82.833 -28 -125.5 -36l-73.5 -89.5c-25 -29 -50.833 -56.167 -77.5 -81.5s-54.667 -48.5 -84 -69.5s-61 -38.5 -95 -52.5
c26.667 -8.66699 50.667 -15.834 72 -21.501s37.666 -8.5 48.999 -8.5c22.667 0 44.5 1.66699 65.5 5s42 8.16602 63 14.499s42.333 14 64 23s44.5 19.167 68.5 30.5c8 0 12 -2 12 -6c0 -1.33301 -0.5 -2.66602 -1.5 -3.99902s-3.16699 -2.66602 -6.5 -3.99902z
M1289 690.998c-24 0 -54.333 -8.33301 -91 -25s-75.667 -40 -117 -70s-83.5 -65.667 -126.5 -107s-83.167 -87 -120.5 -137c39.333 8.66699 78.333 21 117 37s75.167 33.833 109.5 53.5s66 40.5 95 62.5s54 43.667 75 65s37.5 41.5 49.5 60.5s18 35.5 18 49.5
c0 7.33301 -3 11 -9 11zM270.001 11.998c58 0 110.333 9.66797 157 29.001c-32 12 -65 22.667 -99 32s-69.667 14 -107 14c-16 0 -30.833 -0.833008 -44.5 -2.5s-25.834 -4 -36.501 -7s-19 -6.33301 -25 -10s-9 -7.83398 -9 -12.501c0 -6 4.33301 -11.667 13 -17
s20.5 -9.83301 35.5 -13.5s32.333 -6.66699 52 -9s40.834 -3.5 63.501 -3.5z" />
    <glyph glyph-name="M" unicode="M" horiz-adv-x="1150" 
d="M1148 84c6.66699 0 10.002 -2.00195 10.002 -6.00195c0 -1.33301 -0.5 -2.66602 -1.5 -3.99902s-3.16699 -2.66602 -6.5 -3.99902c-18 -9.33301 -37.167 -18.166 -57.5 -26.499s-39.833 -15.833 -58.5 -22.5s-35.834 -12 -51.501 -16s-28.167 -6 -37.5 -6
c-5.33301 0 -9.66602 1.16699 -12.999 3.5s-5 5.16602 -5 8.49902c0 14 7.33301 33.5 22 58.5s34.167 52.833 58.5 83.5s52.5 63.334 84.5 98.001l100 103.5l105 99.5l99 86c-46.667 -31.333 -95.167 -66.5 -145.5 -105.5s-100.833 -80.333 -151.5 -124l-150.5 -136
c-49.667 -47 -97.167 -94.167 -142.5 -141.5c-4 -4.66699 -10 -9.83398 -18 -15.501s-14.667 -8.5 -20 -8.5s-10 1.5 -14 4.5s-6 6.5 -6 10.5c0 6.66699 1.16699 13 3.5 19s5.5 12.667 9.5 20c22 42.667 51.333 87.667 88 135s77.334 95 122.001 143
s91.834 95.5 141.501 142.5l145.5 134.5c-57.333 -38 -113.5 -78.833 -168.5 -122.5l-165.5 -136.5l-168 -140c-56 -45.333 -113.5 -85.5 -172.5 -120.5s-120 -63.167 -183 -84.5s-129.167 -32 -198.5 -32c-26.667 0 -51.667 1.33301 -75 4s-43.666 6.16699 -60.999 10.5
s-31 9.33301 -41 15s-15 11.834 -15 18.501c0 7.33301 4 11 12 11c7.33301 0 17.666 -2.5 30.999 -7.5s28.666 -11.167 45.999 -18.5c15.333 -7.33301 31.666 -12.333 48.999 -15s34.333 -4 51 -4c65.333 0 129 11 191 33s122.5 50.667 181.5 86s116.667 75.666 173 120.999
l164.5 137c76.667 64.667 155.5 127.5 236.5 188.5s160.167 114.5 237.5 160.5l12 -12l-62 -56.5l-82 -77.5l-94 -92l-98 -99.5l-94.5 -100.5c-30.333 -33.333 -57.833 -65.333 -82.5 -96s-45.5 -58.834 -62.5 -84.501s-28.833 -47.834 -35.5 -66.501
c58.667 64 117.5 123.667 176.5 179s121.167 109.333 186.5 162s135.166 104.834 209.499 156.501s156.5 105.5 246.5 161.5l11 -12c-59.333 -42.667 -116.666 -87.667 -171.999 -135s-107.333 -94.166 -156 -140.499s-92.834 -91 -132.501 -134
s-73.834 -81.833 -102.501 -116.5s-50.834 -64 -66.501 -88s-23.5 -40.333 -23.5 -49c0 -2 1 -3 3 -3c4.66699 0 13.167 1.66699 25.5 5s26.833 8 43.5 14s34.834 13 54.501 21s39.167 16.667 58.5 26h2z" />
    <glyph glyph-name="N" unicode="N" horiz-adv-x="1050" 
d="M784 12c0 20.667 8.33008 45.8301 24.9971 75.4971s38.5 61.834 65.5 96.501s58 71.167 93 109.5l108.5 113.5l110 108l99 94c-56.667 -32 -111.667 -69.167 -165 -111.5l-160 -129.5l-168 -135c-56.667 -44 -116 -83.5 -178 -118.5s-127.5 -63.167 -196.5 -84.5
s-143.167 -32 -222.5 -32c-23.333 0 -46.166 2 -68.499 6s-42.166 9.16699 -59.499 15.5s-31.333 13.333 -42 21s-16 15.5 -16 23.5c0 6.66699 5.66699 10 17 10c6.66699 0 13.5 -1.83301 20.5 -5.5s13.5 -7.83398 19.5 -12.501l10 -7.5c4 -3 7.83301 -5.66699 11.5 -8l8 -5
c1.66699 -1 1.5 -0.833008 -0.5 0.5c12.667 -7.33301 27.334 -13.166 44.001 -17.499s35.667 -6.5 57 -6.5c72 0 140.5 10.333 205.5 31s127.833 48 188.5 82s119.834 72.833 177.501 116.5l172.5 134.5l103 82l110 83.5c38 27.667 77.5 54.834 118.5 81.501
s83.5 51.667 127.5 75l11 -13c-33.333 -27.333 -70 -59.5 -110 -96.5s-80.5 -76.5 -121.5 -118.5l-120.5 -128c-39.333 -43.333 -74.833 -84.666 -106.5 -123.999s-58.167 -75 -79.5 -107s-34.333 -57.667 -39 -77l161.5 159c47 44 92.333 82.333 136 115
s87.834 61.5 132.501 86.5s95.334 49.167 152.001 72.5l7 -14c-37.333 -15.333 -72 -31.166 -104 -47.499s-62.833 -33.833 -92.5 -52.5s-58.834 -39.167 -87.501 -61.5s-58.834 -47.5 -90.501 -75.5s-65.334 -59.5 -101.001 -94.5l-118.5 -117.5
c-4 -4 -7.83301 -7.16699 -11.5 -9.5s-8.16699 -3.5 -13.5 -3.5s-9.83301 2.16699 -13.5 6.5s-5.5 9.16602 -5.5 14.499z" />
    <glyph glyph-name="O" unicode="O" horiz-adv-x="650" 
d="M923 678c-11.333 -2 -22.6641 -4.16895 -33.9971 -6.50195s-23.666 -5.16602 -36.999 -8.49902c9.33301 -9.33301 16.666 -20.5 21.999 -33.5s8 -28.167 8 -45.5c0 -44 -10.333 -89.5 -31 -136.5s-47.834 -92.667 -81.501 -137s-72.5 -86.166 -116.5 -125.499
s-89.333 -73.833 -136 -103.5s-93.167 -53.167 -139.5 -70.5s-88.5 -26 -126.5 -26c-24.667 0 -46.667 1.83301 -66 5.5s-35 12.167 -47 25.5c-19.333 -8 -39.5 -14.5 -60.5 -19.5s-43.833 -9.16699 -68.5 -12.5l-1 11c22.667 3.33301 44 7.33301 64 12
s39.333 11.334 58 20.001c-10 16.667 -15 39 -15 67c0 36.667 9.66699 74.167 29 112.5s45.5 76.166 78.5 113.499s71.5 73.5 115.5 108.5s90.667 67.5 140 97.5c36 58 78.167 101.167 126.5 129.5s99.833 42.5 154.5 42.5c15.333 0 30.166 -2 44.499 -6
s27.166 -10 38.499 -18c13.333 3.33301 27 6.33301 41 9s27 5 39 7zM452.002 426.998c-18.667 -46.667 -37.5029 -90.5 -56.5029 -131.5s-40 -78.5 -63 -112.5s-48.5 -64.167 -76.5 -90.5s-60.333 -48.166 -97 -65.499c9.33301 -11.333 21.833 -18.833 37.5 -22.5
s33.834 -5.5 54.501 -5.5c36.667 0 77.334 8.66699 122.001 26s89.667 40.5 135 69.5s89.333 63 132 102s80.334 80.167 113.001 123.5s59 87.666 79 132.999s30 89 30 131c0 32 -9.66699 56.667 -29 74c-57.333 -15.333 -116 -37.166 -176 -65.499
s-117.667 -60.833 -173 -97.5c-4.66699 -8.66699 -9.66699 -18.834 -15 -30.501zM431.999 431.998c2 5.33301 4.49902 11.668 7.49902 19.001s6.5 15 10.5 23c-45.333 -30.667 -86.833 -62.5 -124.5 -95.5s-70.167 -66.167 -97.5 -99.5s-48.666 -65.833 -63.999 -97.5
s-23 -61.5 -23 -89.5c0 -22.667 3.66699 -40.667 11 -54c36 17.333 67.5 39.166 94.5 65.499s51.333 56.333 73 90s41.5 70.5 59.5 110.5s35.667 82.667 53 128zM758.998 684c-49.333 0 -94.501 -11.667 -135.501 -35s-77.5 -58 -109.5 -104c48 27.333 98 51.5 150 72.5
s104 38.167 156 51.5c-17.333 10 -37.666 15 -60.999 15z" />
    <glyph glyph-name="P" unicode="P" horiz-adv-x="886" 
d="M1012 324l-44.0059 -5.99805c-14 -2 -28.667 -4.33301 -44 -7c-44 -48 -89 -91.167 -135 -129.5s-94.833 -71.166 -146.5 -98.499s-107.167 -48.333 -166.5 -63s-124.666 -22 -195.999 -22c-9.33301 0 -17.666 0.166992 -24.999 0.5s-15 0.833008 -23 1.5
c-6 -15.333 -10.333 -31.166 -13 -47.499s-4 -32.833 -4 -49.5c0 -22.667 3.5 -42.167 10.5 -58.5s18.5 -33.833 34.5 -52.5l-13 -12c-17.333 21.333 -30.333 41.666 -39 60.999s-13 40 -13 62c0 34.667 6 67.667 18 99c-33.333 4 -62.666 10.167 -87.999 18.5
s-46.5 17.166 -63.5 26.499s-29.833 18.333 -38.5 27s-13 15 -13 19c0 9.33301 5.33301 14 16 14c6 0 11.833 -2.33301 17.5 -7l19.5 -16v1c8 -7.33301 16.667 -14.666 26 -21.999s19.666 -14 30.999 -20c14.667 -7.33301 30.334 -13.333 47.001 -18s34 -8 52 -10
c17.333 38 41.333 74 72 108s64.334 62 101.001 84c26 15.333 53.833 29.166 83.5 41.499s59.334 23.5 89.001 33.5s58.667 19 87 27s54.166 15 77.499 21c11.333 3.33301 21.666 6.16602 30.999 8.49902s18 4.83301 26 7.5c20 6 41.833 13.167 65.5 21.5
s47.667 17.5 72 27.5l72 31c23.667 10.667 45.834 21.334 66.501 32.001h-1l72.5 46c22.333 14.667 43.833 29.667 64.5 45l12 -13c-27.333 -17.333 -54 -35.333 -80 -54l-74 -55c-23.333 -18 -45 -35.667 -65 -53s-37.333 -33 -52 -47l35 6.5
c12 2.33301 23.667 4.16602 35 5.49902c48 7.33301 91.167 20.5 129.5 39.5s71 40.5 98 64.5s47.667 49.167 62 75.5s21.5 50.5 21.5 72.5c0 14 -3.5 27 -10.5 39s-17 22.667 -30 32s-28.667 16.666 -47 21.999s-38.833 8 -61.5 8c-36.667 0 -72.834 -5 -108.501 -15
s-69.667 -23.333 -102 -40s-62.166 -35.667 -89.499 -57s-51.166 -43 -71.499 -65s-36.166 -43.667 -47.499 -65s-17 -40.333 -17 -57v-11.5c0 -5 0.333008 -9.5 1 -13.5l-20 -2c-0.666992 3.33301 -1 8 -1 14v12c0 18.667 6 39.5 18 62.5s28.667 46.167 50 69.5
s46.5 45.833 75.5 67.5s60.333 41 94 58s69.167 30.667 106.5 41s75 15.5 113 15.5c26.667 0 50.5 -3.16699 71.5 -9.5s38.667 -14.666 53 -24.999s25.333 -22.666 33 -36.999s11.5 -29.5 11.5 -45.5c0 -31.333 -7 -61.5 -21 -90.5s-34.833 -55.333 -62.5 -79
s-62 -43.834 -103 -60.501s-88.5 -28.334 -142.5 -35.001zM790.994 333.002c-8.66699 -2.66699 -17.4961 -4.99902 -26.4961 -6.99902s-19.167 -4.66699 -30.5 -8l-75 -20c-26.667 -7.33301 -54.334 -15.833 -83.001 -25.5s-57.667 -20.667 -87 -33s-58 -26.833 -86 -43.5
c-38 -22 -71.333 -48.5 -100 -79.5s-50.667 -65.5 -66 -103.5c7.33301 -0.666992 14.666 -1 21.999 -1h22c55.333 0 110.166 7.5 164.499 22.5s107.333 35.833 159 62.5s101.834 57.667 150.501 93s95 73.666 139 114.999c-29.333 -6 -57.5 -13 -84.5 -21
s-51.833 -17.833 -74.5 -29.5s-42.5 -25 -59.5 -40s-29.833 -31.833 -38.5 -50.5l-17 2c9.33301 22 23.666 41.167 42.999 57.5s42.166 30.5 68.499 42.5s55 22.5 86 31.5s62.5 16.833 94.5 23.5c2 2 4.66699 4.5 8 7.5s6 5.5 8 7.5l51 46.5l57 49.5z" />
    <glyph glyph-name="Q" unicode="Q" horiz-adv-x="650" 
d="M-10 -101c-16.667 0 -30.833 2.82617 -42.5 8.49316s-17.5 12.5 -17.5 20.5c0 12 8.5 21.833 25.5 29.5s37.833 11.5 62.5 11.5c19.333 0 38 -0.666992 56 -2s36.667 -3.66602 56 -6.99902c14.667 10.667 29 22.334 43 35.001c-18.667 6 -33 16.333 -43 31
s-15 37.334 -15 68.001c0 38.667 10.167 78.167 30.5 118.5s48.166 79.833 83.499 118.5s76.833 76 124.5 112s98.834 69 153.501 99c34 54.667 72 94.334 114 119.001s88 37 138 37c15.333 0 30.166 -2 44.499 -6s27.166 -10 38.499 -18
c26.667 6.66699 53.334 12 80.001 16l1 -12c-12 -2 -23.667 -4.16699 -35 -6.5s-23.333 -5.16602 -36 -8.49902c8.66699 -9.33301 15.667 -20.5 21 -33.5s8 -28.167 8 -45.5c0 -44 -10.167 -89.5 -30.5 -136.5s-47.5 -92.667 -81.5 -137s-72.833 -86.166 -116.5 -125.499
s-88.834 -73.833 -135.501 -103.5s-93.167 -53.167 -139.5 -70.5s-88.5 -26 -126.5 -26c-11.333 0 -21.666 0.166992 -30.999 0.5s-18.333 1.5 -27 3.5l-20 -16c-6.66699 -5.33301 -12.667 -10.666 -18 -15.999c18 -3.33301 36.667 -7.16602 56 -11.499
s38 -8.16602 56 -11.499c39.333 -8.66699 78.166 -16.167 116.499 -22.5s76.5 -9.5 114.5 -9.5c22.667 0 44.834 0.833008 66.501 2.5s43.5 5 65.5 10s44.667 11.667 68 20s47.666 19.166 72.999 32.499l2 -15c-49.333 -28 -95.5 -48.167 -138.5 -60.5
s-88.5 -18.5 -136.5 -18.5c-40.667 0 -80.5 3.83301 -119.5 11.5s-77.833 16.167 -116.5 25.5l-67 16c-22 5.33301 -44.667 9.66602 -68 12.999c-21.333 -12.667 -43.666 -22.5 -66.999 -29.5s-46.666 -10.5 -69.999 -10.5zM472.001 426.993
c-17.333 -42 -35.835 -83.1689 -55.502 -123.502s-40.834 -78.666 -63.501 -114.999s-46.167 -70.166 -70.5 -101.499s-49.5 -59.333 -75.5 -84c6.66699 -1.33301 13.834 -2.33301 21.501 -3s15.167 -1 22.5 -1c36.667 0 77.334 8.66699 122.001 26s89.667 40.5 135 69.5
s89.333 63 132 102s80.334 80.167 113.001 123.5s59 87.666 79 132.999s30 89 30 131c0 32 -9.66699 56.667 -29 74c-52 -13.333 -105.5 -32.666 -160.5 -57.999s-108.167 -54 -159.5 -86l-20 -39c-7.33301 -14.667 -14.333 -30.667 -21 -48zM140.999 91.9912
c0 -24.667 4.16895 -43.666 12.502 -56.999s20.166 -22.666 35.499 -27.999c25.333 22.667 50 49.667 74 81s47.167 65.166 69.5 101.499s43.5 75 63.5 116s38.667 83.167 56 126.5l11.5 29c4.33301 10.667 9.16602 21 14.499 31c-46.667 -30.667 -90.5 -63.5 -131.5 -98.5
s-76.667 -70 -107 -105s-54.333 -69.333 -72 -103s-26.5 -64.834 -26.5 -93.501zM759.001 683.992c-42 0 -81.166 -10.498 -117.499 -31.498s-69.5 -51.5 -99.5 -91.5c44.667 23.333 90.334 43.666 137.001 60.999s93.667 32.666 141 45.999
c-8.66699 5.33301 -17.834 9.33301 -27.501 12s-20.834 4 -33.501 4zM-9.99805 -88.0059c18.667 0 37 2.66699 55 8s36.667 13 56 23c-13.333 1.33301 -27.333 2.5 -42 3.5s-28.667 1.5 -42 1.5c-17.333 0 -32 -1.66699 -44 -5s-18 -8.33301 -18 -15
c0 -4.66699 3.5 -8.5 10.5 -11.5s15.167 -4.5 24.5 -4.5z" />
    <glyph glyph-name="R" unicode="R" horiz-adv-x="1125" 
d="M1124 70l-47 -22.501c-18.667 -9 -38.167 -17.5 -58.5 -25.5s-40.166 -14.833 -59.499 -20.5s-36 -8.5 -50 -8.5c-12 0 -19.833 6.33301 -23.5 19s-5.5 32.667 -5.5 60c0 15.333 1 31 3 47s4.66699 31.333 8 46c2.66699 14 5.16699 27.833 7.5 41.5s3.5 27.5 3.5 41.5v12
c0 3.33301 -0.666992 7 -2 11h-4c-79.333 -96.667 -171 -168.334 -275 -215.001s-218 -70 -342 -70h-36c-11.333 0 -22.666 0.666992 -33.999 2c-7.33301 -14.667 -13 -29.5 -17 -44.5s-6 -31.833 -6 -50.5c0 -22.667 3.5 -42.167 10.5 -58.5s18.833 -33.833 35.5 -52.5
l-13 -12c-18 21.333 -31.333 41.666 -40 60.999s-13 40 -13 62c0 16.667 2.16699 33.167 6.5 49.5s10.166 32.166 17.499 47.499c-30 2.66699 -55.833 6.83398 -77.5 12.501s-39.834 11.834 -54.501 18.501s-25.5 13.167 -32.5 19.5s-10.5 11.5 -10.5 15.5
c0 9.33301 5.33301 14 16 14c3.33301 0 7.83301 -1.5 13.5 -4.5s11.167 -6.16699 16.5 -9.5l31.5 -18.5c11.667 -7 23.834 -12.833 36.501 -17.5c12 -5.33301 23.667 -9.16602 35 -11.499s22.666 -4.16602 33.999 -5.49902c20.667 35.333 50.334 67.666 89.001 96.999
s83 58.666 133 87.999c45.333 26.667 90.833 48.5 136.5 65.5s87.167 31.833 124.5 44.5l46 15.5c14.667 5 28.334 10.167 41.001 15.5l63 26.5c22.667 9.66699 45.167 20 67.5 31l65 33c21 11 39.5 21.5 55.5 31.5c14 8.66699 27 18 39 28l36 30c2.66699 2 5.5 4.5 8.5 7.5
l7.5 7.5l11 -12l-43.5 -38.5c-15 -13 -28.167 -25.167 -39.5 -36.5l-40 -46.5l-35 -39.5c-8.66699 -9.33301 -16.667 -18.333 -24 -27l-24 -28c0 -1.33301 0.333008 -2.33301 1 -3s1.33398 -1.66699 2.00098 -3l2 -4c42.667 0.666992 86.5 8.5 131.5 23.5
s86.167 35.833 123.5 62.5s68 58.167 92 94.5s36 76.5 36 120.5c0 16 -4 30.5 -12 43.5s-18.833 24.333 -32.5 34s-29.834 17 -48.501 22s-38.334 7.5 -59.001 7.5c-58.667 0 -114.167 -8.5 -166.5 -25.5s-98.333 -39 -138 -66s-71 -57.5 -94 -91.5
s-34.5 -67.667 -34.5 -101v-11.5c0 -5 0.333008 -9.5 1 -13.5l-20 -2c-0.666992 3.33301 -1 8 -1 14v12c0 35.333 12.167 70.833 36.5 106.5s57.166 67.667 98.499 96s89.5 51.5 144.5 69.5s113.167 27 174.5 27c24.667 0 48 -3.5 70 -10.5s41.167 -16.833 57.5 -29.5
s29.166 -27.667 38.499 -45s14 -36.333 14 -57c0 -50.667 -12.5 -94.334 -37.5 -131.001s-57 -67 -96 -91s-82.667 -42 -131 -54s-95.833 -18.333 -142.5 -19c4.66699 -10.667 7.83398 -22.167 9.50098 -34.5s2.5 -25.833 2.5 -40.5c0 -12 -1 -24.333 -3 -37
s-4.33301 -25.334 -7 -38.001c-3.33301 -13.333 -6 -26.666 -8 -39.999s-3 -27.333 -3 -42c0 -9.33301 0.833008 -15.666 2.5 -18.999s3.5 -5 5.5 -5c10.667 0 24.667 2.33301 42 7s35.333 10.5 54 17.5s37 14.5 55 22.5s33 15.333 45 22c8 0 12 -2 12 -6
c0 -1.33301 -0.5 -2.66602 -1.5 -3.99902s-3.16699 -2.66602 -6.5 -3.99902zM431 176.999c-47.333 -28.667 -90.0029 -56.832 -128.003 -84.499s-67 -58.167 -87 -91.5c9.33301 -1.33301 19.5 -1.83301 30.5 -1.5s22.167 0.5 33.5 0.5c54.667 0 109.834 7.5 165.501 22.5
s109.334 35.167 161.001 60.5s100.334 54.666 146.001 87.999s85.5 68 119.5 104c-13.333 2.66699 -23.666 6.5 -30.999 11.5s-11 11.167 -11 18.5c0 8.66699 2.33301 16 7 22s13 9 25 9c7.33301 0 14.5 -2.5 21.5 -7.5s13.833 -11.5 20.5 -19.5l45.5 52l51.5 61
c-14.667 -8 -31.5 -16.667 -50.5 -26l-59.5 -28.5l-61 -28c-20 -9 -38.333 -16.833 -55 -23.5c-12.667 -5.33301 -26.334 -10.333 -41.001 -15l-46 -15h1c-37.333 -12 -77.5 -25.833 -120.5 -41.5s-88.833 -38.167 -137.5 -67.5zM890.997 295.001
c-4.66699 7.33301 -9.5 13.667 -14.5 19s-9.83301 8 -14.5 8c-6.66699 0 -10 -5.33301 -10 -16c0 -4 3 -7.83301 9 -11.5s13.667 -6.16699 23 -7.5z" />
    <glyph glyph-name="S" unicode="S" horiz-adv-x="1000" 
d="M409 320c32.667 12 66.9961 21.665 102.996 28.998s73.333 13.166 112 17.499s78 7.5 118 9.5l121 6c40.667 1.33301 80.5 3 119.5 5s77.5 5.33301 115.5 10c30.667 41.333 64.334 81.166 101.001 119.499s73.834 72.166 111.501 101.499s74.834 52.666 111.501 69.999
s70.334 26 101.001 26c10 0 17.667 -2.33301 23 -7s8 -10.667 8 -18c0 -17.333 -9.83301 -40.5 -29.5 -69.5s-48.334 -58.833 -86.001 -89.5s-83.834 -59.5 -138.501 -86.5s-117.334 -46.5 -188.001 -58.5l-5 -7.5l-5 -7.5c-3.33301 -5.33301 -6.66602 -10.333 -9.99902 -15
s-6.66602 -9.66699 -9.99902 -15c-41.333 -64.667 -89.166 -123.667 -143.499 -177s-116.166 -99 -185.499 -137s-146.833 -67.5 -232.5 -88.5s-180.167 -31.5 -283.5 -31.5c-30 0 -58.667 2 -86 6s-51.5 9.16699 -72.5 15.5s-37.667 13.333 -50 21
s-18.5 14.834 -18.5 21.501c0 4 1.66699 7.33301 5 10s7.66602 4 12.999 4c4.66699 0 8.16699 -0.833008 10.5 -2.5s5.16602 -4.16699 8.49902 -7.5c6.66699 -5.33301 16.167 -12.166 28.5 -20.499s30.166 -15.5 53.499 -21.5c16.667 -4 36.167 -7.33301 58.5 -10
s49.166 -4 80.499 -4c58.667 0 116.5 6.66699 173.5 20s111.667 31.166 164 53.499s102 48 149 77s90.333 59.5 130 91.5s74.667 64.167 105 96.5s55.5 62.833 75.5 91.5l11 16.5c3.33301 5 7.33301 10.5 12 16.5c-33.333 -3.33301 -67.666 -5.66602 -102.999 -6.99902
l-107 -4c-40 -1.33301 -80.333 -3.16602 -121 -5.49902s-80.834 -5.66602 -120.501 -9.99902s-78.167 -10.333 -115.5 -18s-72.666 -17.5 -105.999 -29.5c-32.667 -13.333 -64.167 -29.5 -94.5 -48.5s-58.666 -41.333 -84.999 -67s-49.833 -55.167 -70.5 -88.5
s-37.667 -70.333 -51 -111l-16 9c14 42.667 31.167 80.834 51.5 114.501s43.833 63.334 70.5 89.001s55.834 48 87.501 67s65.5 35.167 101.5 48.5zM1520 700.998c-26.667 0 -56.668 -7.99902 -90.001 -23.999s-67.666 -37.5 -102.999 -64.5s-70.5 -58.833 -105.5 -95.5
s-67.5 -75.334 -97.5 -116.001c66 12 124.5 31 175.5 57s94 53.5 129 82.5s61.5 56.833 79.5 83.5s27 47 27 61c0 10.667 -5 16 -15 16z" />
    <glyph glyph-name="T" unicode="T" horiz-adv-x="1000" 
d="M293 -85c-34.667 0 -68.832 2.6709 -102.499 8.00391s-63.834 12 -90.501 20s-48.334 16.333 -65.001 25s-25 16.334 -25 23.001c0 2.66699 1.66699 4.83398 5 6.50098s6.66602 2.5 9.99902 2.5c7.33301 0 14 -1.5 20 -4.5s13 -7.16699 21 -12.5
c10 -6.66699 22.5 -13.834 37.5 -21.501s31.833 -13.834 50.5 -18.501c17.333 -4 37.333 -7.33301 60 -10s48.667 -4 78 -4c84.667 0 160.167 9.66699 226.5 29s126.333 45.166 180 77.499s102.167 69.166 145.5 110.499s84 84 122 128l85 94
c31.333 34 64.5 67.5 99.5 100.5s71.333 63.667 109 92s75.834 51.5 114.501 69.5l10 -11c-34 -15.333 -66 -34.333 -96 -57s-58.5 -47.334 -85.5 -74.001s-52.833 -54.834 -77.5 -84.501l-72 -88.5l-22 -27l-22 -26c-36.667 -44 -78.667 -86.833 -126 -128.5
s-100.5 -78.667 -159.5 -111s-124.167 -58.333 -195.5 -78s-149.666 -29.5 -234.999 -29.5zM666.002 301.004c0 54.667 13.6699 106.334 41.0029 155.001s64.666 91 111.999 127s102.666 64.5 165.999 85.5s131 31.5 203 31.5c34 0 66.833 -2.83301 98.5 -8.5
s62.167 -11.5 91.5 -17.5c23.333 -5.33301 45 -9.83301 65 -13.5s38.333 -5.5 55 -5.5c27.333 0 52.666 5.33301 75.999 16s46.333 24.667 69 42l10 -9c-23.333 -20 -48.333 -37.167 -75 -51.5s-56.667 -21.5 -90 -21.5c-23.333 0 -46.333 2.66699 -69 8
s-45.667 11.333 -69 18c-25.333 7.33301 -51 14 -77 20s-54 9 -84 9c-69.333 0 -134.5 -10 -195.5 -30s-114.333 -47.5 -160 -82.5s-81.667 -75.833 -108 -122.5s-39.5 -96.334 -39.5 -149.001c0 -14 2.16699 -30.833 6.5 -50.5s9.5 -37.167 15.5 -52.5l-17 -9
c-6.66699 17.333 -12.5 36.333 -17.5 57s-7.5 38.667 -7.5 54z" />
    <glyph glyph-name="U" unicode="U" horiz-adv-x="650" 
d="M651 70l-47.5 -23.9961c-17.667 -8.66699 -35 -16.667 -52 -24s-33.167 -13.5 -48.5 -18.5s-27.666 -7.5 -36.999 -7.5c-13.333 0 -22.5 3 -27.5 9s-7.5 14.667 -7.5 26c0 18.667 9 42.5 27 71.5s42 59.833 72 92.5c-3.33301 -2.66699 -5.83301 -4.83398 -7.5 -6.50098
s-4.16699 -3.83398 -7.5 -6.50098l-127.5 -105c-39.667 -32 -76.5 -57.667 -110.5 -77c-4 -32 -14 -61.833 -30 -89.5s-36 -52 -60 -73s-51.167 -38.167 -81.5 -51.5s-61.833 -21.666 -94.5 -24.999l-1 14c30 2.66699 58.833 9.83398 86.5 21.501s52.5 26.834 74.5 45.501
s40.5 40.5 55.5 65.5s24.5 52.167 28.5 81.5c-11.333 -5.33301 -21.666 -9.5 -30.999 -12.5s-18.333 -4.5 -27 -4.5c-12.667 0 -21.5 3.5 -26.5 10.5s-7.5 15.167 -7.5 24.5c0 15.333 6.66699 33 20 53s30 40.667 50 62l-14.5 35.5c-5 12.333 -9.5 26 -13.5 41
s-7.16699 32 -9.5 51s-3.5 40.5 -3.5 64.5c0 27.333 4.66699 55.666 14 84.999s22.166 58.166 38.499 86.499s35.666 55 57.999 80s46.333 47 72 66s52.334 34.167 80.001 45.5s55.5 17 83.5 17c37.333 0 65.666 -11.333 84.999 -34s29 -53 29 -91
c0 -30.667 -9.5 -62.334 -28.5 -95.001s-43.333 -65.5 -73 -98.5s-62.334 -65.667 -98.001 -98l-104.5 -91.5l-47 -39.5l-42 -36.5c5.33301 -12.667 9.83301 -26.167 13.5 -40.5s5.5 -30.5 5.5 -48.5v-4c28 17.333 59.167 40 93.5 68l111.5 93l99.5 83
c34.333 28.667 69.166 56 104.499 82s71 50.167 107 72.5s71.667 41.166 107 56.499l5 -12c-70 -40 -132.5 -81.833 -187.5 -125.5s-101.5 -85.334 -139.5 -125.001s-67 -75.334 -87 -107.001s-30 -55.834 -30 -72.501c0 -8 0.833008 -13.333 2.5 -16s4.16699 -4 7.5 -4
c6 0 15.833 2.5 29.5 7.5s28.834 11.167 45.501 18.5s33.834 15.333 51.501 24l48.5 24c8 0 12 -2 12 -6c0 -1.33301 -0.5 -2.66602 -1.5 -3.99902s-3.16699 -2.66602 -6.5 -3.99902zM211 316.004c0 -22.667 1 -42.6709 3 -60.0039s4.66699 -33.166 8 -47.499
s7.16602 -27.166 11.499 -38.499s8.83301 -22.333 13.5 -33l63 60.5l70 63.5l90 81c30 27.333 57 54.333 81 81s43.5 52.334 58.5 77.001s22.5 47.334 22.5 68.001c0 36 -8 63.667 -24 83s-40 29 -72 29c-38 0 -76.167 -11.833 -114.5 -35.5s-73.166 -53.5 -104.499 -89.5
s-56.833 -75.333 -76.5 -118s-29.5 -83 -29.5 -121zM200 -14c14.667 0 33.668 6.33105 57.001 18.998c0.666992 2 1 4.5 1 7.5v8.5c0 14 -1.5 27.333 -4.5 40s-6.5 24.334 -10.5 35.001c-18.667 -17.333 -33.334 -33.166 -44.001 -47.499s-16 -26.833 -16 -37.5
c0 -7.33301 1.16699 -13.333 3.5 -18s6.83301 -7 13.5 -7z" />
    <glyph glyph-name="V" unicode="V" horiz-adv-x="550" 
d="M877 458c-33.333 -15.333 -69.999 -35.498 -109.999 -60.498s-81 -52.5 -123 -82.5l-125.5 -93.5l-118.5 -92.5l-66.5 -51l-58.5 -45c0.666992 -2 1 -4.16699 1 -6.5v-5.5c0 -35.333 -7.33301 -68.166 -22 -98.499s-34.5 -56.833 -59.5 -79.5s-53.667 -41 -86 -55
s-65.833 -23 -100.5 -27l-1 14c32.667 2.66699 63.834 10.667 93.501 24s56 30.666 79 51.999s41.5 46.166 55.5 74.499s21 59.5 21 93.5c-20.667 -14 -38.334 -25.333 -53.001 -34s-25.334 -13 -32.001 -13c-5.33301 0 -10 1.5 -14 4.5s-6 6.5 -6 10.5
c0 16.667 7.5 36.167 22.5 58.5s34.833 46.166 59.5 71.499c-5.33301 11.333 -10.5 23.333 -15.5 36s-9.66699 27 -14 43s-7.83301 33.667 -10.5 53s-4 41 -4 65c0 28 4.5 56.833 13.5 86.5s21.667 58.5 38 86.5s35.333 54.5 57 79.5s45.334 47 71.001 66s52.667 34 81 45
s56.833 16.5 85.5 16.5c38 0 66.667 -11.333 86 -34s29 -53 29 -91c0 -31.333 -9.83301 -63.833 -29.5 -97.5s-44.834 -67.667 -75.501 -102s-64.5 -68.166 -101.5 -101.499l-107.5 -96l-40.5 -35l-36.5 -33c6 -16 10.667 -33 14 -51l44.5 34c16.333 12 32.5 24.667 48.5 38
l122 94l132 97.5c44.667 31.667 88.667 61.167 132 88.5s84 49.666 122 66.999l5 -11zM209.001 316.002c0 -23.333 1.16602 -44.168 3.49902 -62.501s5.16602 -34.666 8.49902 -48.999s7.33301 -27.5 12 -39.5s9.33398 -23.333 14.001 -34
c18.667 19.333 38.834 38.833 60.501 58.5l65.5 60.5l93 86c30.667 28.667 58.167 56.667 82.5 84s44 53.5 59 78.5s22.5 48.167 22.5 69.5c0 36 -8 63.667 -24 83s-40.333 29 -73 29c-24.667 0 -50 -5.5 -76 -16.5s-51 -25.667 -75 -44s-46.5 -39.833 -67.5 -64.5
s-39.333 -50.5 -55 -77.5s-28 -54.333 -37 -82s-13.5 -54.167 -13.5 -79.5zM174 -14c3.33301 0 12.167 4.66699 26.5 14s32.5 22.333 54.5 39c-1.33301 8.66699 -3 17.5 -5 26.5s-4.33301 17.167 -7 24.5c-22 -20.667 -39.5 -39.5 -52.5 -56.5s-19.5 -31.167 -19.5 -42.5
c0 -3.33301 1 -5 3 -5z" />
    <glyph glyph-name="W" unicode="W" horiz-adv-x="850" 
d="M253 -20c25.333 10.667 50.6602 22.8291 75.9932 36.4961s50.666 28.5 75.999 44.5c-1.33301 14.667 -3 30.167 -5 46.5l-6 47.5c-3.33301 20.667 -6 41 -8 61s-3 37.667 -3 53c0 64.667 9.16699 124.334 27.5 179.001s43.5 101.667 75.5 141s69.667 70.166 113 92.499
s90 33.5 140 33.5c19.333 0 37.333 -3.33301 54 -10s31.334 -15.834 44.001 -27.501s22.5 -25.334 29.5 -41.001s10.5 -32.167 10.5 -49.5c0 -46 -9.33301 -88.833 -28 -128.5s-43.667 -77.5 -75 -113.5s-67.166 -70.667 -107.499 -104l-124.5 -100l-29 -24
c40 26 80.5 54 121.5 84l121.5 93l118.5 96.5l112.5 94.5l167.5 139.5c50.333 41 92.833 70.833 127.5 89.5l15 -7l-158.5 -145c-54.333 -52 -108 -106 -161 -162s-104.333 -113.333 -154 -172s-95.834 -117.334 -138.501 -176.001l185 194.5
c53.333 54.333 103.666 98.833 150.999 133.5c38 27.333 73.333 50.333 106 69s64.334 33.667 95.001 45s60.834 19.5 90.501 24.5s61.167 7.5 94.5 7.5c9.33301 0 19.833 -0.333008 31.5 -1s25.834 -3.66699 42.501 -9l-5 -11c-15.333 3.33301 -28.5 5.5 -39.5 6.5
s-21.5 1.5 -31.5 1.5c-30.667 0 -60.5 -2.83301 -89.5 -8.5s-58.167 -14.334 -87.5 -26.001s-60 -26.667 -92 -45s-66.333 -40.166 -103 -65.499c-44.667 -33.333 -95.167 -78.166 -151.5 -134.499l-187.5 -193.5l-27 -29.5
c-9.33301 -10.333 -18.666 -20.166 -27.999 -29.499l-13 8c12.667 24.667 26 48.834 40 72.501s29.333 46.834 46 69.501c22.667 30.667 52.334 67 89.001 109l121 132l137.5 139l139.5 131c-23.333 -17.333 -49.166 -38.166 -77.499 -62.499l-90.5 -77.5l-139.5 -119
l-154.5 -124.5c-52.667 -41 -105.5 -79.833 -158.5 -116.5s-103.833 -68 -152.5 -94c0.666992 -2.66699 1 -5.66699 1 -9v-9c0 -29.333 -7.66699 -59.666 -23 -90.999s-36.833 -59.666 -64.5 -84.999s-61 -46.166 -100 -62.499s-82.167 -24.5 -129.5 -24.5
c-23.333 0 -42.333 1.5 -57 4.5s-29.334 9.16699 -44.001 18.5l6 11c16.667 -8 31.834 -13.667 45.501 -17s30.167 -5 49.5 -5c45.333 0 86.333 7.83301 123 23.5s67.834 35.667 93.501 60s45.5 51.166 59.5 80.499s21 57.333 21 84v9c-24.667 -14 -49.167 -27 -73.5 -39
s-49.166 -22.667 -74.499 -32zM402.994 270.995c0 -16.667 1 -34.333 3 -53s4.66699 -38.334 8 -59.001c2 -15.333 4 -29.666 6 -42.999s3.66699 -27.333 5 -42c54 36 106.5 76.833 157.5 122.5s96.333 92.5 136 140.5s71.667 95 96 141s36.5 87 36.5 123c0 14 -3 27 -9 39
s-14 22.5 -24 31.5s-21.833 16.167 -35.5 21.5s-28.5 8 -44.5 8c-44.667 0 -87.167 -11.333 -127.5 -34s-75.833 -53.5 -106.5 -92.5s-55.167 -84.667 -73.5 -137s-27.5 -107.833 -27.5 -166.5z" />
    <glyph glyph-name="X" unicode="X" horiz-adv-x="949" 
d="M745 8c12 0 25.002 1.8291 39.002 5.49609s28.167 8.33398 42.5 14.001s28.5 12 42.5 19l41 20.5c6 3.33301 12 6.33301 18 9s11.667 5.33398 17 8.00098c8 0 12 -2 12 -6c0 -1.33301 -0.5 -2.66602 -1.5 -3.99902s-3.16699 -2.66602 -6.5 -3.99902
c-7.33301 -3.33301 -14.5 -6.83301 -21.5 -10.5l-22.5 -11.5c-23.333 -12.667 -49.166 -24.834 -77.499 -36.501s-56.5 -17.5 -84.5 -17.5c-16 0 -30.5 3.16699 -43.5 9.5s-24.167 15 -33.5 26s-16.5 24 -21.5 39s-7.5 30.833 -7.5 47.5c0 29.333 3.66699 59.333 11 90
c-30 -36.667 -63.5 -70 -100.5 -100s-77.5 -55.333 -121.5 -76c-3.33301 -33.333 -12.666 -64.166 -27.999 -92.499s-34.833 -53.5 -58.5 -75.5s-50.334 -39.833 -80.001 -53.5s-60.167 -22.5 -91.5 -26.5l1 12c29.333 4 57.666 12.167 84.999 24.5s51.666 28.5 72.999 48.5
s38.833 43 52.5 69s21.834 54.333 24.501 85c-32.667 -13.333 -66.5 -23.666 -101.5 -30.999s-71.167 -11 -108.5 -11c-24 0 -47.167 2 -69.5 6s-42.166 9.16699 -59.499 15.5s-31.166 13.333 -41.499 21s-15.5 15.5 -15.5 23.5c0 6.66699 5.66699 10 17 10
c6.66699 0 13.5 -1.83301 20.5 -5.5s13.5 -7.83398 19.5 -12.501l10 -7.5c4 -3 7.83301 -5.66699 11.5 -8s6.16699 -4 7.5 -5s1 -0.833008 -1 0.5c13.333 -7.33301 27.666 -13.166 42.999 -17.499s33.666 -6.5 54.999 -6.5c37.333 0 74 4.33301 110 13s71 21.334 105 38.001
c-0.666992 12.667 -2.66699 27.5 -6 44.5s-7.33301 34.167 -12 51.5c-6.66699 24.667 -13.334 53.834 -20.001 87.501s-10 66.5 -10 98.5c0 50.667 7.66699 98.667 23 144s36.5 85 63.5 119s58.833 61 95.5 81s76.334 30 119.001 30c35.333 0 63.666 -13.5 84.999 -40.5
s32 -65.833 32 -116.5c0 -23.333 -1.66699 -46 -5 -68s-8.33301 -44 -15 -66c20 22.667 41.333 43.667 64 63s46 36.166 70 50.499s48.167 26.166 72.5 35.499s48.166 15.666 71.499 18.999l-1 -12c-39.333 -5.33301 -80.5 -20.833 -123.5 -46.5
s-82.5 -59.167 -118.5 -100.5s-65.833 -89 -89.5 -143s-35.5 -111.333 -35.5 -172c0 -26 7 -48.333 21 -67s33.333 -28 58 -28zM756.002 542.996c0 47.333 -8.83008 83.167 -26.4971 107.5s-41.5 36.5 -71.5 36.5c-38.667 0 -75 -10.167 -109 -30.5s-63.667 -47.333 -89 -81
s-45.333 -72.334 -60 -116.001s-22 -88.5 -22 -134.5c0 -32 3.16699 -63 9.5 -93s12.833 -58.333 19.5 -85v1c5.33301 -18.667 9.66602 -35.334 12.999 -50.001s5.33301 -29 6 -43c48 24.667 92.167 55.834 132.5 93.501s75.166 78.334 104.499 122.001
s52.166 89 68.499 136s24.5 92.5 24.5 136.5z" />
    <glyph glyph-name="Y" unicode="Y" horiz-adv-x="675" 
d="M676 70c-28 -14.667 -61.335 -28.8359 -100.002 -42.5029l-123 -41.5c-34 -36 -68.167 -70.167 -102.5 -102.5s-68.5 -60.833 -102.5 -85.5s-67.5 -44.167 -100.5 -58.5s-65.5 -21.5 -97.5 -21.5c-11.333 0 -21.166 2.66699 -29.499 8s-12.5 11.666 -12.5 18.999
c0 22 8.16699 42.667 24.5 62s38.333 37.5 66 54.5s59.5 33.167 95.5 48.5s74 30 114 44c5.33301 11.333 9.33301 23.666 12 36.999s4.66699 26.333 6 39c-18.667 -9.33301 -35.167 -16.666 -49.5 -21.999s-26.166 -8 -35.499 -8c-3.33301 0 -6.33301 1.5 -9 4.5
s-4 6.5 -4 10.5c0 15.333 6.83301 33 20.5 53s30.834 41.333 51.501 64c-9.33301 23.333 -18.666 49.666 -27.999 78.999s-14 61 -14 95c0 34.667 4.83301 68.667 14.5 102s23 64.5 40 93.5s36.833 55.667 59.5 80s47 45.333 73 63s53 31.334 81 41.001s55.667 14.5 83 14.5
c34 0 61.667 -9 83 -27s32 -49.333 32 -94c0 -26.667 -9.5 -55.667 -28.5 -87s-43.333 -63.666 -73 -96.999s-62.5 -66.5 -98.5 -99.5l-105 -93.5l-48.5 -43.5l-43.5 -39.5c4 -10.667 7.66699 -21 11 -31s5.66602 -19.667 6.99902 -29c28 16 60 35.667 96 59l113 76
l118.5 83.5l113 81.5l96 71l67.5 51l11 -13c-78.667 -58.667 -153.834 -123.167 -225.501 -193.5l-210.5 -213.5l-24 -26l-25 -26c38 12 74 24.333 108 37s63.667 25.334 89 38.001c8 0 12 -2 12 -6c0 -1.33301 -0.5 -2.66602 -1.5 -3.99902
s-3.16699 -2.66602 -6.5 -3.99902zM277.998 304.998c0 -29.333 3.83203 -57.1699 11.499 -83.5029s16.167 -50.5 25.5 -72.5c16.667 16.667 36 34.834 58 54.501l62 56.5l94.5 86.5c31.667 29.667 60.334 59.334 86.001 89.001s46.5 58.5 62.5 86.5s24 54.333 24 79
c0 27.333 -8.5 48.5 -25.5 63.5s-39.833 22.5 -68.5 22.5c-26 0 -52 -5 -78 -15s-51.333 -24 -76 -42s-47.667 -39.167 -69 -63.5s-39.833 -50.666 -55.5 -78.999s-28.167 -58 -37.5 -89s-14 -62.167 -14 -93.5zM92.9971 -205.006c44 5.33301 84.5 20.0029 121.5 44.0029
s65.5 56 85.5 96c-37.333 -13.333 -72.333 -26.833 -105 -40.5s-61.5 -28.167 -86.5 -43.5s-44.667 -31.833 -59 -49.5s-21.5 -36.5 -21.5 -56.5c0 -4 2.33301 -7.16699 7 -9.5s9.66699 -3.5 15 -3.5c20 0 42.667 6 68 18s52.5 28.5 81.5 49.5s59.833 45.833 92.5 74.5
l102 93l-36 -11.5c-11.333 -3.66699 -23.333 -7.83398 -36 -12.501l3 1c-10 -22.667 -23 -43.334 -39 -62.001s-34.5 -34.834 -55.5 -48.501s-43.5 -25 -67.5 -34s-49 -14.833 -75 -17.5l1 11zM345.997 39.9971c-1.33301 -27.333 -5.99902 -52.999 -13.999 -76.999
c14.667 5.33301 29.167 10.166 43.5 14.499l42.5 13.5l66 64l66 65l41 41.5l35 35.5l35 35l42 41l-80 -55.5l-93.5 -63.5l-96 -62.5c-31.667 -20.333 -60.834 -37.5 -87.501 -51.5zM250.998 17.998c6.66699 0 16.501 2.66797 29.501 8.00098s28.167 12.666 45.5 21.999
c-0.666992 8.66699 -2.33398 18 -5.00098 28s-6 19.667 -10 29c-18 -17.333 -32.333 -33.333 -43 -48s-16 -27 -16 -37c0 -1.33301 -0.333008 -2 -1 -2z" />
    <glyph glyph-name="Z" unicode="Z" horiz-adv-x="870" 
d="M870 70c-48 -23.333 -93.1631 -41.333 -135.496 -54s-87.833 -19 -136.5 -19c-40 0 -81.833 3.33301 -125.5 10l-133.5 21c-11.333 2 -21.5 4 -30.5 6s-18.833 3.66699 -29.5 5c-33.333 -12.667 -66.833 -22.667 -100.5 -30s-64.5 -11 -92.5 -11
c-21.333 0 -39.666 3.66699 -54.999 11s-23 16 -23 26c0 12 8.83301 22.333 26.5 31s39.167 13 64.5 13c26.667 0 54.834 -1.66699 84.501 -5s60.5 -7.66602 92.5 -12.999c60.667 28 126.5 68 197.5 120s142.5 117 214.5 195c50 53.333 103.167 101.666 159.5 144.999
s110.166 79.666 161.499 108.999c-11.333 -2.66699 -21.833 -4.16699 -31.5 -4.5s-18.834 -0.5 -27.501 -0.5c-22 0 -43.833 3.16699 -65.5 9.5s-44.5 13.833 -68.5 22.5c-32.667 11.333 -68 22.333 -106 33s-80.667 16 -128 16c-34 0 -65.833 -3.5 -95.5 -10.5
s-55.667 -16.667 -78 -29s-40 -26.833 -53 -43.5s-19.5 -34.334 -19.5 -53.001c0 -12 0.666992 -22.333 2 -31s3.66602 -16.5 6.99902 -23.5s7.66602 -14 12.999 -21s12 -15.167 20 -24.5l-10 -10c-9.33301 10 -17.166 19 -23.499 27s-11.666 16 -15.999 24
s-7.5 16.667 -9.5 26s-3 20.333 -3 33c0 20.667 7 40 21 58s33 33.833 57 47.5s52.167 24.5 84.5 32.5s66.833 12 103.5 12c56.667 0 105.5 -4.5 146.5 -13.5s78.5 -18.5 112.5 -28.5c25.333 -7.33301 49.666 -13.833 72.999 -19.5s47 -8.5 71 -8.5
c12 0 24.167 0.833008 36.5 2.5s25.166 4.5 38.499 8.5h-2c9.33301 6 20.666 11.833 33.999 17.5s24.333 8.5 33 8.5c8 0 12 -3.33301 12 -10s-7.66699 -13.334 -23 -20.001s-32.666 -11.667 -51.999 -15c-49.333 -28 -101.333 -63.667 -156 -107s-109 -95 -163 -155
c-68 -76 -138.333 -141.333 -211 -196s-144.334 -97.667 -215.001 -129c6.66699 -1.33301 13 -2.33301 19 -3s12.333 -1.66699 19 -3c44 -7.33301 86.667 -13.833 128 -19.5s79.666 -8.5 114.999 -8.5c46 0 90.167 4.83301 132.5 14.5s87.5 25.834 135.5 48.501
c8 0 12 -2 12 -6c0 -1.33301 -0.5 -2.66602 -1.5 -3.99902s-3.16699 -2.66602 -6.5 -3.99902zM88.0039 12c42 0 91.998 11 149.998 33c-25.333 4 -49.666 7.16699 -72.999 9.5s-45.666 3.5 -66.999 3.5c-18 0 -33.333 -2.16699 -46 -6.5s-19 -9.83301 -19 -16.5
s5.33301 -12.167 16 -16.5s23.667 -6.5 39 -6.5z" />
    <glyph glyph-name="bracketleft" unicode="[" horiz-adv-x="350" 
d="M-94 -283l869 1018h154l-4 -14h-121l-423 -495l-422 -495h113l-4 -14h-162z" />
    <glyph glyph-name="backslash" unicode="\" 
d="M581 722l-522 -1001l-17 7l522 1001z" />
    <glyph glyph-name="bracketright" unicode="]" horiz-adv-x="350" 
d="M789 735l-869 -1018h-154l4 14h121l423 495l422 495h-113l4 14h162z" />
    <glyph glyph-name="asciicircum" unicode="^" 
d="M216 136l5 82l-48.5 -37l-48.5 -37l-8 15l111 85l16 -2l-6 -107z" />
    <glyph glyph-name="underscore" unicode="_" horiz-adv-x="500" 
d="M77 -1h319l-4 -14h-319z" />
    <glyph glyph-name="grave" unicode="`" 
d="M267 260c-8 20 -13.499 36.1689 -16.499 48.502s-4.5 23.166 -4.5 32.499c0 5.33301 1.66699 10.166 5 14.499s7.66602 6.5 12.999 6.5s9.16602 -1.66699 11.499 -5s3.5 -7.66602 3.5 -12.999c0 -2 -0.166992 -4.33301 -0.5 -7s-0.5 -5.33398 -0.5 -8.00098
c-0.666992 -3.33301 -1 -6.33301 -1 -9v-9c0 -8.66699 0.333008 -15.5 1 -20.5s2.33398 -13.167 5.00098 -24.5z" />
    <glyph glyph-name="a" unicode="a" horiz-adv-x="350" 
d="M351 70c-12.667 -6 -27.665 -12.6699 -44.998 -20.0029l-52 -21c-17.333 -6.66699 -33.666 -12.167 -48.999 -16.5s-27.333 -6.5 -36 -6.5c-9.33301 0 -14 3.33301 -14 10c0 7.33301 4 16.333 12 27c-18 -10.667 -36.5 -19.5 -55.5 -26.5s-35.167 -10.5 -48.5 -10.5
s-22.5 1.5 -27.5 4.5s-7.5 9.16699 -7.5 18.5c0 11.333 5.5 23.833 16.5 37.5s24.5 26.5 40.5 38.5c-11.333 -5.33301 -23.5 -10.666 -36.5 -15.999l-45.5 -19c-8 0 -12 2 -12 6c0 2.66699 2.66699 5.33398 8 8.00098l39 17l36.5 15.5c12.333 5 25.5 9.83301 39.5 14.5
l48 16h-1c13.333 5.33301 25.666 9.66602 36.999 12.999s21 5 29 5c10 0 17.833 -1.66699 23.5 -5s8.5 -10.333 8.5 -21v-4.5c0 -1 -0.666992 -3.16699 -2 -6.5c7.33301 5.33301 15.166 10.5 23.499 15.5s16.166 8.83301 23.499 11.5l6 -8
c-9.33301 -6.66699 -21.333 -16 -36 -28l-44 -37.5c-14.667 -13 -27.167 -25 -37.5 -36s-15.5 -18.5 -15.5 -22.5c0 -2 -0.666992 -3 -2 -3c6 0 16 2.16699 30 6.5s29.5 9.83301 46.5 16.5l51 21c17 7.33301 31.833 14 44.5 20c8 0 12 -2 12 -6
c0 -1.33301 -0.5 -2.66602 -1.5 -3.99902s-3.16699 -2.66602 -6.5 -3.99902zM48.002 26.9971c0 -4.66699 4.66699 -7.00195 14 -7.00195c14.667 0 32.167 4.33301 52.5 13s39.833 19.334 58.5 32.001s34.5 25.834 47.5 39.501s19.5 25.5 19.5 35.5c0 7.33301 -4 11 -12 11
c-10 0 -25 -4.83301 -45 -14.5s-40 -21 -60 -34s-37.5 -26.667 -52.5 -41s-22.5 -25.833 -22.5 -34.5z" />
    <glyph glyph-name="b" unicode="b" horiz-adv-x="365" 
d="M365 84c6.66699 0 10.0059 -2.00684 10.0059 -6.00684c0 -1.33301 -0.5 -2.66602 -1.5 -3.99902s-3.16699 -2.66602 -6.5 -3.99902c-16 -7.33301 -30.833 -12.833 -44.5 -16.5s-29.834 -5.5 -48.501 -5.5c-16 0 -29 4.33301 -39 13c-12 -7.33301 -25 -14.166 -39 -20.499
s-27.833 -12 -41.5 -17s-26.5 -8.83301 -38.5 -11.5s-22 -4 -30 -4c-11.333 0 -19 1.5 -23 4.5s-6 7.83301 -6 14.5c0 8.66699 8.33301 23.334 25 44.001s40 47 70 79c-28.667 -17.333 -55.834 -32.833 -81.501 -46.5s-47.834 -24.834 -66.501 -33.501c-8 0 -12 2 -12 6
c0 2.66699 2.66699 5.33398 8 8.00098c20.667 9.33301 48.334 24 83.001 44l114 68l74 72.5l84 81.5l75.5 74l80.5 80l88.5 85c28.333 26.667 54.5 50.167 78.5 70.5s45.167 36.333 63.5 48s33.166 17.5 44.499 17.5c9.33301 0 15.666 -2.33301 18.999 -7s5 -10.667 5 -18
c0 -17.333 -8.5 -38 -25.5 -62s-39.833 -50.167 -68.5 -78.5s-62.334 -58.166 -101.001 -89.499l-122 -94.5l-131.5 -93l-130.5 -84.5l1 1c-47.333 -46.667 -84.5 -84.667 -111.5 -114s-40.5 -47.666 -40.5 -54.999c0 -2.66699 0.5 -4.66699 1.5 -6s4.16699 -2 9.5 -2
s13.333 1.5 24 4.5s22.5 7 35.5 12s26.667 10.833 41 17.5s27.833 13.667 40.5 21c18 23.333 36 43.833 54 61.5s31.667 26.5 41 26.5c7.33301 0 11 -3.33301 11 -10c0 -7.33301 -7.16699 -17.166 -21.5 -29.499l-50.5 -41.5c-2 -1.33301 -4 -2.83301 -6 -4.5
s-4.33301 -3.5 -7 -5.5c1.33301 -8 9 -12 23 -12c16 0 30.167 1.83301 42.5 5.5s27.166 9.16699 44.499 16.5h2zM530.006 493.993l-105 -104.501l-97 -94.5l-14 -14l-9.5 -9.5c-3 -3 -6 -6.16699 -9 -9.5s-7.16699 -7.33301 -12.5 -12l118.5 80l116.5 84.5
c37.333 28.333 72.5 56.333 105.5 84s61.667 54 86 79s43.666 47.833 57.999 68.5s21.5 38.334 21.5 53.001c0 8 -1.66699 12 -5 12c-9.33301 0 -22.166 -5.66699 -38.499 -17s-35.5 -26.833 -57.5 -46.5s-46.333 -42.667 -73 -69z" />
    <glyph glyph-name="c" unicode="c" horiz-adv-x="265" 
d="M264 84c6.66699 0 9.99902 -2 9.99902 -6c0 -1.33301 -0.5 -2.66602 -1.5 -3.99902s-3.16699 -2.66602 -6.5 -3.99902s-6.83301 -2.83301 -10.5 -4.5l-11.5 -5.5l-41 -19c-14.667 -6.66699 -29.167 -12.834 -43.5 -18.501s-27.666 -10.334 -39.999 -14.001
s-22.5 -5.5 -30.5 -5.5c-14 0 -24 2.16699 -30 6.5s-9 10.166 -9 17.499c0 14 4.66699 28.333 14 43s20.666 28.667 33.999 42l-41.5 -18l-53.5 -24c-8 0 -12 2 -12 6c0 2.66699 2.66699 5.33398 8 8.00098l37 16.5l34.5 14.5l36.5 14l42 16c11.333 6 23.333 11 36 15
s23.667 6 33 6c10 0 18 -2.5 24 -7.5s9 -11.167 9 -18.5c0 -9.33301 -2.66699 -17.166 -8 -23.499s-12 -9.5 -20 -9.5c-11.333 0 -17 4 -17 12c0 5.33301 2.33301 9.83301 7 13.5s10.667 5.5 18 5.5c1.33301 0 1.5 0.166992 0.5 0.5s-0.833008 0.166016 0.5 -0.500977v1
c0 10 -5 15 -15 15c-11.333 0 -25.333 -4.66699 -42 -14s-32.5 -20.5 -47.5 -33.5s-27.833 -26.5 -38.5 -40.5s-16 -26 -16 -36c0 -4.66699 1.33301 -8 4 -10s8.33398 -3 17.001 -3c6 0 15.667 2.33301 29 7s28.333 10.5 45 17.5l50.5 22c17 7.66699 31.5 14.5 43.5 20.5h2z
" />
    <glyph glyph-name="d" unicode="d" horiz-adv-x="350" 
d="M0 84c24.667 11.333 47.334 21.167 68.001 29.5s44.667 17.166 72 26.499c14.667 7.33301 29 13.333 43 18s25.333 7 34 7c10 0 18 -1.83301 24 -5.5s9 -12.167 9 -25.5l41 41l49.5 50.5l67 69.5l94.5 97h36l2 -6l-73.5 -69.5l-75 -72l-69 -66.5l-56.5 -54
c-8 -7.33301 -16.667 -16 -26 -26s-18 -19.833 -26 -29.5s-14.833 -18.667 -20.5 -27s-8.5 -14.5 -8.5 -18.5c0 -2 -0.666992 -3 -2 -3c6 0 15.667 2.16699 29 6.5s28 9.83301 44 16.5l48.5 21l43.5 20c7.33301 0 11 -2 11 -6c0 -3.33301 -2.33301 -6 -7 -8l-43.5 -20
c-16.333 -7.33301 -32.833 -14.333 -49.5 -21s-32.167 -12.167 -46.5 -16.5s-25.833 -6.5 -34.5 -6.5c-9.33301 0 -14 3.33301 -14 10c0 7.33301 2.66699 16.333 8 27c-17.333 -12 -36 -22 -56 -30s-37.667 -12 -53 -12c-13.333 0 -22.5 2.5 -27.5 7.5
s-7.5 11.833 -7.5 20.5c0 11.333 4.66699 23.5 14 36.5s21.333 25.5 36 37.5c-8.66699 -3.33301 -18.334 -7.33301 -29.001 -12l-46 -21c-7.33301 0 -11 2 -11 6c0 2.66699 2.66699 5.33398 8 8.00098zM48 27.001c0 -3.33301 0.999023 -6.16895 2.99902 -8.50195
s5.66699 -3.5 11 -3.5c14.667 0 31.834 4.33301 51.501 13s38 19.334 55 32.001s31.5 25.834 43.5 39.501s18 25.5 18 35.5c0 7.33301 -1 11.833 -3 13.5s-5 2.5 -9 2.5c-10 0 -24.5 -4.83301 -43.5 -14.5s-37.833 -21 -56.5 -34s-35 -26.667 -49 -41s-21 -25.833 -21 -34.5
z" />
    <glyph glyph-name="e" unicode="e" horiz-adv-x="265" 
d="M-1 84l38.498 16.499l35 14.5l36 14.5l42.5 16.5c10 5.33301 20 9.5 30 12.5s19 4.5 27 4.5c15.333 0 23 -5 23 -15s-4.33301 -19.333 -13 -28s-20.167 -16.834 -34.5 -24.501s-30.666 -14.667 -48.999 -21s-36.833 -12.166 -55.5 -17.499
c-8 -11.333 -12 -20.333 -12 -27c0 -4 1 -7 3 -9s7.33301 -3 16 -3c9.33301 0 21.5 2.33301 36.5 7s30.833 10.334 47.5 17.001s33.167 13.834 49.5 21.501l42.5 20.5c8 0 12 -2 12 -6c0 -1.33301 -0.5 -2.66602 -1.5 -3.99902s-3.16699 -2.66602 -6.5 -3.99902l-43 -20.5
c-16.667 -7.66699 -33.5 -14.834 -50.5 -21.501s-33.667 -12.334 -50 -17.001s-30.166 -7 -41.499 -7c-14 0 -23.667 2 -29 6s-8 9.66699 -8 17c0 13.333 4.83301 27.166 14.5 41.499s21.5 28.166 35.5 41.499l-40 -17.5l-51 -22.5c-8 0 -12 2 -12 6
c0 2.66699 2.66699 5.33398 8 8.00098zM206.998 150.999c-6 0 -13.665 -2.33105 -22.998 -6.99805s-19.333 -10.667 -30 -18s-21.334 -15.5 -32.001 -24.5s-20.334 -18.167 -29.001 -27.5c15.333 4.66699 30.333 9.66699 45 15s27.5 11.166 38.5 17.499
s19.833 12.666 26.5 18.999s10 12.833 10 19.5c0 4 -2 6 -6 6z" />
    <glyph glyph-name="f" unicode="f" 
d="M275 84c6.66699 0 10.001 -2.00488 10.001 -6.00488c0 -1.33301 -0.5 -2.66602 -1.5 -3.99902s-3.16699 -2.66602 -6.5 -3.99902c-46 -23.333 -84.833 -39.833 -116.5 -49.5s-53.834 -14.5 -66.501 -14.5c-6 0 -11.167 0.5 -15.5 1.5s-8.16602 3.16699 -11.499 6.5
c-15.333 -15.333 -29.833 -30.666 -43.5 -45.999s-28.167 -30.666 -43.5 -45.999l-98 -102l-96 -99h-37l-2 7l158.5 157l150.5 154c-1.33301 3.33301 -2 6.66602 -2 9.99902v12c0 9.33301 2.16699 17 6.5 23s9.83301 9 16.5 9c10 0 15 -4.66699 15 -14v-2l25 23.5
c8 7.66699 16 15.834 24 24.501c4.66699 4.66699 8.5 8.66699 11.5 12s5.83301 6.33301 8.5 9s5.33398 5.5 8.00098 8.5l11 12.5l-97.5 -57c-31 -17.333 -57.167 -30.666 -78.5 -39.999c-8 0 -12 2 -12 6c0 2.66699 2.66699 5.33398 8 8.00098
c23.333 11.333 55 28.166 95 50.499s83 48.5 129 78.5l14 14.5l14 14.5l143 145.5l117 116.5l88.5 85c28.333 26.667 54.333 50 78 70s44.667 36 63 48s32.833 18 43.5 18c9.33301 0 15.666 -2.33301 18.999 -7s5 -10.667 5 -18c0 -16 -8 -35.5 -24 -58.5
s-37.5 -48 -64.5 -75s-58.667 -55.5 -95 -85.5s-74.833 -60.167 -115.5 -90.5l-125 -90l-125 -83.5l-32 -34l-33 -35l-53 -56.5l-56 -58.5c-0.666992 -0.666992 -1 -2.66699 -1 -6s1.5 -5.33301 4.5 -6s6.16699 -1 9.5 -1c7.33301 0 26.666 4.66699 57.999 14s70 26 116 50
h2zM529.001 493.995l-87.501 -88.001l-135.5 -142l115 78.5c38.667 27 75.834 54.333 111.501 82l100 81c31 26.333 58 51.5 81 75.5s41.167 46 54.5 66s20 37.333 20 52c0 8 -1.66699 12 -5 12c-8 0 -18.667 -4.5 -32 -13.5s-28.833 -21.167 -46.5 -36.5
s-37.5 -33.666 -59.5 -54.999l-71 -68l-22.5 -22z" />
    <glyph glyph-name="g" unicode="g" horiz-adv-x="325" 
d="M-2 84l39 16.998l36.5 15.5c12.333 5 25.5 9.83301 39.5 14.5l48 16h-1c13.333 5.33301 25.666 9.66602 36.999 12.999s21 5 29 5c10 0 17.833 -1.66699 23.5 -5s8.5 -10.333 8.5 -21c0 -3.33301 0.333008 -4.16602 1 -2.49902s0.333984 0.833984 -0.999023 -2.49902
c6 5.33301 10.833 9.5 14.5 12.5l9.5 8c2.66699 2.33301 5.33398 4.5 8.00098 6.5l9 7l9 -10c-8 -6 -17.5 -14 -28.5 -24s-22.667 -21.167 -35 -33.5l-38 -39l-38.5 -40.5c-5.33301 -5.33301 -8.5 -8.83301 -9.5 -10.5s-3.5 -4.83398 -7.5 -9.50098l56 26.5l62 30.5l26 12.5
l27 13.5c7.33301 0 11 -2 11 -6c0 -3.33301 -2.33301 -6 -7 -8l-43 -20.5l-39 -18.5l-61.5 -29l-57.5 -27c-7.33301 -8.66699 -14 -16.167 -20 -22.5l-11 -11.5l-84.5 -83c-28.333 -26.667 -54.833 -50.167 -79.5 -70.5s-46.667 -36.5 -66 -48.5s-34.333 -18 -45 -18
c-9.33301 0 -15.5 2.16699 -18.5 6.5s-4.5 10.166 -4.5 17.499c0 16.667 7.66699 34.834 23 54.501s36.5 39.667 63.5 60s59.167 40.833 96.5 61.5s78.333 40.334 123 59.001l24 25c9.33301 10 17.666 19.667 24.999 29c-15.333 -8.66699 -31 -15.5 -47 -20.5
s-30 -7.5 -42 -7.5c-13.333 0 -22.5 1.5 -27.5 4.5s-7.5 9.16699 -7.5 18.5c0 12 5.33301 24.667 16 38s23.667 26 39 38l-35.5 -16l-44.5 -19c-8 0 -12 2 -12 6c0 2.66699 2.66699 5.33398 8 8.00098zM77 -47.002c-37.333 -16.667 -71.834 -34.334 -103.501 -53.001
s-59.167 -37 -82.5 -55s-41.666 -35.5 -54.999 -52.5s-20 -32.5 -20 -46.5c0 -7.33301 1.66699 -11 5 -11c9.33301 0 22.5 5.83301 39.5 17.5s36.833 27.334 59.5 47.001s47.167 42.5 73.5 68.5l81.5 83zM46.999 26.998c0 -4.66699 4.66602 -7.00195 13.999 -7.00195
c14.667 0 32.334 4.33301 53.001 13s40.167 19.334 58.5 32.001s34 25.834 47 39.501s19.5 25.5 19.5 35.5c0 7.33301 -4 11 -12 11c-10 0 -25 -4.83301 -45 -14.5s-40 -21 -60 -34s-37.5 -26.667 -52.5 -41s-22.5 -25.833 -22.5 -34.5z" />
    <glyph glyph-name="h" unicode="h" horiz-adv-x="475" 
d="M0 84c14 6.66699 30.835 15.3301 50.502 25.9971l65.5 37l76.5 46l83.5 53l14.5 16.5l14.5 16.5l93.5 106.5c33 37 70.5 76.5 112.5 118.5l89.5 86c28.333 26.667 54.333 50 78 70s44.667 35.833 63 47.5s33.166 17.5 44.499 17.5c9.33301 0 15.666 -2.33301 18.999 -7
s5 -10.667 5 -18c0 -14.667 -7.16699 -32.5 -21.5 -53.5s-34 -44.167 -59 -69.5s-54.167 -52.166 -87.5 -80.499s-68.666 -56.833 -105.999 -85.5l-115.5 -85.5l-115.5 -80.5l-86 -99.5c-26.667 -30.333 -53.334 -57.166 -80.001 -80.499l86.5 36.5
c29 11.667 57.167 21.834 84.5 30.501s53.833 15.667 79.5 21s49.5 8 71.5 8v-9c-31.333 -16.667 -56.5 -32 -75.5 -46s-34 -26.5 -45 -37.5s-18.333 -20.333 -22 -28s-5.5 -13.5 -5.5 -17.5c0 -2 1.66699 -3 5 -3c6 0 15.167 2.16699 27.5 6.5s26 9.83301 41 16.5l45.5 21
l41 20c8 0 12 -2 12 -6c0 -2.66699 -2.66699 -5.33398 -8 -8.00098c-3.33301 -1.33301 -7.5 -3.33301 -12.5 -6s-9.16699 -4.66699 -12.5 -6l-37 -17.5c-13.333 -6.33301 -26.333 -12 -39 -17s-24.5 -9.16699 -35.5 -12.5s-20.167 -5 -27.5 -5c-6 0 -11.167 1 -15.5 3
s-6.5 5.66699 -6.5 11c0 12.667 8.83301 29.834 26.5 51.501s50.5 46.5 98.5 74.5c-28 -2.66699 -72.667 -15.834 -134 -39.501s-143 -59.5 -245 -107.5l-7 12c42 30.667 79.5 62 112.5 94s64.167 64 93.5 96l-131 -79c-39.333 -22.667 -73 -40 -101 -52c-8 0 -12 2 -12 6
c0 2.66699 2.66699 5.33398 8 8.00098zM530.002 493.996l-58.001 -59l-48.5 -52l-43 -48.5l-41.5 -47.5l109.5 76l104.5 78c33.333 26 64.5 51.5 93.5 76.5s54 48.667 75 71s37.5 42.833 49.5 61.5s18 35 18 49c0 8 -1.66699 12 -5 12
c-9.33301 0 -22.166 -5.66699 -38.499 -17s-35.5 -26.833 -57.5 -46.5s-46.333 -42.667 -73 -69z" />
    <glyph glyph-name="i" unicode="i" horiz-adv-x="250" 
d="M210 156c-27.333 -20 -49.999 -37.5039 -67.999 -52.5039s-32.333 -27.833 -43 -38.5s-18.334 -19.5 -23.001 -26.5s-7 -12.167 -7 -15.5c0 -2 1.66699 -3 5 -3c6 0 16.167 2.16699 30.5 6.5s30 9.83301 47 16.5l51.5 21c17.333 7.33301 32.333 14 45 20c8 0 12 -2 12 -6
c0 -1.33301 -0.5 -2.66602 -1.5 -3.99902s-3.16699 -2.66602 -6.5 -3.99902c-12.667 -6 -27.667 -12.667 -45 -20s-34.833 -14.166 -52.5 -20.499s-34.167 -11.833 -49.5 -16.5s-27.333 -7 -36 -7c-6.66699 0 -12.167 1 -16.5 3s-6.5 5.66699 -6.5 11
c0 23.333 28.333 58.333 85 105l-55 -23.5l-73 -31.5c-8 0 -12 2 -12 6c0 2.66699 2.66699 5.33398 8 8.00098l47 20l43.5 18l50 19.5l65.5 24.5l6 -7zM339.001 335.996c0 5.33301 2.66699 9.83301 8 13.5s10.666 5.5 15.999 5.5s10 -1.66699 14 -5s6 -7.33301 6 -12
c0 -5.33301 -2.66699 -9.83301 -8 -13.5s-10.666 -5.5 -15.999 -5.5s-10 1.66699 -14 5s-6 7.33301 -6 12z" />
    <glyph glyph-name="j" unicode="j" horiz-adv-x="215" 
d="M211 156c-12 -6.66699 -24.0049 -14.1709 -36.0049 -22.5039s-24.5 -18.166 -37.5 -29.499l-43.5 -39.5l-54 -50.5l15.5 6l15.5 6l64.5 24.5c23 9 48.5 20.167 76.5 33.5c8 0 12 -2 12 -6c0 -1.33301 -0.5 -2.66602 -1.5 -3.99902s-3.16699 -2.66602 -6.5 -3.99902
l-84 -36.5l-71 -28.5c-7.33301 -3.33301 -14.5 -6 -21.5 -8s-14.167 -4.66699 -21.5 -8l-86.5 -87c-32.333 -31.333 -64.166 -60.333 -95.499 -87s-60.166 -49 -86.499 -67s-46.166 -27 -59.499 -27c-9.33301 0 -15.666 2.16699 -18.999 6.5s-5 10.166 -5 17.499
c0 16.667 9.16699 35.834 27.5 57.501s43 44 74 67s66.5 45.667 106.5 68s82 42.833 126 61.5l23 20.5c8.66699 7.66699 17 15.5 25 23.5l49.5 45.5c15 13.667 28.5 26.5 40.5 38.5c-9.33301 -3.33301 -18.166 -6.83301 -26.499 -10.5l-28 -12l-35 -14.5l-46.5 -20
c-8 0 -12 2 -12 6c0 2.66699 2.66699 5.33398 8 8.00098c38.667 17.333 75.5 33 110.5 47l97.5 38l5 -13v0zM-308.005 -265.004c8.66699 0 23.5 7 44.5 21s45 32.333 72 55s55.333 48.167 85 76.5s57.5 56.5 83.5 84.5c-40 -17.333 -77.667 -36.333 -113 -57
s-66 -41.167 -92 -61.5s-46.667 -39.833 -62 -58.5s-23 -35 -23 -49c0 -7.33301 1.66699 -11 5 -11zM337.995 335.996c0 5.33301 2.66699 9.83301 8 13.5s10.666 5.5 15.999 5.5s10 -1.66699 14 -5s6 -7.33301 6 -12c0 -5.33301 -2.66699 -9.83301 -8 -13.5
s-10.666 -5.5 -15.999 -5.5s-10 1.66699 -14 5s-6 7.33301 -6 12z" />
    <glyph glyph-name="k" unicode="k" horiz-adv-x="475" 
d="M0 84c14 6.66699 30.833 15.3301 50.5 25.9971l65.5 37l76.5 46l83.5 53l14.5 16.5l14.5 16.5l93.5 106.5c33 37 70.5 76.5 112.5 118.5l89.5 86c28.333 26.667 54.333 50 78 70s44.667 35.833 63 47.5s33.166 17.5 44.499 17.5c9.33301 0 15.666 -2.33301 18.999 -7
s5 -10.667 5 -18c0 -14.667 -7.16699 -32.5 -21.5 -53.5s-34 -44.167 -59 -69.5s-54.167 -52.166 -87.5 -80.499s-68.666 -56.833 -105.999 -85.5l-115.5 -85.5l-115.5 -80.5l-83.5 -96.5c-25.667 -29 -51.167 -54.833 -76.5 -77.5l92 49.5
c31.333 16.333 61.833 31.5 91.5 45.5s58.167 25.833 85.5 35.5s52 16.167 74 19.5l1 -12c-28.667 -5.33301 -61.667 -15.833 -99 -31.5s-79.666 -35.834 -126.999 -60.501c6 -5.33301 11.167 -11.333 15.5 -18s6.5 -14.667 6.5 -24c0 -6 -1.83301 -13.333 -5.5 -22
l-10.5 -24c-3.33301 -8 -5 -13.333 -5 -16c0 -2 1.66699 -3 5 -3c6 0 17.667 2.66699 35 8s36.5 12 57.5 20l62.5 24.5c20.667 8.33301 37 15.5 49 21.5c8 0 12 -2 12 -6c0 -1.33301 -0.5 -2.66602 -1.5 -3.99902s-3.16699 -2.66602 -6.5 -3.99902
c-12 -6 -28.333 -13.167 -49 -21.5s-41.667 -16.333 -63 -24s-41.333 -14.334 -60 -20.001s-32.334 -8.5 -41.001 -8.5c-6.66699 0 -12.167 1 -16.5 3s-6.5 5.66699 -6.5 11c0 3.33301 0.833008 7.33301 2.5 12l5.5 15c2.66699 6.66699 5.16699 13.834 7.5 21.501
s3.5 14.167 3.5 19.5c0 12 -4.33301 22.333 -13 31c-23.333 -12 -47.333 -25 -72 -39l-79 -45h1c-8.66699 -5.33301 -18.167 -10.5 -28.5 -15.5s-20.166 -10.167 -29.499 -15.5l-9 17c42 30.667 79.5 62 112.5 94s64.167 64 93.5 96l-131 -79
c-39.333 -22.667 -73 -40 -101 -52c-8 0 -12 2 -12 6c0 2.66699 2.66699 5.33398 8 8.00098zM530 493.996l-58.001 -59l-48.5 -52l-43 -48.5l-41.5 -47.5l109.5 76l104.5 78c33.333 26 64.5 51.5 93.5 76.5s54 48.667 75 71s37.5 42.833 49.5 61.5s18 35 18 49
c0 8 -1.66699 12 -5 12c-9.33301 0 -22.166 -5.66699 -38.499 -17s-35.5 -26.833 -57.5 -46.5s-46.333 -42.667 -73 -69z" />
    <glyph glyph-name="l" unicode="l" horiz-adv-x="250" 
d="M0 84c10.667 4.66699 23.6709 10.9971 39.0039 18.9971s32 17.167 50 27.5l57 34l62 38.5l48.5 49l55 55.5l57 56.5l53.5 53l45.5 43.5l43.5 43.5l89.5 86c28.333 26.667 54.333 50 78 70s44.667 35.833 63 47.5s33.166 17.5 44.499 17.5
c9.33301 0 15.666 -2.33301 18.999 -7s5 -10.667 5 -18c0 -16.667 -8.33301 -36.834 -25 -60.501s-39.334 -49.5 -68.001 -77.5s-61.834 -57.5 -99.501 -88.5s-77.667 -62 -120 -93l-129.5 -92l-128 -84.5l-62.5 -63.5l-54.5 -57l-38.5 -42
c-9.66699 -11 -14.5 -17.167 -14.5 -18.5c0 -2 1.66699 -3 5 -3c6 0 16.167 2.16699 30.5 6.5s30 9.83301 47 16.5l51.5 21c17.333 7.33301 32.333 14 45 20c8 0 12 -2 12 -6c0 -1.33301 -0.5 -2.66602 -1.5 -3.99902s-3.16699 -2.66602 -6.5 -3.99902
c-12.667 -6 -27.667 -12.667 -45 -20s-34.666 -14.166 -51.999 -20.499s-33.833 -11.833 -49.5 -16.5s-27.834 -7 -36.501 -7c-6.66699 0 -12.167 1 -16.5 3s-6.5 5.66699 -6.5 11c0 2.66699 3 8 9 16s14.167 18 24.5 30l36.5 41l46 49l-80.5 -46
c-29 -16 -55.167 -29.333 -78.5 -40c-8 0 -12 2 -12 6c0 2.66699 2.66699 5.33398 8 8.00098zM293.004 256.997l117.499 79.501l114.5 83.5c36.667 28 71 55.5 103 82.5s60 52.667 84 77s42.833 46.666 56.5 66.999s20.5 37.833 20.5 52.5c0 8 -1.66699 12 -5 12
c-9.33301 0 -22.166 -5.66699 -38.499 -17s-35.5 -26.833 -57.5 -46.5s-46.333 -42.667 -73 -69l-85 -84.5z" />
    <glyph glyph-name="m" unicode="m" horiz-adv-x="650" 
d="M648 84c6.66699 0 9.99609 -2.00586 9.99609 -6.00586c0 -1.33301 -0.5 -2.66602 -1.5 -3.99902s-3.16699 -2.66602 -6.5 -3.99902l-44 -20c-16.667 -7.33301 -33.5 -14.166 -50.5 -20.499s-33 -11.833 -48 -16.5s-26.833 -7 -35.5 -7c-6.66699 0 -12.167 1 -16.5 3
s-6.5 5.66699 -6.5 11c0 12 10 29 30 51s53.333 46.667 100 74c-11.333 -2 -26.166 -6.33301 -44.499 -13s-41.166 -16 -68.499 -28l-97 -44l-129 -61l-6 11c21.333 12.667 41 25.834 59 39.501s33.5 26.5 46.5 38.5s23 22.667 30 32s10.5 16 10.5 20c0 2 -1 3 -3 3
c-8 0 -23 -4 -45 -12s-48.167 -18.833 -78.5 -32.5l-100.5 -46.5l-111 -53l-7 11c21.333 12.667 41.5 25.834 60.5 39.501s35.5 26.5 49.5 38.5s25.167 22.667 33.5 32s12.5 16 12.5 20c0 2 -1 3 -3 3c-6 0 -16.5 -2.66699 -31.5 -8s-31.833 -11.833 -50.5 -19.5
s-37.167 -15.667 -55.5 -24l-46.5 -21.5c-8 0 -12 2 -12 6c0 2 2.66699 4.66699 8 8c0.666992 0 3.5 1 8.5 3l12.5 5l45 20.5c16.667 7.66699 33.167 14.834 49.5 21.501s31.333 12.167 45 16.5s24.5 6.5 32.5 6.5c14 0 21 -4.66699 21 -14
c0 -10.667 -4.16699 -21.5 -12.5 -32.5s-20.833 -23.167 -37.5 -36.5c1.33301 0.666992 2.5 1.16699 3.5 1.5s2.16699 0.833008 3.5 1.5l55 25c20.667 9.33301 41 18 61 26s38.5 14.833 55.5 20.5s30.167 8.5 39.5 8.5c14 0 21 -4.66699 21 -14s-2.66699 -19.5 -8 -30.5
s-18 -25.167 -38 -42.5l11.5 5.5l11.5 5.5c48.667 22.667 92.334 41.667 131.001 57s76.334 23 113.001 23v-9c-30.667 -16.667 -55.834 -32 -75.501 -46s-35.167 -26.5 -46.5 -37.5s-19.166 -20.333 -23.499 -28s-6.5 -13.5 -6.5 -17.5c0 -2 1.66699 -3 5 -3
c6 0 15.833 2.16699 29.5 6.5s28.667 9.83301 45 16.5l50 21c17 7.33301 31.833 14 44.5 20h2z" />
    <glyph glyph-name="n" unicode="n" horiz-adv-x="475" 
d="M474 84c6.66699 0 9.99902 -2.00684 9.99902 -6.00684c0 -1.33301 -0.5 -2.66602 -1.5 -3.99902s-3.16699 -2.66602 -6.5 -3.99902c-12.667 -6 -27.5 -12.667 -44.5 -20s-33.833 -14.166 -50.5 -20.499s-32.5 -11.833 -47.5 -16.5s-26.833 -7 -35.5 -7
c-6.66699 0 -12.167 1 -16.5 3s-6.5 5.66699 -6.5 11c0 12 10.167 29.167 30.5 51.5s53.5 47.166 99.5 74.499c-13.333 -1.33301 -30.333 -5.16602 -51 -11.499s-45.667 -15.5 -75 -27.5s-63.666 -27 -102.999 -45l-135 -63l-7 11c22 12.667 42.5 25.834 61.5 39.501
s35.5 26.5 49.5 38.5s25 22.667 33 32s12 16 12 20c0 2 -1 3 -3 3c-6 0 -16.5 -2.66699 -31.5 -8s-31.833 -11.833 -50.5 -19.5s-37.167 -15.667 -55.5 -24l-46.5 -21.5c-8 0 -12 2 -12 6c0 2 2.66699 4.66699 8 8c0.666992 0 3.5 1 8.5 3l12.5 5l46 20.5
c16.667 7.66699 33 14.834 49 21.501s30.833 12.167 44.5 16.5s24.5 6.5 32.5 6.5c14 0 21 -4.66699 21 -14c0 -11.333 -4 -22.166 -12 -32.499s-21.667 -23.166 -41 -38.499c55.333 25.333 106.5 46.5 153.5 63.5s92.5 25.5 136.5 25.5v-9
c-31.333 -16.667 -56.833 -32 -76.5 -46s-35 -26.5 -46 -37.5s-18.667 -20.333 -23 -28s-6.5 -13.5 -6.5 -17.5c0 -2 1.66699 -3 5 -3c6 0 15.833 2.16699 29.5 6.5s28.667 9.83301 45 16.5l50 21c17 7.33301 31.833 14 44.5 20h2z" />
    <glyph glyph-name="o" unicode="o" 
d="M-1 84l35.001 16.498c10.667 5 21.5 9.66699 32.5 14l34 13.5l40.5 16h-1c12.667 7.33301 25.167 13.166 37.5 17.499s23.166 6.5 32.499 6.5c21.333 0 32 -10.667 32 -32c0 -10 -3 -20.333 -9 -31s-13.667 -21.334 -23 -32.001c3.33301 -3.33301 7.33301 -5 12 -5
c10 0 26.667 5.33301 50 16c8 0 12 -2 12 -6c0 -1.33301 -0.5 -2.66602 -1.5 -3.99902s-3.16699 -2.66602 -6.5 -3.99902c-11.333 -5.33301 -21.666 -9.16602 -30.999 -11.499s-17.666 -3.5 -24.999 -3.5c-4.66699 0 -8.83398 0.166992 -12.501 0.5
s-6.83398 1.83301 -9.50098 4.5c-17.333 -16.667 -36.5 -30.167 -57.5 -40.5s-40.5 -15.5 -58.5 -15.5c-24.667 0 -37 9 -37 27c0 12 4.5 25.167 13.5 39.5s20.167 27.833 33.5 40.5l-33 -15l-44 -20l-12 -6c-8 0 -12 2 -12 6c0 2.66699 2.66699 5.33398 8 8.00098z
M64.001 28.998c0 -7.33301 5.66797 -11.002 17.001 -11.002c14 0 29.167 3.83301 45.5 11.5s31.833 17.334 46.5 29.001s26.834 24.5 36.501 38.5s14.5 27.333 14.5 40c0 11.333 -4.33301 17 -13 17c-10 0 -23.333 -4.83301 -40 -14.5s-32.834 -21.167 -48.501 -34.5
s-29.334 -27.166 -41.001 -41.499s-17.5 -25.833 -17.5 -34.5z" />
    <glyph glyph-name="p" unicode="p" horiz-adv-x="475" 
d="M473 84c6.66699 0 9.99902 -2.00098 9.99902 -6.00098c0 -1.33301 -0.5 -2.66602 -1.5 -3.99902s-3.16699 -2.66602 -6.5 -3.99902c-2 -1.33301 -5.16699 -2.83301 -9.5 -4.5s-7.83301 -3.16699 -10.5 -4.5l-38 -17c-13.333 -6 -26.166 -11.5 -38.499 -16.5
s-24 -9 -35 -12s-20.5 -4.5 -28.5 -4.5c-6.66699 0 -12.167 1 -16.5 3s-6.5 5.66699 -6.5 11c0 12 10.667 29.667 32 53s55.333 48.666 102 75.999c-15.333 -2 -37.5 -8.33301 -66.5 -19s-60.5 -23.667 -94.5 -39s-68.5 -32.833 -103.5 -52.5s-66.5 -39.5 -94.5 -59.5
c-12 -9.33301 -26.167 -21 -42.5 -35l-58.5 -52l-78.5 -74.5l-102.5 -101.5h-37l-2 6l195 179.5l194 176.5l74 67l74 68l-53.5 -34.5c-17.667 -11 -37.167 -22.333 -58.5 -34s-45.5 -23.834 -72.5 -36.501l-95.5 -43c-8 0 -12 2 -12 6c0 2.66699 2.66699 5.33398 8 8.00098
c38.667 16.667 71.5 31.5 98.5 44.5s51 25.333 72 37s40.667 23.334 59 35.001l59.5 39.5c14 9.33301 27 18.5 39 27.5s25 19.5 39 31.5l46.5 41.5l60.5 56.5l8 -12c-30 -31.333 -61.833 -62.5 -95.5 -93.5l-104.5 -96.5l-44 -40l-41 -38.5l-41.5 -40.5l-45.5 -46
c28.667 17.333 59.5 34.5 92.5 51.5s65.833 32 98.5 45s64 23.5 94 31.5s56 12 78 12v-9c-30.667 -16.667 -56.167 -32.334 -76.5 -47.001s-36.5 -27.667 -48.5 -39s-20.333 -21 -25 -29s-7 -14 -7 -18c0 -2 1.66699 -3 5 -3c6 0 14.833 2 26.5 6s24.667 8.83301 39 14.5
s29 12 44 19l41.5 19.5h2z" />
    <glyph glyph-name="q" unicode="q" horiz-adv-x="325" 
d="M226 165c10 0 17.835 -1.66699 23.502 -5s8.5 -10.333 8.5 -21c0 -2.66699 -0.333008 -5.33398 -1 -8.00098l20 14c6 4 11.667 7.33301 17 10l6 -8c-6 -4.66699 -20 -16.667 -42 -36l-77.5 -70.5l-94 -89l-91 -90c-27.667 -28.333 -50.5 -53.166 -68.5 -74.499
s-27 -35.333 -27 -42c0 -4.66699 0.666992 -7 2 -7c15.333 0 33.833 10.667 55.5 32l76.5 78l34.5 35.5c11.667 12.333 24.167 24.833 37.5 37.5c31.333 30.667 64.666 60.667 99.999 90s74 53.666 116 72.999c8 0 12 -2 12 -6c0 -1.33301 -0.5 -2.66602 -1.5 -3.99902
s-3.16699 -2.66602 -6.5 -3.99902c-36 -17.333 -71.833 -40.333 -107.5 -69s-68.5 -58.334 -98.5 -89.001c-10.667 -10 -21 -20.333 -31 -31l-29 -31l-45 -46.5c-14.667 -15 -29 -28.333 -43 -40s-27.167 -21 -39.5 -28s-23.833 -10.5 -34.5 -10.5
c-6.66699 0 -11.667 1.66699 -15 5s-5 6.66602 -5 9.99902c0 8 7.66699 22 23 42s35.333 43.333 60 70l81.5 84.5l88.5 86.5c-12.667 -5.33301 -25 -9.5 -37 -12.5s-22.667 -4.5 -32 -4.5c-11.333 0 -20 1.5 -26 4.5s-9 9.16699 -9 18.5c0 11.333 5.5 23.833 16.5 37.5
s24.5 26.5 40.5 38.5c-11.333 -5.33301 -23.5 -10.666 -36.5 -15.999l-44.5 -19c-8 0 -12 2 -12 6c0 2.66699 2.66699 5.33398 8 8.00098l38.5 17c11.667 5.33301 23.667 10.5 36 15.5s25.666 9.83301 39.999 14.5l48.5 16h-1c13.333 5.33301 25.5 9.66602 36.5 12.999
s20.5 5 28.5 5zM48.002 28c0 -3.33301 0.832031 -5.50293 2.49902 -6.50293s5.16699 -1.5 10.5 -1.5c14.667 0 32.334 4.33301 53.001 13s40.167 19.334 58.5 32.001s34 25.834 47 39.501s19.5 25.5 19.5 35.5c0 7.33301 -4 11 -12 11c-10 0 -24.833 -4.66699 -44.5 -14
s-39.5 -20.666 -59.5 -33.999s-37.5 -27 -52.5 -41s-22.5 -25.333 -22.5 -34z" />
    <glyph glyph-name="r" unicode="r" 
d="M1 70c-6.66699 0 -10.002 1.99414 -10.002 5.99414c0 2.66699 2.66699 5.33398 8 8.00098c25.333 10 53.833 22.833 85.5 38.5l94.5 46.5l-2 -1c8.66699 15.333 18.5 26.333 29.5 33s20.167 10 27.5 10c2.66699 0 5.16699 -0.833008 7.5 -2.5s3.5 -3.83398 3.5 -6.50098
c0 -4 -4.5 -10 -13.5 -18s-21.5 -15.667 -37.5 -23c8 -9.33301 16 -15.333 24 -18c1.33301 0.666992 2.33301 1 3 1s1.66699 0.333008 3 1l8 3c6.66699 0 10 -2 10 -6c0 -2 -1 -3.5 -3 -4.5s-4.66699 -2.16699 -8 -3.5s-7.33301 -3.33301 -12 -6
c-41.333 -21.333 -72.5 -42 -93.5 -62s-31.5 -34 -31.5 -42c0 -2.66699 1.33301 -4 4 -4c6 0 16.167 2.16699 30.5 6.5s30 9.83301 47 16.5l52 21c17.667 7.33301 32.5 14 44.5 20c8 0 12 -2 12 -6c0 -1.33301 -0.5 -2.66602 -1.5 -3.99902s-3.16699 -2.66602 -6.5 -3.99902
c-12.667 -6 -27.667 -12.667 -45 -20s-34.666 -14.166 -51.999 -20.499s-33.833 -11.833 -49.5 -16.5s-27.834 -7 -36.501 -7c-7.33301 0 -12.666 1.5 -15.999 4.5s-5 6.5 -5 10.5c0 6.66699 2 14.167 6 22.5s11 17.333 21 27s23.5 19.834 40.5 30.501s38.5 22 64.5 34
c-10 5.33301 -18.333 11.333 -25 18c-10 -5.33301 -20.167 -10.166 -30.5 -14.499s-20.833 -9.16602 -31.5 -14.499l-59 -28.5c-19.333 -9.66699 -37.666 -18.167 -54.999 -25.5h-2z" />
    <glyph glyph-name="s" unicode="s" 
d="M-1 84c18.667 8.66699 35.498 16.1631 50.498 22.4961l42.5 18l39 16.5l40 17c5.33301 2.66699 10.833 5.16699 16.5 7.5l18.5 7.5c22.667 21.333 39 32 49 32c6 0 9 -2.33301 9 -7c0 -4 -3.5 -8.66699 -10.5 -14s-20.833 -12.666 -41.5 -21.999
c-5.33301 -8 -10.333 -16.667 -15 -26l-13 -26l-21.5 -43c-7 -13.333 -17.833 -25.666 -32.5 -36.999c20 5.33301 41.167 12.333 63.5 21s48.5 19.667 78.5 33c8 0 12 -2 12 -6c0 -1.33301 -0.5 -2.66602 -1.5 -3.99902s-3.16699 -2.66602 -6.5 -3.99902
c-16 -7.33301 -33.333 -14.833 -52 -22.5s-38.167 -14.834 -58.5 -21.501s-41.166 -12 -62.499 -16s-42.333 -6 -63 -6c-12 0 -22.167 3 -30.5 9s-12.5 13.333 -12.5 22c0 10 3.16699 18.667 9.5 26s14.166 11 23.499 11c12.667 0 19 -4.33301 19 -13
c0 -5.33301 -2.33301 -10.166 -7 -14.499s-10.667 -6.5 -18 -6.5c-4 0 -7 0.333008 -9 1v-4c0 -5.33301 2.33301 -9.83301 7 -13.5s10.334 -5.5 17.001 -5.5c12 0 24.333 3.5 37 10.5s25.334 16.5 38.001 28.5s24.667 26 36 42s21.666 32.667 30.999 50l-38 -15l-38 -15.5
c-13.333 -5.66699 -28.166 -12.334 -44.499 -20.001l-57.5 -26.5c-8 0 -12 2 -12 6c0 2.66699 2.66699 5.33398 8 8.00098z" />
    <glyph glyph-name="t" unicode="t" horiz-adv-x="250" 
d="M250 84c6.66699 0 10 -2.00195 10 -6.00195c0 -1.33301 -0.5 -2.66602 -1.5 -3.99902s-3.16699 -2.66602 -6.5 -3.99902l-44 -20c-16.667 -7.33301 -33.5 -14.166 -50.5 -20.499s-33 -11.833 -48 -16.5s-26.833 -7 -35.5 -7c-6.66699 0 -12.167 1 -16.5 3
s-6.5 5.66699 -6.5 11c0 2 2.66699 6.16699 8 12.5s12.333 14.166 21 23.499l29 31l33 34l18 17.5c4.66699 4.33301 10.667 11.166 18 20.499c-23.333 -14 -50.333 -28.833 -81 -44.5s-62 -30.5 -94 -44.5c-8 0 -12 2 -12 6c0 2.66699 2.66699 5.33398 8 8.00098
c35.333 15.333 71 32.333 107 51s73.333 40.667 112 66v-1l55.5 54l43.5 44h-72c-6.66699 0 -10 2.33301 -10 7s3.33301 7 10 7h85l57.5 60l55.5 60h25l5 -7l-51 -51.5l-63 -61.5h65c6.66699 0 10 -2.33301 10 -7s-3.33301 -7 -10 -7h-78l-38.5 -37l-38.5 -37l-73 -71.5
l-62 -62l-43.5 -45.5c-11 -12 -16.5 -19.333 -16.5 -22c0 -2 1.66699 -3 5 -3c6 0 15.833 2.16699 29.5 6.5s28.667 9.83301 45 16.5l50 21c17 7.33301 31.833 14 44.5 20h2z" />
    <glyph glyph-name="u" unicode="u" horiz-adv-x="450" 
d="M449 84c6.66699 0 9.99609 -2.00293 9.99609 -6.00293c0 -1.33301 -0.5 -2.66602 -1.5 -3.99902s-3.16699 -2.66602 -6.5 -3.99902c-12.667 -6 -27.667 -12.667 -45 -20s-34.666 -14.166 -51.999 -20.499s-33.833 -11.833 -49.5 -16.5s-27.834 -7 -36.501 -7
c-6.66699 0 -12.167 1 -16.5 3s-6.5 5.66699 -6.5 11c0 11.333 7.16699 25.166 21.5 41.499s33.5 34.5 57.5 54.5c-5.33301 -2.66699 -10 -5.16699 -14 -7.5l-14 -8.5l-28 -14l-41 -21c-12.667 -6.66699 -26.334 -13.5 -41.001 -20.5s-29.167 -13.333 -43.5 -19
s-28 -10.334 -41 -14.001s-23.833 -5.5 -32.5 -5.5c-6.66699 0 -12.167 1 -16.5 3s-6.5 5.66699 -6.5 11c0 23.333 28.667 58.333 86 105l-56 -23.5l-73 -31.5c-8 0 -12 2 -12 6c0 2.66699 2.66699 5.33398 8 8.00098l47 20l44 18l50 19.5l65 24.5l7 -8
c-27.333 -20 -50.166 -37.667 -68.499 -53s-33 -28.5 -44 -39.5s-18.833 -19.833 -23.5 -26.5s-7 -12 -7 -16c0 -2 1.66699 -3 5 -3c6 0 14.833 1.83301 26.5 5.5s24.5 8.33398 38.5 14.001s28.333 12 43 19s28.334 13.833 41.001 20.5l42.5 22.5
c11.667 6.33301 23.834 12.5 36.501 18.5l42.5 19.5l60.5 27.5l8 -9c-27.333 -20 -50.166 -37.667 -68.499 -53s-33.166 -28.5 -44.499 -39.5s-19.5 -19.833 -24.5 -26.5s-7.5 -12 -7.5 -16c0 -2 1.66699 -3 5 -3c6 0 16.167 2.16699 30.5 6.5s30 9.83301 47 16.5l51.5 21
c17.333 7.33301 32.333 14 45 20h2z" />
    <glyph glyph-name="v" unicode="v" horiz-adv-x="350" 
d="M349 84c6.66699 0 10.002 -2 10.002 -6c0 -1.33301 -0.5 -2.66602 -1.5 -3.99902s-3.16699 -2.66602 -6.5 -3.99902c-16 -7.33301 -32.333 -12.833 -49 -16.5s-31.334 -5.5 -44.001 -5.5c-15.333 0 -25 3.33301 -29 10c-12 -6 -25 -12.167 -39 -18.5s-27.5 -12 -40.5 -17
s-25.167 -9 -36.5 -12s-21 -4.5 -29 -4.5c-6.66699 0 -12.167 1 -16.5 3s-6.5 5.66699 -6.5 11c0 8 3 16.167 9 24.5s13.667 16.666 23 24.999s19.333 16.5 30 24.5s20.667 15 30 21c9.33301 6.66699 17.5 12.167 24.5 16.5s10.5 8.16602 10.5 11.499c0 2 -1 3 -3 3
c-6 0 -16.5 -2.83301 -31.5 -8.5s-31.5 -12.5 -49.5 -20.5l-54.5 -25l-46.5 -22c-8 0 -12 2 -12 6c0 2.66699 2.66699 5.33398 8 8.00098l46 22l54.5 25c18.333 8 35.666 14.833 51.999 20.5s29.166 8.5 38.499 8.5c14 0 21 -4.66699 21 -14c0 -6 -6.66699 -14.667 -20 -26
s-28.333 -23.333 -45 -36l-42.5 -34.5c-13 -11 -19.5 -19.833 -19.5 -26.5c0 -2 1.33301 -3 4 -3c5.33301 0 13.333 1.5 24 4.5s22.334 7 35.001 12s26 10.667 40 17s27.333 12.833 40 19.5c50 58 82 87 96 87c7.33301 0 11 -3.33301 11 -10s-5.66699 -14.834 -17 -24.501
s-25.333 -20.834 -42 -33.501c-5.33301 -3.33301 -9.83301 -6.66602 -13.5 -9.99902s-8.16699 -7 -13.5 -11c0 -6 4 -9 12 -9c11.333 0 24.333 1.83301 39 5.5s30.667 9.16699 48 16.5h2z" />
    <glyph glyph-name="w" unicode="w" horiz-adv-x="550" 
d="M548 84c6.66699 0 9.99902 -1.99902 9.99902 -5.99902c0 -1.33301 -0.5 -2.66602 -1.5 -3.99902s-3.16699 -2.66602 -6.5 -3.99902c-15.333 -8 -31.333 -14.5 -48 -19.5s-31.667 -7.5 -45 -7.5c-9.33301 0 -17.666 2.16699 -24.999 6.5s-12.333 10.166 -15 17.499
c-26 -17.333 -52.667 -31.833 -80 -43.5s-49.666 -17.5 -66.999 -17.5c-6.66699 0 -12.167 1.33301 -16.5 4s-6.5 6.66699 -6.5 12c0 9.33301 2.33301 19.666 7 30.999s10 22 16 32l-59 -30.5c-19.333 -9.66699 -37.5 -18 -54.5 -25s-31.833 -12.667 -44.5 -17
s-22 -6.5 -28 -6.5c-4.66699 0 -9.33398 1 -14.001 3s-7 5.66699 -7 11c0 8 2.5 16.167 7.5 24.5s11.333 16.5 19 24.5s16 15.833 25 23.5s17.5 14.5 25.5 20.5l20 16c6 4.66699 9 8.66699 9 12c0 2 -1 3 -3 3s-7.5 -1.83301 -16.5 -5.5s-19.667 -8.33398 -32 -14.001
l-39 -18.5l-38.5 -19c-6 -2.66699 -12.333 -5.66699 -19 -9s-12.334 -6 -17.001 -8c-8 0 -12 2 -12 6c0 2 2.66699 4.66699 8 8c2.66699 1.33301 5.5 2.83301 8.5 4.5s6.16699 3.16699 9.5 4.5l42.5 20.5l45.5 21.5c14.667 6.66699 27.834 12.167 39.501 16.5
s20.167 6.5 25.5 6.5c13.333 0 20 -4.66699 20 -14c0 -5.33301 -5.5 -13.833 -16.5 -25.5s-23.167 -23.167 -36.5 -34.5c-12.667 -11.333 -24.5 -22.5 -35.5 -33.5s-16.5 -20.167 -16.5 -27.5c0 -2 1 -3 3 -3c6 0 19.5 4.5 40.5 13.5s45.167 20.333 72.5 34
s55.666 28.667 84.999 45s55 32.166 77 47.499l8 -14c-14 -9.33301 -27.167 -19.5 -39.5 -30.5s-23.166 -22.167 -32.499 -33.5s-16.666 -22 -21.999 -32s-8 -18.333 -8 -25c0 -3.33301 1.66699 -5 5 -5c5.33301 0 13.166 1.66699 23.499 5s22 7.83301 35 13.5
s26.667 12.5 41 20.5s28.166 16.667 41.499 26c13.333 24.667 27 43.334 41 56.001s24.667 19 32 19s11 -3.33301 11 -10c0 -8.66699 -5.5 -18 -16.5 -28s-27.167 -23.667 -48.5 -41c0.666992 -6.66699 3.33398 -12.334 8.00098 -17.001s10 -7 16 -7
c11.333 0 24.333 2.33301 39 7s30.667 11.334 48 20.001h2z" />
    <glyph glyph-name="x" unicode="x" horiz-adv-x="300" 
d="M299 84c6.66699 0 9.99707 -2.00098 9.99707 -6.00098c0 -2.66699 -2.66699 -5.33398 -8 -8.00098c-12.667 -6.66699 -27 -13.667 -43 -21s-31.833 -14.166 -47.5 -20.499s-30.5 -11.666 -44.5 -15.999s-25 -6.5 -33 -6.5c-14 0 -21 4.66699 -21 14c0 6 1.66699 13 5 21
s7.33301 16.333 12 25l-60.5 -28.5l-60.5 -28.5c-4 -1.33301 -7.33301 -2 -10 -2c-6 0 -9 2 -9 6c0 1.33301 1.16699 2.83301 3.5 4.5s4.5 2.83398 6.5 3.50098l72 33.5l72 33.5c2 2.66699 4 5.66699 6 9s3.66699 6 5 8c5.33301 8 9.83301 15.167 13.5 21.5
s5.5 11.833 5.5 16.5c0 2 -1 3 -3 3s-8.16699 -2.16699 -18.5 -6.5s-22.666 -9.83301 -36.999 -16.5l-45.5 -21.5l-44 -20.5l-11.5 -6c-3.66699 -2 -7.16699 -3.66699 -10.5 -5c-8 0 -12 2 -12 6c0 2.66699 2.66699 5.33398 8 8.00098l45.5 22l52.5 25
c17.333 8 33.166 14.833 47.499 20.5s24.5 8.5 30.5 8.5c12.667 0 19 -4.66699 19 -14c0 -10 -4.66699 -23.667 -14 -41c14.667 7.33301 29.834 14.5 45.501 21.5s30.834 14.167 45.501 21.5l2 1c4.66699 2.66699 8.66699 4 12 4c5.33301 0 8 -2 8 -6
c0 -2 -1.66699 -4 -5 -6l-121 -57c-2 -3.33301 -4.33301 -6.83301 -7 -10.5s-4.66699 -7.16699 -6 -10.5l-14.5 -24.5c-4.33301 -7 -6.5 -12.167 -6.5 -15.5c0 -2 1.66699 -3 5 -3c6 0 15.333 2 28 6s26.667 9.16699 42 15.5s30.833 13.166 46.5 20.499
s29.834 14.666 42.501 21.999h2z" />
    <glyph glyph-name="y" unicode="y" horiz-adv-x="425" 
d="M-1 84l45.999 21.9961l54.5 25c18.333 8 35.666 14.833 51.999 20.5s29.166 8.5 38.499 8.5c14 0 21 -4.66699 21 -14c0 -4.66699 -2.5 -10.167 -7.5 -16.5s-11.5 -13.166 -19.5 -20.499s-16.833 -14.833 -26.5 -22.5s-19.167 -14.834 -28.5 -21.501
c-12.667 -9.33301 -23.5 -17.833 -32.5 -25.5s-13.5 -13.167 -13.5 -16.5c0 -2 1.66699 -3 5 -3c5.33301 0 16 3 32 9s34.667 13.833 56 23.5l68.5 32l70 34l60.5 30c18 9 31.333 15.833 40 20.5l5 -13c-12 -6.66699 -23.667 -14.167 -35 -22.5
s-23.666 -18.166 -36.999 -29.499s-27.833 -24.333 -43.5 -39l-54.5 -50c4.66699 2 9.5 3.83301 14.5 5.5s10.167 3.5 15.5 5.5c20.667 7.33301 42.334 15.5 65.001 24.5s48 20.167 76 33.5c8 0 12 -2 12 -6c0 -1.33301 -0.5 -2.66602 -1.5 -3.99902
s-3.16699 -2.66602 -6.5 -3.99902c-30.667 -14 -58.5 -26.167 -83.5 -36.5l-71.5 -28.5c-7.33301 -3.33301 -14.5 -6 -21.5 -8s-13.833 -4.66699 -20.5 -8l-87.5 -87c-32.333 -31.333 -64.166 -60.333 -95.499 -87s-60.166 -49 -86.499 -67s-46.166 -27 -59.499 -27
c-8.66699 0 -14.667 2.16699 -18 6.5s-5 10.166 -5 17.499c0 17.333 8.83301 36.833 26.5 58.5s41.834 43.834 72.501 66.501s66.167 45.167 106.5 67.5s83.166 42.833 128.499 61.5l-1 -1c8.66699 7.33301 17.5 15.333 26.5 24l27.5 27c14 12.667 24.833 23 32.5 31
s17.167 16.667 28.5 26l-71 -33.5l-72 -32.5c-22.667 -10 -42.834 -18.167 -60.501 -24.5s-30.167 -9.5 -37.5 -9.5c-14.667 0 -22 4.66699 -22 14c0 5.33301 2.66699 11.666 8 18.999s12.166 14.833 20.499 22.5s17.5 15.334 27.5 23.001l29 21.5l29 22
c8.66699 6.66699 13 11.667 13 15c0 2 -1 3 -3 3c-6 0 -16.5 -2.83301 -31.5 -8.5s-31.5 -12.5 -49.5 -20.5l-54.5 -25l-46.5 -22c-8 0 -12 2 -12 6c0 2.66699 2.66699 5.33398 8 8.00098zM-99.001 -265.004c8.66699 0 23.665 7 44.998 21s45.5 32.333 72.5 55
s55.333 48.167 85 76.5s57.5 56.5 83.5 84.5c-40 -17.333 -77.667 -36.333 -113 -57s-66.166 -41.167 -92.499 -61.5s-47.166 -39.833 -62.499 -58.5s-23 -35 -23 -49c0 -7.33301 1.66699 -11 5 -11z" />
    <glyph glyph-name="z" unicode="z" horiz-adv-x="300" 
d="M299 84c6.66699 0 9.99902 -2.00684 9.99902 -6.00684c0 -1.33301 -0.5 -2.66602 -1.5 -3.99902s-3.16699 -2.66602 -6.5 -3.99902c-6.66699 -2.66699 -12.667 -5.33398 -18 -8.00098l-37 -17c-13.333 -6 -26.666 -11.667 -39.999 -17s-26.166 -9.66602 -38.499 -12.999
s-22.833 -5 -31.5 -5c-13.333 0 -23.166 1.83301 -29.499 5.5s-11.833 7.83398 -16.5 12.501v-1c-3.33301 3.33301 -6.66602 6 -9.99902 8s-7 3 -11 3c-3.33301 0 -8 -1.33301 -14 -4h1c-6 -3.33301 -11.833 -6.83301 -17.5 -10.5s-11.167 -8.16699 -16.5 -13.5l-11 13
c8.66699 8 23 17.667 43 29l61 34l48 25.5c15.333 8.33301 26.666 15.166 33.999 20.499c-11.333 0 -21.333 0.833008 -30 2.5s-14.667 4.16699 -18 7.5c-20.667 -12 -41.167 -22.833 -61.5 -32.5l-67.5 -31.5h1c-2.66699 -1.33301 -5.5 -2.66602 -8.5 -3.99902
s-6.16699 -2.66602 -9.5 -3.99902c-8 0 -12 2 -12 6c0 2.66699 2.66699 5.33398 8 8.00098c8 2.66699 16.667 6.33398 26 11.001l57.5 27.5c19 9 39.5 20.5 61.5 34.5c1.33301 10.667 7.16602 20.5 17.499 29.5s20.166 13.5 29.499 13.5c6.66699 0 10 -2 10 -6
c0 -2 -1.5 -4.83301 -4.5 -8.5s-6.5 -7.5 -10.5 -11.5s-8 -7.66699 -12 -11s-7.33301 -6 -10 -8c0.666992 -5.33301 4.33398 -8.5 11.001 -9.5s11.667 -1.5 15 -1.5c5.33301 0 10.166 0.166992 14.499 0.5s12.5 1.16602 24.5 2.49902l5 -10
c-7.33301 -5.33301 -18.333 -12.166 -33 -20.499l-50 -27.5l-34 -18.5l-33 -18.5c6.66699 -0.666992 12.167 -2.16699 16.5 -4.5s8.5 -5.16602 12.5 -8.49902c4.66699 -3.33301 9.33398 -6.5 14.001 -9.5s9.66699 -4.5 15 -4.5c7.33301 0 17.166 2 29.499 6
s25.833 9 40.5 15l44.5 19c15 6.66699 28.5 13 40.5 19h2z" />
    <glyph glyph-name="braceleft" unicode="{" horiz-adv-x="350" 
d="M333 211c0 -19.333 -6.16309 -40.0029 -18.4961 -62.0029s-28.5 -44.5 -48.5 -67.5s-42.333 -46.333 -67 -70l-74 -68.5l-58 -53c-18.667 -17.333 -35.167 -34 -49.5 -50s-25.833 -31.167 -34.5 -45.5s-13 -27.5 -13 -39.5c0 -7.33301 2.83301 -13.5 8.5 -18.5
s12.167 -7.5 19.5 -7.5l-1 -12c-14.667 0 -27.334 4.33301 -38.001 13s-16 18.667 -16 30c0 14.667 5 30.334 15 47.001s23.167 34.334 39.5 53.001s35.166 37.834 56.499 57.501l66 59.5l67 61.5c22 20.333 41.833 40.333 59.5 60s31.834 38.834 42.501 57.501
s16 36.667 16 54c0 12.667 -2.66699 24.334 -8 35.001c-8.66699 -2 -16.834 -3.33301 -24.501 -4s-15.5 -1 -23.5 -1c-12.667 0 -23.167 2.16699 -31.5 6.5s-12.5 9.5 -12.5 15.5c0 7.33301 5 13.166 15 17.499s22 6.5 36 6.5c10 0 20 -2.16699 30 -6.5
s18.667 -9.83301 26 -16.5c32.667 11.333 69.5 31.5 110.5 60.5s81.167 65.5 120.5 109.5c5.33301 5.33301 11 11.666 17 18.999l19 23l69 82c26 30 54.167 58 84.5 84s62 47.833 95 65.5s66.5 26.5 100.5 26.5l-5 -12c-24.667 0 -49.834 -7.16699 -75.501 -21.5
s-51.167 -32.666 -76.5 -54.999s-50 -47.333 -74 -75l-69 -80.5l-25 -29l-23 -26c-46 -52.667 -91 -93.834 -135 -123.501s-85.333 -49.834 -124 -60.501c3.33301 -6 6.16602 -12.167 8.49902 -18.5s3.5 -13.166 3.5 -20.499zM250.004 251.997
c5.33301 0 11.168 0.5 17.501 1.5s13.166 2.16699 20.499 3.5c-10 10 -21 15 -33 15c-8 0 -15 -1 -21 -3s-9 -4.33301 -9 -7c0 -3.33301 2.5 -5.83301 7.5 -7.5s10.833 -2.5 17.5 -2.5z" />
    <glyph glyph-name="bar" unicode="|" 
d="M127 -273v998h20v-998h-20z" />
    <glyph glyph-name="braceright" unicode="}" horiz-adv-x="350" 
d="M338 239c0 19.333 6.16602 40.0088 18.499 62.0088s28.5 44.5 48.5 67.5s42.333 46.167 67 69.5l74 68l58 53c18.667 17.333 35.167 34 49.5 50s25.833 31.167 34.5 45.5s13 27.5 13 39.5c0 7.33301 -2.83301 13.666 -8.5 18.999s-12.5 8 -20.5 8l2 12
c14.667 0 27.334 -4.33301 38.001 -13s16 -19 16 -31c0 -14.667 -5 -30.334 -15 -47.001s-23.333 -34.334 -40 -53.001s-35.5 -37.834 -56.5 -57.501l-65.5 -59.5l-67 -61c-22 -20.667 -41.833 -40.834 -59.5 -60.501s-31.834 -38.834 -42.501 -57.501
s-16 -36.334 -16 -53.001c0 -14 2.66699 -25.667 8 -35c8.66699 2 16.834 3.33301 24.501 4s15.5 1 23.5 1c12.667 0 23.167 -2.16699 31.5 -6.5s12.5 -9.5 12.5 -15.5c0 -7.33301 -5 -13.333 -15 -18s-22 -7 -36 -7c-10.667 0 -20.834 2 -30.501 6
s-18.167 9.33301 -25.5 16c-16 -6 -33.5 -14 -52.5 -24s-38.5 -22.167 -58.5 -36.5s-40.333 -30.5 -61 -48.5s-40.334 -37.667 -59.001 -59l-17 -20l-19 -23l-69.5 -81c-26.333 -30 -54.5 -58 -84.5 -84s-61.667 -47.833 -95 -65.5s-67 -26.5 -101 -26.5l5 12
c24.667 0 49.834 7.16699 75.501 21.5s51.334 32.666 77.001 54.999s50.5 47.166 74.5 74.499l69 80l25 29l23 27c45.333 51.333 90 91.833 134 121.5s85.333 50.167 124 61.5c-7.33301 12 -11 25.333 -11 40zM420.999 198.009c-10.667 0 -23.666 -1.66699 -38.999 -5
c9.33301 -10.667 20.666 -16 33.999 -16c8 0 15 1 21 3s9 4.66699 9 8s-2.5 5.83301 -7.5 7.5s-10.833 2.5 -17.5 2.5z" />
    <glyph glyph-name="asciitilde" unicode="~" 
d="M80 96c10.667 6 21.0029 8.99902 31.0029 8.99902c5.33301 0 11.166 -1 17.499 -3s13.166 -3.66699 20.499 -5c4.66699 -1.33301 9.66699 -2.66602 15 -3.99902s10.666 -2 15.999 -2c7.33301 0 18.333 4.66699 33 14l-6 -18c-11.333 -6 -21.666 -9 -30.999 -9
c-7.33301 0 -14 0.666992 -20 2s-11.667 3 -17 5h1l-17.5 4c-5.66699 1.33301 -10.834 2 -15.501 2c-6.66699 0 -17.667 -4.33301 -33 -13z" />
    <glyph glyph-name="uni00A0" unicode="&#xa0;" horiz-adv-x="0" 
 />
    <glyph glyph-name="currency" unicode="&#xa4;" 
d="M58 55c0 11.333 5.00195 23.832 15.002 37.499s22.333 26.167 37 37.5l-13 25l-13 25l17 8l24 -47c11.333 7.33301 23.166 13.333 35.499 18s23.166 7 32.499 7c10 0 17 -1.66699 21 -5s6.33301 -8.66602 7 -15.999l17.5 10.5l17.5 10.5l10 -12l-50 -30l3 1
c-3.33301 -11.333 -9.5 -22.333 -18.5 -33s-20.167 -20.667 -33.5 -30c4.66699 -8.66699 9.5 -17.167 14.5 -25.5s9.83301 -16.833 14.5 -25.5l-16 -7l-27 48c-10 -5.33301 -20.667 -10 -32 -14s-21.333 -6 -30 -6c-11.333 0 -19.333 1.66699 -24 5l-19 -11l-18 -11l-10 12
l38 22v6v0zM78.002 53.999c0 -5.33301 4 -8.00098 12 -8.00098c10.667 0 22.5 3 35.5 9s25.167 13.5 36.5 22.5s20.833 19.167 28.5 30.5s11.5 22 11.5 32c0 8 -2.66699 12 -8 12c-8 0 -18.5 -3.83301 -31.5 -11.5s-25.833 -16.667 -38.5 -27s-23.5 -21.166 -32.5 -32.499
s-13.5 -20.333 -13.5 -27z" />
    <glyph glyph-name="brokenbar" unicode="&#xa6;" 
d="M127 249v476h20v-476h-20zM147 203v-476h-20v476h20z" />
    <glyph glyph-name="section" unicode="&#xa7;" 
d="M209 84c0 -18.667 -6.83203 -35.3389 -20.499 -50.0059s-30.5 -25.667 -50.5 -33c-4 -21.333 -15.333 -39.5 -34 -54.5s-41.667 -22.5 -69 -22.5c-19.333 0 -34.833 5 -46.5 15s-17.5 22 -17.5 36c0 10 3.16699 18.667 9.5 26s14.166 11 23.499 11
c12.667 0 19 -4.33301 19 -13c0 -5.33301 -2.33301 -10.166 -7 -14.499s-10.667 -6.5 -18 -6.5l-9 2v-5c0 -11.333 4.16699 -20.666 12.5 -27.999s19.166 -11 32.499 -11c22 0 40 7.16699 54 21.5s21 31.5 21 51.5c0 8 -1.5 16 -4.5 24s-6.5 16.333 -10.5 25l-11.5 26
c-3.66699 8.66699 -5.5 18 -5.5 28c0 16.667 7 31.834 21 45.501s30.333 22.834 49 27.501c0.666992 19.333 9.66699 36 27 50s38 21 62 21c14 0 25 -3 33 -9s12 -13.333 12 -22c0 -10 -3 -18.667 -9 -26s-13.333 -11 -22 -11c-12.667 0 -19 4.33301 -19 13
c0 5.33301 2.16699 10.166 6.5 14.499s9.83301 6.5 16.5 6.5l8 -2c0 0.666992 0.166992 1.33398 0.5 2.00098s0.5 1.66699 0.5 3c0 12.667 -8.66699 19 -26 19s-32.166 -5.16699 -44.499 -15.5s-18.5 -23.166 -18.5 -38.499c0 -8.66699 1.5 -16.667 4.5 -24
s6.5 -14.666 10.5 -21.999c4.66699 -9.33301 9.16699 -19 13.5 -29s6.5 -20.333 6.5 -31zM104.001 119.995c0 -8.66699 1.5 -16.5 4.5 -23.5s6.5 -14.167 10.5 -21.5c4 -8.66699 8 -17.834 12 -27.501s6.66699 -19.5 8 -29.5c26.667 12 40 32.333 40 61
c0 7.33301 -1.66699 14.833 -5 22.5l-11 24.5c-3.33301 6.66699 -6.5 13.834 -9.5 21.501s-5.16699 15.5 -6.5 23.5c-12 -3.33301 -22.167 -9.83301 -30.5 -19.5s-12.5 -20.167 -12.5 -31.5z" />
    <glyph glyph-name="copyright" unicode="&#xa9;" horiz-adv-x="700" 
d="M176 -177c-15.333 16 -26.165 30.9951 -32.498 44.9951s-10.166 29.667 -11.499 47c-38 2.66699 -64.833 13.334 -80.5 32.001s-23.5 44 -23.5 76s7.16699 64.5 21.5 97.5s34.166 66.5 59.499 100.5c-6 0.666992 -12.167 0.833984 -18.5 0.500977
s-12.5 -0.166016 -18.5 0.500977l-39 2c-13.333 0.666992 -25.666 1 -36.999 1c-25.333 0 -49.5 -1.33301 -72.5 -4s-44.667 -8.33398 -65 -17.001s-39.333 -20.667 -57 -36s-33.834 -35.333 -48.501 -60l-11 10c14.667 25.333 31 45.833 49 61.5s37.5 27.667 58.5 36
s43.833 14 68.5 17s51 4.5 79 4.5c13.333 0 28 -0.166992 44 -0.5s32.667 -1.16602 50 -2.49902c4.66699 -0.666992 9.16699 -1.16699 13.5 -1.5s8.83301 -0.5 13.5 -0.5c30 38.667 65 75.667 105 111s80.667 66.5 122 93.5s81.5 48.5 120.5 64.5s72.833 24 101.5 24
c73.333 0 110 -37.333 110 -112c0 -18 -5.16699 -39.167 -15.5 -63.5s-24.5 -50.166 -42.5 -77.499s-39.333 -55.166 -64 -83.499s-51.334 -55.5 -80.001 -81.5h1c-15.333 -24.667 -35 -48.5 -59 -71.5s-50.5 -43.5 -79.5 -61.5s-59.333 -32.5 -91 -43.5
s-62.834 -16.5 -93.501 -16.5h-4c0.666992 -17.333 4.16699 -32 10.5 -44s16.5 -26 30.5 -42l-6 -5h-8zM511.001 208.995c0 -19.333 -5.33691 -41.3311 -16.0039 -65.998c23.333 23.333 45 47.666 65 72.999s37.333 50 52 74s26.167 46.5 34.5 67.5s12.5 39.5 12.5 55.5
c0 31.333 -7.16699 55.833 -21.5 73.5s-37.833 26.5 -70.5 26.5c-27.333 0 -59.5 -7.66699 -96.5 -23s-75.333 -35.833 -115 -61.5s-78.5 -55.5 -116.5 -89.5s-72 -69.667 -102 -107h13c8 0 16.5 0.333008 25.5 1s18.167 1.66699 27.5 3c32 32 67.833 62.667 107.5 92
s78.334 55.166 116.001 77.499s71.834 40.333 102.501 54s53.334 20.5 68.001 20.5c6.66699 0 11.667 -1.66699 15 -5s5 -7 5 -11c0 -6.66699 -5.16699 -16.167 -15.5 -28.5s-24.666 -25.833 -42.999 -40.5s-39.666 -30.167 -63.999 -46.5s-50.333 -32 -78 -47
s-56.667 -28.667 -87 -41s-60.166 -21.833 -89.499 -28.5c-16.667 -16.667 -32.334 -33.667 -47.001 -51s-27.5 -34.5 -38.5 -51.5s-19.667 -33.5 -26 -49.5s-9.5 -30.667 -9.5 -44c0 -22.667 7.66699 -39 23 -49c10 32 26.167 64.333 48.5 97s48 62.167 77 88.5
s60 47.833 93 64.5s65.167 25 96.5 25c17.333 0 30.666 -4.5 39.999 -13.5s14 -22.167 14 -39.5zM457.997 250.997c-30 0 -60.6631 -8.16504 -91.9961 -24.498s-60.833 -37.5 -88.5 -63.5s-52.167 -55 -73.5 -87s-36.666 -64 -45.999 -96
c3.33301 -0.666992 6.83301 -1.16699 10.5 -1.5s7.5 -0.5 11.5 -0.5c23.333 0 47.166 3.5 71.499 10.5s48.666 16.667 72.999 29s48.166 26.666 71.499 42.999s45.666 33.833 66.999 52.5h-1c9.33301 16.667 17 33 23 49s9 31.667 9 47
c0 13.333 -2.83301 23.666 -8.5 30.999s-14.834 11 -27.501 11zM46.001 20.999c0 -28 6.83301 -49.832 20.5 -65.499s35.5 -24.834 65.5 -27.501c0 7.33301 0.666992 14.666 2 21.999s3 15 5 23c-26.667 10.667 -40 35 -40 73c0 27.333 8.16699 56 24.5 86
s38.166 60 65.499 90c-6 -0.666992 -12.667 -1.16699 -20 -1.5s-13.666 -0.5 -18.999 -0.5h-22c-24 -33.333 -43.667 -67.166 -59 -101.499s-23 -66.833 -23 -97.5zM596.001 468c-12 0 -30.665 -6.00195 -55.998 -18.002s-53.833 -28 -85.5 -48
s-64.834 -43.167 -99.501 -69.5s-67.334 -54.166 -98.001 -83.499c40.667 12 81.5 28.333 122.5 49s77.833 41.834 110.5 63.501s59.167 42 79.5 61s30.5 32.5 30.5 40.5c0 3.33301 -1.33301 5 -4 5zM181.003 -34.002c-10.667 0 -19.334 0.998047 -26.001 2.99805
c-4 -15.333 -6 -29.666 -6 -42.999h4c25.333 0 50.833 3.66699 76.5 11s50.334 17.5 74.001 30.5s46 28 67 45s40.167 35.5 57.5 55.5c-39.333 -29.333 -80.333 -53.666 -123 -72.999s-84 -29 -124 -29z" />
    <glyph glyph-name="guillemotleft" unicode="&#xab;" 
d="M129 30l-24.002 11.4961c-6 3 -11 5.16699 -15 6.5c-1.33301 0.666992 -2.16602 0.833984 -2.49902 0.500977s-1.16602 -0.166016 -2.49902 0.500977c-3.33301 0.666992 -6.33301 1.66699 -9 3c-4.66699 0.666992 -8.66699 2 -12 4h1
c-2 0.666992 -4.16699 1.33398 -6.5 2.00098s-4.16602 1.33398 -5.49902 2.00098h1c-9.33301 3.33301 -14 7.33301 -14 12c0 5.33301 2.5 9 7.5 11s10.167 3.33301 15.5 4c2 0 3.33301 0.333008 4 1h-1l17 5.5c5.33301 1.66699 11 4 17 7s12.667 6.83301 20 11.5l27 18
l8 -12c-11.333 -10 -23.333 -19 -36 -27s-24.334 -14 -35.001 -18l25.5 -15c9 -5.33301 17.833 -11.333 26.5 -18zM208.998 29.9961l-24.0029 11.4961c-6 3 -11 5.16699 -15 6.5c-1.33301 0.666992 -2.16602 0.833984 -2.49902 0.500977
s-1.16602 -0.166016 -2.49902 0.500977c-3.33301 0.666992 -6.33301 1.66699 -9 3c-4.66699 0.666992 -8.66699 2 -12 4h1c-2 0.666992 -4.16699 1.33398 -6.5 2.00098s-4.16602 1.33398 -5.49902 2.00098h1c-10 2.66699 -15 6.66699 -15 12s2.66699 9 8 11
s10.666 3.33301 15.999 4c2 0 3.33301 0.333008 4 1h-1l17 5.5c5.33301 1.66699 11 4 17 7s12.667 6.83301 20 11.5s16 10.667 26 18l8 -12c-11.333 -10 -23.166 -19 -35.499 -27s-23.833 -14 -34.5 -18l25.5 -15c9 -5.33301 17.833 -11.333 26.5 -18z" />
    <glyph glyph-name="logicalnot" unicode="&#xac;" 
d="M80 98h131l-3 -9l-30 -54l-19 6l24 44h-107z" />
    <glyph glyph-name="registered" unicode="&#xae;" horiz-adv-x="500" 
d="M718 353c-7.33301 0 -12.165 3.5 -14.498 10.5s-3.83301 15.167 -4.5 24.5c-19.333 -11.333 -38.833 -20 -58.5 -26s-39.167 -9 -58.5 -9h-11c-2.66699 0 -5.66699 0.666992 -9 2c-6 -3.33301 -12.5 -5.66602 -19.5 -6.99902s-15.833 -2 -26.5 -2
c-11.333 0 -20.833 3.5 -28.5 10.5s-11.5 17.167 -11.5 30.5c0 29.333 9.66699 61.333 29 96l-20 -10c-6.66699 -3.33301 -13 -6.66602 -19 -9.99902h1c-23.333 -13.333 -43 -31 -59 -53s-24 -47 -24 -75c0 -10 1.5 -18.667 4.5 -26s8.16699 -15 15.5 -23l-9 -12
c-11.333 11.333 -19 21.833 -23 31.5s-6 19.5 -6 29.5c0 29.333 9 56.166 27 80.499s39.333 44.166 64 59.499c7.33301 4 16.166 8.16699 26.499 12.5l32.5 13.5c19.333 28.667 42.833 56.834 70.5 84.501s56.5 52.5 86.5 74.5s59.667 39.667 89 53s55.666 20 78.999 20
c51.333 0 77 -26 77 -78c0 -14.667 -5 -32.5 -15 -53.5s-23.667 -43.167 -41 -66.5s-37.333 -46.333 -60 -69s-47 -42.667 -73 -60c-0.666992 -4 -1.16699 -8.33301 -1.5 -13s-0.5 -8.66699 -0.5 -12c0 -6.66699 -0.333008 -10.334 -1 -11.001
c3.33301 0 9.66602 1.5 18.999 4.5s19.833 6.66699 31.5 11s23.334 9 35.001 14l28.5 12.5v-16c-7.33301 -3.33301 -16.833 -7.33301 -28.5 -12l-35.5 -14c-12 -4.66699 -23.333 -8.66699 -34 -12s-18.667 -5 -24 -5zM832.001 618
c-24.667 -15.333 -47.0049 -30.6641 -67.0049 -45.9971s-36.333 -29.333 -49 -42c4 -5.33301 6.66699 -8.66602 8 -9.99902c18 2 35.5 8.16699 52.5 18.5s32.167 22.166 45.5 35.499s24 27.166 32 41.499s12 26.166 12 35.499c0 23.333 -11.333 35 -34 35
c-16.667 0 -35.167 -4.33301 -55.5 -13s-40.666 -20.167 -60.999 -34.5s-40.166 -30.833 -59.499 -49.5s-36.666 -38.334 -51.999 -59.001c0.666992 0 1.33398 0.166992 2.00098 0.5s1.33398 0.5 2.00098 0.5l27 7c16.667 4.66699 36.667 12 60 22s44 19.667 62 29
c13.333 7.33301 26 14.833 38 22.5l27 17.5l10 -11v0zM735.996 465.002c0 -11.333 -1.33398 -23.668 -4.00098 -37.001c22.667 16.667 44.334 35.334 65.001 56.001s38.5 41.5 53.5 62.5s27 41 36 60s13.5 35.167 13.5 48.5c0 20.667 -4.66699 36.667 -14 48
s-24.333 17 -45 17c-21.333 0 -45.5 -5.83301 -72.5 -17.5s-54.167 -27.167 -81.5 -46.5s-53.666 -41.666 -78.999 -66.999s-47.333 -51.666 -66 -78.999c6 2 11.667 4.16699 17 6.5s11.666 4.5 18.999 6.5c16 22 34.833 43.5 56.5 64.5s44.167 39.667 67.5 56
s46.333 29.666 69 39.999s43 15.5 61 15.5c17.333 0 30.833 -4.5 40.5 -13.5s14.5 -21.167 14.5 -36.5c0 -12 -4.33301 -25.833 -13 -41.5s-20.167 -30.5 -34.5 -44.5s-31 -26.333 -50 -37s-38.833 -17.334 -59.5 -20.001c4 -11.333 6 -25 6 -41zM671.995 526
c0 4 1.66895 7.66504 5.00195 10.998c-6.66699 -2.66699 -13.334 -5 -20.001 -7s-12.667 -3.66699 -18 -5l-46 -12c-12 -19.333 -21.5 -38.333 -28.5 -57s-10.5 -37 -10.5 -55c0 -10.667 1.66699 -18.667 5 -24c14 13.333 28.667 31 44 53
c9.33301 12.667 20.166 26.334 32.499 41.001s26.5 29.334 42.5 44.001c-4 3.33301 -6 7 -6 11zM706.997 504.998c-4 0 -8.66797 0.666016 -14.001 1.99902c-12 -12.667 -22.833 -25.667 -32.5 -39l-28.5 -39l-25 -35.5c-7.33301 -10.333 -15.666 -19.166 -24.999 -26.499
c18.667 0 37.834 3.5 57.501 10.5s39.5 16.5 59.5 28.5l2 15.5c0.666992 5 1.66699 10.167 3 15.5c1.33301 8 2.66602 17 3.99902 27s2 19.667 2 29zM535.996 400.997c0 16 3.16797 33.501 9.50098 52.501s14.166 37.167 23.499 54.5
c-11.333 -2.66699 -24 -7.33398 -38 -14.001c-11.333 -18 -20.166 -36 -26.499 -54s-9.5 -36 -9.5 -54c0 -9.33301 2.16699 -16.166 6.5 -20.499s9.16602 -6.5 14.499 -6.5c11.333 0 21.333 2.66699 30 8c-6.66699 7.33301 -10 18.666 -10 33.999zM692.997 541.998
c4 0 8.00195 -0.999023 12.002 -2.99902l11 11c1.33301 1.33301 1.66602 1.83301 0.999023 1.5s-1.33398 -0.833008 -2.00098 -1.5c1.33301 1.33301 3 2.66602 5 3.99902l-14 -6c-4.66699 -2 -9.66699 -4 -15 -6h2v0zM692.999 529.999c-0.666992 0 -1 -0.666992 -1 -2l1 1v1
v0z" />
    <glyph glyph-name="degree" unicode="&#xb0;" horiz-adv-x="100" 
d="M63 208c0 10 2.33203 18.667 6.99902 26s10.834 13.5 18.501 18.5s16 8.66699 25 11s17.5 3.5 25.5 3.5c6.66699 0 11.667 -1.66699 15 -5s5 -7.66602 5 -12.999c0 -6 -2 -12.333 -6 -19s-9.33301 -12.834 -16 -18.501s-14.167 -10.5 -22.5 -14.5s-16.833 -6 -25.5 -6
c-17.333 0 -26 5.66699 -26 17zM82.999 209c0 -4 2.33301 -5.99902 7 -5.99902c6 0 12.167 1.66699 18.5 5s11.833 7.33301 16.5 12s8.5 9.5 11.5 14.5s4.5 9.5 4.5 13.5c0 5.33301 -1.66699 8 -5 8c-5.33301 0 -11 -1.33301 -17 -4s-11.667 -6.33398 -17 -11.001
s-9.83301 -9.66699 -13.5 -15s-5.5 -11 -5.5 -17z" />
    <glyph glyph-name="plusminus" unicode="&#xb1;" 
d="M80 98h56l14 25.5l14 25.5l19 -6l-26 -45h54l-4 -13h-58l-13.5 -25l-13.5 -25l-19 6l24 44h-51zM55 29h131l-4 -14h-131z" />
    <glyph glyph-name="paragraph" unicode="&#xb6;" horiz-adv-x="710" 
d="M824 661c-36.667 0 -71.3301 -6.5 -103.997 -19.5s-61.334 -30.5 -86.001 -52.5s-44.334 -47.833 -59.001 -77.5s-22 -61.5 -22 -95.5c0 -20.667 3.66699 -38 11 -52s17.333 -25.167 30 -33.5s27.167 -14.333 43.5 -18s33.5 -5.5 51.5 -5.5c5.33301 0 11 0.166992 17 0.5
s12 0.833008 18 1.5c36 33.333 79.333 71 130 113s107.667 83.667 171 125l10 -11c-30 -19.333 -58.833 -39 -86.5 -59s-53.667 -39.833 -78 -59.5l-67 -56.5c-20.333 -18 -37.833 -34.333 -52.5 -49c22 4 43.167 9.66699 63.5 17s37.166 15.666 50.499 24.999l7 -12
c-15.333 -9.33301 -34.666 -18.166 -57.999 -26.499s-49 -14.5 -77 -18.5l-2 -2c-42 -44.667 -82.5 -85.167 -121.5 -121.5s-78.833 -67.5 -119.5 -93.5s-83.334 -46.167 -128.001 -60.5s-93.667 -21.5 -147 -21.5c-29.333 0 -56.666 2 -81.999 6s-47.5 9.5 -66.5 16.5
s-34 15 -45 24s-16.5 18.833 -16.5 29.5c0 8.66699 5.33301 13 16 13c6.66699 0 12.167 -1.83301 16.5 -5.5s9.16602 -8.5 14.499 -14.5l12 -13.5c4 -4.33301 9 -8.16602 15 -11.499c12 -7.33301 22.833 -13 32.5 -17s19.834 -7 30.501 -9s22.5 -3.16699 35.5 -3.5
s29.167 -0.5 48.5 -0.5c42 0 82.667 7.5 122 22.5s78.333 35.333 117 61s77.667 55.5 117 89.5l122 109h-21c-23.333 0 -46 2.33301 -68 7s-41.5 12 -58.5 22s-30.5 23.167 -40.5 39.5s-15 36.166 -15 59.499c0 34.667 8.33301 67.5 25 98.5s39.334 57.833 68.001 80.5
s62.334 40.667 101.001 54s80 20 124 20c33.333 0 65.166 -1.33301 95.499 -4l87.5 -8l62 -5.5c19.333 -1.66699 37.666 -2.5 54.999 -2.5c27.333 0 52.666 5.33301 75.999 16s46.333 24.667 69 42l10 -9c-23.333 -20 -48.333 -37.167 -75 -51.5s-56.667 -21.5 -90 -21.5
c-23.333 0 -45.833 1.5 -67.5 4.5l-65.5 9.5c-24 4 -48.5 7.66699 -73.5 11s-52.5 5 -82.5 5z" />
    <glyph glyph-name="periodcentered" unicode="&#xb7;" horiz-adv-x="150" 
d="M28 133c0 8.66699 2.83203 16.001 8.49902 22.001s12.834 9 21.501 9c6 0 11 -2 15 -6s6 -8.66699 6 -14c0 -8.66699 -3 -15.667 -9 -21s-13 -8 -21 -8c-6 0 -11 1.66699 -15 5s-6 7.66602 -6 12.999z" />
    <glyph glyph-name="guillemotright" unicode="&#xbb;" 
d="M146 129l24.0039 -11.4941c6 -3 11 -5.16699 15 -6.5c1.33301 -0.666992 2.16602 -1 2.49902 -1s1.16602 -0.333008 2.49902 -1c3.33301 -0.666992 6.33301 -1.33398 9 -2.00098s5 -1.33398 7 -2.00098s3.66699 -1.33398 5 -2.00098h-1
c2 -0.666992 4.16699 -1.33398 6.5 -2.00098s4.16602 -1.33398 5.49902 -2.00098h-1c9.33301 -3.33301 14 -7.33301 14 -12s-2.5 -8 -7.5 -10s-10.167 -3.66699 -15.5 -5c-1.33301 0 -2.33301 -0.166992 -3 -0.5s-1.33398 -0.5 -2.00098 -0.5h2
c-12 -3.33301 -23.333 -7.5 -34 -12.5s-26.334 -14.833 -47.001 -29.5l-8 12c11.333 9.33301 23.5 18.166 36.5 26.499s24.5 14.5 34.5 18.5c-17.333 8.66699 -34.666 19.667 -51.999 33zM66.0039 129.006l24.002 -11.4941c6 -3 11 -5.16699 15 -6.5
c1.33301 -0.666992 2.16602 -1 2.49902 -1s1.16602 -0.333008 2.49902 -1c3.33301 -0.666992 6.33301 -1.33398 9 -2.00098s5 -1.33398 7 -2.00098s3.66699 -1.33398 5 -2.00098h-1c2 -0.666992 4.16699 -1.33398 6.5 -2.00098s4.16602 -1.33398 5.49902 -2.00098h-1
c10 -3.33301 15 -7.33301 15 -12s-2.66699 -8 -8 -10s-10.666 -3.66699 -15.999 -5c-1.33301 0 -2.33301 -0.166992 -3 -0.5s-1.33398 -0.5 -2.00098 -0.5h2l-17 -5.5c-5.33301 -1.66699 -11 -4 -17 -7s-12.667 -6.83301 -20 -11.5s-16 -10.667 -26 -18l-8 12
c10.667 9.33301 22.5 18.166 35.5 26.499s24.5 14.5 34.5 18.5c-17.333 8.66699 -34.666 19.667 -51.999 33z" />
    <glyph glyph-name="afii10023" unicode="&#x401;" horiz-adv-x="875" 
d="M775 480c9.33301 0 17.833 0.168945 25.5 0.501953s16.167 0.833008 25.5 1.5c10.667 25.333 30 51.666 58 78.999s61 52.166 99 74.499s78.5 40.833 121.5 55.5s84.833 22 125.5 22c10 0 18.5 -2.33301 25.5 -7s10.5 -10.334 10.5 -17.001
c0 -16.667 -11.5 -36.334 -34.5 -59.001s-53.833 -45 -92.5 -67s-83.5 -41.667 -134.5 -59s-104.167 -29 -159.5 -35c-2.66699 -6.66699 -4 -12.334 -4 -17.001v-6c42 -1.33301 72.5 -5.16602 91.5 -11.499s28.5 -14.166 28.5 -23.499c0 -7.33301 -4.5 -13.833 -13.5 -19.5
s-20.167 -8.5 -33.5 -8.5c-20.667 0 -39.334 4.83301 -56.001 14.5s-28 21.5 -34 35.5c-44.667 0 -88 -5.33301 -130 -16s-81.667 -25.334 -119 -44.001s-71.666 -40.167 -102.999 -64.5s-58.166 -50.5 -80.499 -78.5s-39.833 -57 -52.5 -87s-19 -59.333 -19 -88
c0 -15.333 5.16699 -30.666 15.5 -45.999s26.5 -26.666 48.5 -33.999c5.33301 28 16 57 32 87s35.667 59.167 59 87.5s49.666 55 78.999 80s60 47 92 66s64.667 34 98 45s66 16.5 98 16.5c23.333 0 41.333 -6.16699 54 -18.5s19 -29.5 19 -51.5s-6.33301 -45.5 -19 -70.5
s-30.167 -50 -52.5 -75s-48.666 -49 -78.999 -72s-63 -43.333 -98 -61s-71.667 -31.667 -110 -42s-76.833 -15.5 -115.5 -15.5c-8 0 -15.167 0.333008 -21.5 1s-12.833 1.66699 -19.5 3c-0.666992 -3.33301 -1 -6.5 -1 -9.5v-9.5c0 -30.667 8.66699 -59.334 26 -86.001
s46 -49.667 86 -69l-7 -13c-24 11.333 -44 23.833 -60 37.5s-28.833 28 -38.5 43s-16.334 30 -20.001 45s-5.5 29.5 -5.5 43.5v11c0 4 0.333008 7.66699 1 11c-31.333 9.33301 -54.166 25 -68.499 47s-21.5 49.667 -21.5 83c0 43.333 13.5 86.333 40.5 129
s64.333 80.834 112 114.501s103.667 61 168 82s134.166 31.5 209.499 31.5v5v8c0 2.66699 0.333008 5.33398 1 8.00098c-8 -0.666992 -16 -1 -24 -1h-24c-68.667 0 -126.834 1.83301 -174.501 5.5s-89.167 7.16699 -124.5 10.5l-58.5 5.5
c-17.667 1.66699 -34.167 2.5 -49.5 2.5c-70.667 0 -134.834 -8.83301 -192.501 -26.5s-108.5 -49.834 -152.5 -96.501l-13 9c40.667 46.667 90.334 79.667 149.001 99s128.334 29 209.001 29c16 0 33.167 -0.833008 51.5 -2.5l60.5 -5.5
c34.667 -3.33301 75.667 -6.83301 123 -10.5s105 -5.5 173 -5.5zM845 343.002c-29.333 0 -59.832 -5.49805 -91.499 -16.498s-62.834 -25.833 -93.501 -44.5s-60.167 -40.5 -88.5 -65.5s-54 -51.333 -77 -79s-42.667 -55.834 -59 -84.501s-27.5 -56.334 -33.5 -83.001
c5.33301 -1.33301 11.5 -2.33301 18.5 -3s13.833 -1 20.5 -1c36 0 72.167 5 108.5 15s71.333 23.5 105 40.5s65.167 36.5 94.5 58.5s54.833 44.833 76.5 68.5s38.667 47.5 51 71.5s18.5 46.667 18.5 68c0 17.333 -5 30.833 -15 40.5s-21.667 14.5 -35 14.5zM1229 702.004
c-30.667 0 -65.167 -7.33301 -103.5 -22s-75.833 -32.834 -112.5 -54.501s-69.667 -45.167 -99 -70.5s-50.333 -48.666 -63 -69.999c52.667 6 102.834 17.333 150.501 34s89.667 35 126 55s65.166 40.333 86.499 61s32 38 32 52c0 4 -1.5 7.5 -4.5 10.5
s-7.16699 4.5 -12.5 4.5zM938.001 411.004c0 5.33301 -6.66797 10.168 -20.001 14.501s-37 6.83301 -71 7.5c5.33301 -10.667 14 -19.334 26 -26.001s25.667 -10 41 -10c6.66699 0 12.334 1.33301 17.001 4s7 6 7 10zM1272 784.006c0 5.33301 2.49902 9.66699 7.49902 13
s10.167 5 15.5 5s10 -1.66699 14 -5s6 -7 6 -11c0 -5.33301 -2.66699 -9.83301 -8 -13.5s-10.666 -5.5 -15.999 -5.5s-9.83301 1.66699 -13.5 5s-5.5 7.33301 -5.5 12zM1202 784.007c0 5.33301 2.66699 9.66699 8 13s10.666 5 15.999 5s10 -1.66699 14 -5s6 -7 6 -11
c0 -5.33301 -2.66699 -9.83301 -8 -13.5s-10.666 -5.5 -15.999 -5.5s-10 1.66699 -14 5s-6 7.33301 -6 12z" />
    <glyph glyph-name="afii10051" unicode="&#x402;" horiz-adv-x="1250" 
d="M1250 70l-46 -21l-41 -19l-64 -29.5c-20 -9 -40.667 -18.833 -62 -29.5c-1.33301 -1.33301 -3.16602 -2.33301 -5.49902 -3s-4.16602 -1.33398 -5.49902 -2.00098c-26.667 -32 -54.334 -62.833 -83.001 -92.5s-56.667 -55.667 -84 -78s-52.666 -40.333 -75.999 -54
s-43 -20.5 -59 -20.5c-9.33301 0 -15.666 2.16699 -18.999 6.5s-5 10.166 -5 17.499c0 16 7.83301 32.667 23.5 50s37 35.5 64 54.5s58.5 38.5 94.5 58.5s74.333 40 115 60c24 30 47.167 61.333 69.5 94s42.166 64.667 59.499 96s31.166 60.833 41.499 88.5
s15.5 51.5 15.5 71.5c0 12 -2.5 21.833 -7.5 29.5s-12.167 11.5 -21.5 11.5c-8 0 -16.667 -1.33301 -26 -4s-19.666 -7.66699 -30.999 -15s-24.333 -17.5 -39 -30.5s-31 -29.5 -49 -49.5c-38 -42.667 -80.833 -84.667 -128.5 -126s-101 -78.166 -160 -110.499
s-124 -58.5 -195 -78.5s-148.5 -30 -232.5 -30c-34.667 0 -68.834 2.66699 -102.501 8s-63.834 12 -90.501 20s-48.334 16.333 -65.001 25s-25 16.334 -25 23.001c0 2.66699 1.66699 4.83398 5 6.50098s6.66602 2.5 9.99902 2.5c7.33301 0 14 -1.5 20 -4.5
s13 -7.16699 21 -12.5c10 -6.66699 22.5 -13.834 37.5 -21.501s31.833 -13.834 50.5 -18.501c17.333 -4 37.333 -7.33301 60 -10s48.667 -4 78 -4c84.667 0 160.167 9.66699 226.5 29s126.333 45.166 180 77.499s102.167 69.166 145.5 110.499s84 84 122 128l85 94
c31.333 34 64.5 67.5 99.5 100.5s71.333 63.667 109 92s75.834 51.5 114.501 69.5l10 -11c-30.667 -14 -59.5 -31 -86.5 -51s-53 -41.833 -78 -65.5s-48.833 -48.334 -71.5 -74.001l-67 -77.5c13.333 8.66699 26 14.5 38 17.5s23.667 4.5 35 4.5
c17.333 0 31.333 -5.83301 42 -17.5s16 -27.167 16 -46.5c0 -18.667 -4.16699 -40.167 -12.5 -64.5s-19.833 -50.166 -34.5 -77.499s-32.167 -55.833 -52.5 -85.5s-42.166 -59.167 -65.499 -88.5l52 24l54 25l43 19c15.333 6.66699 32 14.334 50 23.001c8 0 12 -2 12 -6
c0 -1.33301 -0.5 -2.66602 -1.5 -3.99902s-3.16699 -2.66602 -6.5 -3.99902zM666 301c0 54.667 13.6699 106.334 41.0029 155.001s64.666 91 111.999 127s102.666 64.5 165.999 85.5s131 31.5 203 31.5c34 0 66.833 -2.83301 98.5 -8.5s62.167 -11.5 91.5 -17.5
c23.333 -5.33301 45 -9.83301 65 -13.5s38.333 -5.5 55 -5.5c27.333 0 52.666 5.33301 75.999 16s46.333 24.667 69 42l10 -9c-23.333 -20 -48.333 -37.167 -75 -51.5s-56.667 -21.5 -90 -21.5c-23.333 0 -46.333 2.66699 -69 8s-45.667 11.333 -69 18
c-25.333 7.33301 -51 14 -77 20s-54 9 -84 9c-69.333 0 -134.5 -10 -195.5 -30s-114.333 -47.5 -160 -82.5s-81.667 -75.833 -108 -122.5s-39.5 -96.334 -39.5 -149.001c0 -14 2.16699 -30.833 6.5 -50.5s9.5 -37.167 15.5 -52.5l-17 -9
c-6.66699 17.333 -12.5 36.333 -17.5 57s-7.5 38.667 -7.5 54zM726.003 -265c12 0 27.335 5.5 46.002 16.5s39.167 25.833 61.5 44.5s45.666 40.667 69.999 66s48.5 52 72.5 80c-34.667 -17.333 -67.334 -35 -98.001 -53s-57.667 -35.5 -81 -52.5
s-41.833 -33.167 -55.5 -48.5s-20.5 -29.333 -20.5 -42c0 -7.33301 1.66699 -11 5 -11z" />
    <glyph glyph-name="afii10052" unicode="&#x403;" horiz-adv-x="1075" 
d="M293 -85c-34.667 0 -68.832 2.6709 -102.499 8.00391s-63.834 12 -90.501 20s-48.334 16.333 -65.001 25s-25 16.334 -25 23.001c0 2.66699 1.66699 4.83398 5 6.50098s6.66602 2.5 9.99902 2.5c7.33301 0 14 -1.5 20 -4.5s13 -7.16699 21 -12.5
c10 -6.66699 22.5 -13.834 37.5 -21.501s31.833 -13.834 50.5 -18.501c17.333 -4 37.333 -7.33301 60 -10s48.667 -4 78 -4c84.667 0 160.167 9.66699 226.5 29s126.333 45.166 180 77.499s102.167 69.166 145.5 110.499s84 84 122 128l85 94
c31.333 34 64.5 67.5 99.5 100.5s71.333 63.667 109 92s75.834 51.5 114.501 69.5l10 -11c-34 -15.333 -66 -34.333 -96 -57s-58.5 -47.334 -85.5 -74.001s-52.833 -54.834 -77.5 -84.501l-72 -88.5l-22 -27l-22 -26c-36.667 -44 -78.667 -86.833 -126 -128.5
s-100.5 -78.667 -159.5 -111s-124.167 -58.333 -195.5 -78s-149.666 -29.5 -234.999 -29.5zM666.002 301.004c0 54.667 13.6699 106.334 41.0029 155.001s64.666 91 111.999 127s102.666 64.5 165.999 85.5s131 31.5 203 31.5c34 0 66.833 -2.83301 98.5 -8.5
s62.167 -11.5 91.5 -17.5c23.333 -5.33301 45 -9.83301 65 -13.5s38.333 -5.5 55 -5.5c27.333 0 52.666 5.33301 75.999 16s46.333 24.667 69 42l10 -9c-23.333 -20 -48.333 -37.167 -75 -51.5s-56.667 -21.5 -90 -21.5c-23.333 0 -46.333 2.66699 -69 8
s-45.667 11.333 -69 18c-25.333 7.33301 -51 14 -77 20s-54 9 -84 9c-69.333 0 -134.5 -10 -195.5 -30s-114.333 -47.5 -160 -82.5s-81.667 -75.833 -108 -122.5s-39.5 -96.334 -39.5 -149.001c0 -14 2.16699 -30.833 6.5 -50.5s9.5 -37.167 15.5 -52.5l-17 -9
c-6.66699 17.333 -12.5 36.333 -17.5 57s-7.5 38.667 -7.5 54zM1480 765.004c24 19.333 41 38.333 51 57c5.33301 11.333 13 17 23 17s15 -4.33301 15 -13c0 -7.33301 -7.33301 -17.5 -22 -30.5s-34.667 -27.5 -60 -43.5z" />
    <glyph glyph-name="afii10053" unicode="&#x404;" horiz-adv-x="975" 
d="M975 70l-28.0068 -13.502c-9.33301 -4.33301 -18.333 -9.16602 -27 -14.499l-67 -33.5c-22 -11 -44 -20.833 -66 -29.5s-44.167 -15.5 -66.5 -20.5s-45.166 -7.5 -68.499 -7.5c-72 0 -108 38.667 -108 116c0 42 12.5 85.5 37.5 130.5s58.5 89.833 100.5 134.5
c-11.333 -1.33301 -22.333 -2.33301 -33 -3s-21.667 -1 -33 -1c-25.333 0 -49 0.333008 -71 1s-43 1.66699 -63 3c-17.333 1.33301 -33.666 2.33301 -48.999 3s-30.666 1 -45.999 1c-38.667 0 -75.167 -2 -109.5 -6s-66.666 -12.167 -96.999 -24.5
s-58.666 -29.833 -84.999 -52.5s-50.5 -52.667 -72.5 -90l-14 12c22 37.333 46.333 67.5 73 90.5s55.667 40.667 87 53s65.166 20.666 101.499 24.999s75.5 6.5 117.5 6.5c15.333 0 32.333 -0.333008 51 -1s37.667 -1.66699 57 -3c20.667 -1.33301 41.167 -2.33301 61.5 -3
s39.833 -1 58.5 -1c12.667 0 25.834 0.5 39.501 1.5s27.834 2.83301 42.501 5.5c31.333 32 65.666 63.333 102.999 94s75.166 59.5 113.499 86.5s76.5 51.667 114.5 74s73.333 41.666 106 57.999s61.667 29 87 38s45.333 13.5 60 13.5c9.33301 0 16.166 -2 20.499 -6
s6.5 -9 6.5 -15c0 -10.667 -7.83301 -25 -23.5 -43s-37.167 -38 -64.5 -60s-59.166 -45.167 -95.499 -69.5s-75.5 -47.666 -117.5 -69.999s-85.333 -42.833 -130 -61.5s-88.667 -33.334 -132 -44.001l-25 -25.5l-24 -25.5c26.667 10 49.334 15 68.001 15
c15.333 0 29 -2.16699 41 -6.5s22.667 -9.16602 32 -14.499c10 -5.33301 20 -10.166 30 -14.499s21.667 -6.5 35 -6.5c18.667 0 44.667 7.66699 78 23l6 -11c-19.333 -12 -36.666 -20.333 -51.999 -25s-29.333 -7 -42 -7c-13.333 0 -25.333 2 -36 6s-21 8.33301 -31 13
c-11.333 5.33301 -23 10.5 -35 15.5s-25.667 7.5 -41 7.5c-9.33301 0 -20 -1.16699 -32 -3.5s-25.667 -6.83301 -41 -13.5c-31.333 -37.333 -57.666 -75.333 -78.999 -114s-32 -73.334 -32 -104.001c0 -26 6.66699 -47.167 20 -63.5s35 -24.5 65 -24.5
c22.667 0 45 2.66699 67 8s44.167 12.333 66.5 21s44.833 18.5 67.5 29.5l69 34.5l24.5 13l25.5 13c8 0 12 -2 12 -6c0 -1.33301 -0.5 -2.66602 -1.5 -3.99902s-3.16699 -2.66602 -6.5 -3.99902zM1280.99 698.998c-18.667 0 -47.334 -8.99805 -86.001 -26.998
s-82 -42.333 -130 -73s-98.333 -66.167 -151 -106.5s-102 -82.5 -148 -126.5c41.333 12 83 27 125 45s82.333 37.667 121 59s74.834 43.166 108.501 65.499s63 43.666 88 63.999s44.667 38.5 59 54.5s21.5 28.333 21.5 37c0 5.33301 -2.66699 8 -8 8z" />
    <glyph glyph-name="afii10054" unicode="&#x405;" horiz-adv-x="1000" 
d="M409 320c32.667 12 66.9961 21.665 102.996 28.998s73.333 13.166 112 17.499s78 7.5 118 9.5l121 6c40.667 1.33301 80.5 3 119.5 5s77.5 5.33301 115.5 10c30.667 41.333 64.334 81.166 101.001 119.499s73.834 72.166 111.501 101.499s74.834 52.666 111.501 69.999
s70.334 26 101.001 26c10 0 17.667 -2.33301 23 -7s8 -10.667 8 -18c0 -17.333 -9.83301 -40.5 -29.5 -69.5s-48.334 -58.833 -86.001 -89.5s-83.834 -59.5 -138.501 -86.5s-117.334 -46.5 -188.001 -58.5l-5 -7.5l-5 -7.5c-3.33301 -5.33301 -6.66602 -10.333 -9.99902 -15
s-6.66602 -9.66699 -9.99902 -15c-41.333 -64.667 -89.166 -123.667 -143.499 -177s-116.166 -99 -185.499 -137s-146.833 -67.5 -232.5 -88.5s-180.167 -31.5 -283.5 -31.5c-30 0 -58.667 2 -86 6s-51.5 9.16699 -72.5 15.5s-37.667 13.333 -50 21
s-18.5 14.834 -18.5 21.501c0 4 1.66699 7.33301 5 10s7.66602 4 12.999 4c4.66699 0 8.16699 -0.833008 10.5 -2.5s5.16602 -4.16699 8.49902 -7.5c6.66699 -5.33301 16.167 -12.166 28.5 -20.499s30.166 -15.5 53.499 -21.5c16.667 -4 36.167 -7.33301 58.5 -10
s49.166 -4 80.499 -4c58.667 0 116.5 6.66699 173.5 20s111.667 31.166 164 53.499s102 48 149 77s90.333 59.5 130 91.5s74.667 64.167 105 96.5s55.5 62.833 75.5 91.5l11 16.5c3.33301 5 7.33301 10.5 12 16.5c-33.333 -3.33301 -67.666 -5.66602 -102.999 -6.99902
l-107 -4c-40 -1.33301 -80.333 -3.16602 -121 -5.49902s-80.834 -5.66602 -120.501 -9.99902s-78.167 -10.333 -115.5 -18s-72.666 -17.5 -105.999 -29.5c-32.667 -13.333 -64.167 -29.5 -94.5 -48.5s-58.666 -41.333 -84.999 -67s-49.833 -55.167 -70.5 -88.5
s-37.667 -70.333 -51 -111l-16 9c14 42.667 31.167 80.834 51.5 114.501s43.833 63.334 70.5 89.001s55.834 48 87.501 67s65.5 35.167 101.5 48.5zM1520 700.998c-26.667 0 -56.668 -7.99902 -90.001 -23.999s-67.666 -37.5 -102.999 -64.5s-70.5 -58.833 -105.5 -95.5
s-67.5 -75.334 -97.5 -116.001c66 12 124.5 31 175.5 57s94 53.5 129 82.5s61.5 56.833 79.5 83.5s27 47 27 61c0 10.667 -5 16 -15 16z" />
    <glyph glyph-name="afii10055" unicode="&#x406;" horiz-adv-x="950" 
d="M281 -38c89.333 0 175.999 11.5059 259.999 34.5059s163.333 63.833 238 122.5c-1.33301 7.33301 -2.16602 15.166 -2.49902 23.499s-0.5 16.5 -0.5 24.5c0 56.667 15.833 114 47.5 172s77.334 112.167 137.001 162.5s132.334 95 218.001 134s182.5 67.833 290.5 86.5
l1 -10c-72.667 -20.667 -121.334 -38.667 -146.001 -54c-35.333 -22 -68.333 -46.833 -99 -74.5s-59.834 -56.834 -87.501 -87.501s-53.667 -62.334 -78 -95.001l-70.5 -96l-25.5 -35l-25.5 -34c-20.667 -28 -42.5 -53.667 -65.5 -77s-46.167 -44 -69.5 -62
c6 -24 14.833 -48.333 26.5 -73s24.834 -46.667 39.501 -66l-13 -12c-15.333 21.333 -29 43.5 -41 66.5s-21.333 47.167 -28 72.5c-36.667 -26.667 -75 -48.834 -115 -66.501s-81.167 -31.667 -123.5 -42s-86 -17.666 -131 -21.999s-90.833 -6.5 -137.5 -6.5
c-44.667 0 -83.834 2.16699 -117.501 6.5s-61.834 9.66602 -84.501 15.999s-39.834 12.833 -51.501 19.5s-17.5 12.667 -17.5 18c0 9.33301 5.33301 14 16 14c5.33301 0 13.666 -3.33301 24.999 -10c8.66699 -5.33301 19.334 -11.5 32.001 -18.5s26.667 -12.5 42 -16.5
c6.66699 -2 15.834 -3.83301 27.501 -5.5s24.667 -3.33398 39 -5.00098s29.333 -2.83398 45 -3.50098s30.834 -1 45.501 -1zM795.999 167.006l0.00195312 -16.501c0 -5 0.333008 -10.5 1 -16.5c38 33.333 76 74 114 122l88 114.5
c29.333 37.667 59.666 73.834 90.999 108.501s64.166 67.667 98.499 99s71.5 60 111.5 86c-39.333 -11.333 -79 -26 -119 -44s-78.667 -38.833 -116 -62.5s-72.333 -50 -105 -79s-61.167 -60 -85.5 -93s-43.5 -67.833 -57.5 -104.5s-21 -74.667 -21 -114z" />
    <glyph glyph-name="afii10056" unicode="&#x407;" horiz-adv-x="950" 
d="M281 -38c89.333 0 175.999 11.5059 259.999 34.5059s163.333 63.833 238 122.5c-1.33301 7.33301 -2.16602 15.166 -2.49902 23.499s-0.5 16.5 -0.5 24.5c0 56.667 15.833 114 47.5 172s77.334 112.167 137.001 162.5s132.334 95 218.001 134s182.5 67.833 290.5 86.5
l1 -10c-72.667 -20.667 -121.334 -38.667 -146.001 -54c-35.333 -22 -68.333 -46.833 -99 -74.5s-59.834 -56.834 -87.501 -87.501s-53.667 -62.334 -78 -95.001l-70.5 -96l-25.5 -35l-25.5 -34c-20.667 -28 -42.5 -53.667 -65.5 -77s-46.167 -44 -69.5 -62
c6 -24 14.833 -48.333 26.5 -73s24.834 -46.667 39.501 -66l-13 -12c-15.333 21.333 -29 43.5 -41 66.5s-21.333 47.167 -28 72.5c-36.667 -26.667 -75 -48.834 -115 -66.501s-81.167 -31.667 -123.5 -42s-86 -17.666 -131 -21.999s-90.833 -6.5 -137.5 -6.5
c-44.667 0 -83.834 2.16699 -117.501 6.5s-61.834 9.66602 -84.501 15.999s-39.834 12.833 -51.501 19.5s-17.5 12.667 -17.5 18c0 9.33301 5.33301 14 16 14c5.33301 0 13.666 -3.33301 24.999 -10c8.66699 -5.33301 19.334 -11.5 32.001 -18.5s26.667 -12.5 42 -16.5
c6.66699 -2 15.834 -3.83301 27.501 -5.5s24.667 -3.33398 39 -5.00098s29.333 -2.83398 45 -3.50098s30.834 -1 45.501 -1zM795.999 167.006l0.00195312 -16.501c0 -5 0.333008 -10.5 1 -16.5c38 33.333 76 74 114 122l88 114.5
c29.333 37.667 59.666 73.834 90.999 108.501s64.166 67.667 98.499 99s71.5 60 111.5 86c-39.333 -11.333 -79 -26 -119 -44s-78.667 -38.833 -116 -62.5s-72.333 -50 -105 -79s-61.167 -60 -85.5 -93s-43.5 -67.833 -57.5 -104.5s-21 -74.667 -21 -114zM1366 784.005
c0 5.33301 2.66699 9.66699 8 13s10.666 5 15.999 5s10 -1.66699 14 -5s6 -7 6 -11c0 -5.33301 -2.66699 -9.83301 -8 -13.5s-10.666 -5.5 -15.999 -5.5s-10 1.66699 -14 5s-6 7.33301 -6 12zM1436 784.006c0 5.33301 2.66699 9.66699 8 13s10.666 5 15.999 5
s10 -1.66699 14 -5s6 -7 6 -11c0 -5.33301 -2.66699 -9.83301 -8 -13.5s-10.666 -5.5 -15.999 -5.5s-10 1.66699 -14 5s-6 7.33301 -6 12z" />
    <glyph glyph-name="afii10057" unicode="&#x408;" horiz-adv-x="650" 
d="M652 70c-14 -6.66699 -29.835 -13.498 -47.502 -20.498s-37.167 -14.167 -58.5 -21.5h1l-10 -10c-3.33301 -3.33301 -7 -6.66602 -11 -9.99902c7.33301 -15.333 14.833 -29.5 22.5 -42.5s16.167 -26.167 25.5 -39.5l-14 -9l-27.5 42.5
c-8.33301 13 -15.166 25.167 -20.499 36.5c-40.667 -37.333 -81.834 -73 -123.501 -107s-82.667 -63.667 -123 -89s-79 -45.5 -116 -60.5s-71.167 -22.5 -102.5 -22.5c-12 0 -20.833 2.66699 -26.5 8s-8.5 11 -8.5 17c0 14 7.33301 29.667 22 47
s34.334 35.166 59.001 53.499s53 36.5 85 54.5s65 34.667 99 50c30 12.667 60.833 24.667 92.5 36l92.5 32c6.66699 2 12.834 4 18.501 6s11.834 4 18.501 6l1 2c-6.66699 20 -10 42.667 -10 68c0 64 19.333 126.167 58 186.5s92 117.5 160 171.5s148 104.167 240 150.5
s191.333 87.166 298 122.499l6 -11c-56 -40.667 -109.667 -83.667 -161 -129s-99.833 -90.833 -145.5 -136.5l-128.5 -134l-109 -119.5l-58.5 -64.5c-17.667 -19.667 -33.834 -36.834 -48.501 -51.501l-30 -30c14.667 5.33301 28.5 10.666 41.5 15.999
s24.833 10.666 35.5 15.999c8 0 12 -2 12 -6c0 -1.33301 -0.5 -2.66602 -1.5 -3.99902s-3.16699 -2.66602 -6.5 -3.99902zM508.998 97.002c0 -20 1.99902 -38.001 5.99902 -54.001l29.5 29l29.5 29c18 18 38 39.167 60 63.5l71 79.5l92 102l105.5 111.5l113.5 111
c38.667 36.333 77.334 69.833 116.001 100.5c-54 -20 -107 -42.5 -159 -67.5s-101.167 -52 -147.5 -81s-88.833 -60 -127.5 -93s-72 -67.333 -100 -103s-49.833 -72.667 -65.5 -111s-23.5 -77.166 -23.5 -116.499zM46.9971 -268.999c27.333 0 58.833 8.49805 94.5 25.498
s72.5 38.667 110.5 65s76 55.666 114 87.999l107 93.5c-30.667 -10.667 -61.667 -22.167 -93 -34.5s-62.333 -25.166 -93 -38.499c-34.667 -15.333 -67.5 -31.5 -98.5 -48.5s-58.167 -33.833 -81.5 -50.5s-41.833 -32.667 -55.5 -48s-20.5 -28.666 -20.5 -39.999
c0 -3.33301 1.33301 -6.16602 4 -8.49902s6.66699 -3.5 12 -3.5z" />
    <glyph glyph-name="afii10058" unicode="&#x409;" horiz-adv-x="1225" 
d="M919 232c-12.667 -15.333 -24.6709 -31.6631 -36.0039 -48.9961s-21.333 -35.333 -30 -54s-15.667 -37.334 -21 -56.001s-8 -37.334 -8 -56.001c0 -10.667 3.5 -19.667 10.5 -27s16.5 -12.333 28.5 -15c0.666992 28.667 5.16699 58.5 13.5 89.5s19.333 61.167 33 90.5
s29.667 57 48 83s37.833 49 58.5 69s41.834 35.667 63.501 47s42.834 17 63.501 17c25.333 0 45.5 -9.66699 60.5 -29s22.5 -45 22.5 -77c0 -24.667 -5.16699 -49.334 -15.5 -74.001s-24.333 -48.334 -42 -71.001s-38.167 -43.834 -61.5 -63.501
s-47.666 -36.667 -72.999 -51s-51.166 -25.833 -77.499 -34.5s-51.166 -13 -74.499 -13c0 -15.333 1.66699 -31.333 5 -48s8.83301 -33 16.5 -49s18 -31 31 -45s29.5 -26 49.5 -36l-7 -12c-23.333 10.667 -42.166 23.667 -56.499 39s-25.833 31.666 -34.5 48.999
s-14.667 34.833 -18 52.5s-5 34.5 -5 50.5c-21.333 3.33301 -38.166 12 -50.499 26s-18.5 30.667 -18.5 50c0 16 2.5 33.333 7.5 52s12 37.5 21 56.5s19.5 37.833 31.5 56.5s24.667 36.334 38 53.001c26 30.667 54.833 62.834 86.5 96.501l96 99l94.5 91.5l82 74
c-56.667 -38 -111.834 -78.333 -165.501 -121l-161.5 -134l-168.5 -140c-56.333 -45.333 -114 -85.5 -173 -120.5s-119.833 -63.167 -182.5 -84.5s-128.667 -32 -198 -32c-26.667 0 -51.667 1.33301 -75 4s-43.833 6.16699 -61.5 10.5s-31.5 9.33301 -41.5 15
s-15 11.834 -15 18.501c0 7.33301 4 11 12 11s18.667 -2.5 32 -7.5s28.333 -11.167 45 -18.5c15.333 -7.33301 31.666 -12.333 48.999 -15s34.666 -4 51.999 -4c64.667 0 128 11 190 33s122.5 50.667 181.5 86s116.667 75.666 173 120.999l165.5 137
c76 64.667 154.5 127.5 235.5 188.5s160.167 114.5 237.5 160.5l12 -12l-124.5 -114l-129.5 -125.5l-121.5 -125c-38.333 -41 -71.5 -78.833 -99.5 -113.5zM1143 359.003c-18.667 0 -38.002 -5.66504 -58.002 -16.998s-39.667 -26.833 -59 -46.5
s-37.5 -42.334 -54.5 -68.001s-32 -52.834 -45 -81.501s-23.5 -57.834 -31.5 -87.501s-12.333 -58.167 -13 -85.5c20.667 0 43 4.5 67 13.5s47.833 20.833 71.5 35.5s46.334 31.834 68.001 51.501s40.834 40.5 57.501 62.5s30 44.333 40 67s15 45 15 67
c0 29.333 -5.33301 51.5 -16 66.5s-24.667 22.5 -42 22.5z" />
    <glyph glyph-name="afii10059" unicode="&#x40a;" horiz-adv-x="1300" 
d="M870 35c0 30 6.99805 61.6689 20.998 95.002s32.333 66 55 98c-18 -4.66699 -35.333 -7 -52 -7c-11.333 0 -21.5 0.833008 -30.5 2.5s-18.167 3.5 -27.5 5.5c-3.33301 1.33301 -6.5 2.33301 -9.5 3s-6.16699 1.33398 -9.5 2.00098
c-38.667 -41.333 -78.834 -79 -120.501 -113s-86.834 -63.167 -135.501 -87.5s-101.167 -43.333 -157.5 -57s-118.166 -20.834 -185.499 -21.501c-5.33301 -14 -9.33301 -28.5 -12 -43.5s-4 -30.167 -4 -45.5c0 -26.667 6.66699 -51.334 20 -74.001l-13 -6
c-9.33301 12 -16.166 24.833 -20.499 38.5s-6.5 26.834 -6.5 39.501c0 31.333 5 61.666 15 90.999c-23.333 0.666992 -46.333 3.66699 -69 9s-42.667 11.333 -60 18s-31.333 13.334 -42 20.001s-16 12 -16 16c0 6.66699 4.66699 10 14 10c5.33301 0 10.5 -1.33301 15.5 -4
s10.833 -6 17.5 -10h-1l14.5 -8.5l15.5 -9.5c16 -8 32.833 -14.5 50.5 -19.5s39.167 -7.83301 64.5 -8.5c12.667 32 30 62 52 90s45.167 53.333 69.5 76s48.166 42.167 71.499 58.5s43 28.833 59 37.5c42.667 21.333 86.334 41.666 131.001 60.999l130 55l50.5 22l46.5 20
c33.333 14.667 63.5 29.667 90.5 45s52.667 31.5 77 48.5s48.5 35.667 72.5 56l78 68.5l25 21.5l27 23.5l12 -12l-71 -63.5c-22 -20.333 -43.5 -41.333 -64.5 -63l-63.5 -68.5c-21.333 -24 -43.666 -51 -66.999 -81l-47 -59c-15.333 -18.667 -31.333 -36.667 -48 -54
c2.66699 -0.666992 5.33398 -1.16699 8.00098 -1.5s5 -0.833008 7 -1.5h-1l28 -6c9.33301 -2 19.666 -3 30.999 -3c7.33301 0 15.5 0.5 24.5 1.5s18.833 3.16699 29.5 6.5c30 38.667 65.5 76.667 106.5 114s84.833 73.333 131.5 108s94.667 67.5 144 98.5
s97.166 59.167 143.499 84.5s89.666 47.5 129.999 66.5s75.166 34.167 104.499 45.5l5 -12c-28 -10.667 -61.167 -25.167 -99.5 -43.5s-79.5 -39.666 -123.5 -63.999s-89.333 -51.333 -136 -81s-92.334 -61.334 -137.001 -95.001s-86.834 -68.834 -126.501 -105.501
s-74.5 -74.167 -104.5 -112.5s-53.667 -77 -71 -116s-26 -77.833 -26 -116.5c0 -10.667 3.5 -19.667 10.5 -27s16.5 -12.333 28.5 -15c0.666992 28.667 5.16699 58.5 13.5 89.5s19.333 61.167 33 90.5s29.667 57 48 83s37.833 49 58.5 69s41.834 35.667 63.501 47
s42.834 17 63.501 17c25.333 0 45.5 -9.66699 60.5 -29s22.5 -45 22.5 -77c0 -37.333 -11.333 -74.166 -34 -110.499s-51.167 -69 -85.5 -98s-71.666 -52.5 -111.999 -70.5s-78.166 -27.333 -113.499 -28c0 -15.333 1.66699 -31.333 5 -48s8.83301 -33 16.5 -49
s18.167 -31 31.5 -45s30 -26 50 -36l-7 -12c-23.333 10.667 -42.333 23.667 -57 39s-26.167 31.666 -34.5 48.999s-14.166 34.833 -17.499 52.5s-5 34.5 -5 50.5c-21.333 3.33301 -38.166 12 -50.499 26s-18.5 30.667 -18.5 50zM460.998 216.002
c-15.333 -8.66699 -34.001 -20.667 -56.001 -36s-44.5 -33.5 -67.5 -54.5s-44.667 -44.833 -65 -71.5s-36.833 -55.334 -49.5 -86.001c58.667 0.666992 114.167 8.33398 166.5 23.001s101.833 34.167 148.5 58.5s90.667 52.833 132 85.5s80.333 67.334 117 104.001h-14
c-13.333 0 -29.166 -2.16699 -47.499 -6.5s-40.5 -12.166 -66.5 -23.499l-2 12c28.667 14 53 23.333 73 28s37.667 7 53 7h10.5c3 0 6.16699 -0.333008 9.5 -1c17.333 17.333 35.833 37.166 55.5 59.499l51.5 60.5l36 43c12.667 15.333 27 31.666 43 48.999
c-25.333 -17.333 -52 -33.5 -80 -48.5s-58 -29.833 -90 -44.5l-53.5 -23l-57.5 -24l-123.5 -52c-42.333 -18 -83.5 -37.667 -123.5 -59zM1219 359.002c-18.667 0 -38.002 -5.66504 -58.002 -16.998s-39.667 -26.833 -59 -46.5s-37.666 -42.334 -54.999 -68.001
s-32.5 -52.834 -45.5 -81.501s-23.5 -57.834 -31.5 -87.501s-12.333 -58.167 -13 -85.5c20.667 0 43 4.5 67 13.5s48 20.833 72 35.5s46.833 31.834 68.5 51.501s40.834 40.5 57.501 62.5s30 44.333 40 67s15 45 15 67c0 29.333 -5.33301 51.5 -16 66.5
s-24.667 22.5 -42 22.5z" />
    <glyph glyph-name="afii10060" unicode="&#x40b;" horiz-adv-x="1250" 
d="M1250 70l-28.998 -14.499l-30 -15.5c-21.333 -11.333 -42.166 -21.666 -62.499 -30.999s-38.5 -14 -54.5 -14c-11.333 0 -19.833 3.33301 -25.5 10s-8.5 15 -8.5 25c0 19.333 7.66699 42.166 23 68.499s32 53.166 50 80.499l48 74.5c14.667 23.667 22 45.167 22 64.5
c0 12 -2.5 21.833 -7.5 29.5s-12.167 11.5 -21.5 11.5c-8 0 -16.667 -1.33301 -26 -4s-19.666 -7.66699 -30.999 -15s-24.333 -17.5 -39 -30.5s-31 -29.5 -49 -49.5c-38 -42.667 -80.833 -84.667 -128.5 -126s-101 -78.166 -160 -110.499s-124 -58.5 -195 -78.5
s-148.5 -30 -232.5 -30c-34.667 0 -68.834 2.66699 -102.501 8s-63.834 12 -90.501 20s-48.334 16.333 -65.001 25s-25 16.334 -25 23.001c0 2.66699 1.66699 4.83398 5 6.50098s6.66602 2.5 9.99902 2.5c7.33301 0 14 -1.5 20 -4.5s13 -7.16699 21 -12.5
c10 -6.66699 22.5 -13.834 37.5 -21.501s31.833 -13.834 50.5 -18.501c17.333 -4 37.333 -7.33301 60 -10s48.667 -4 78 -4c84.667 0 160.167 9.66699 226.5 29s126.333 45.166 180 77.499s102.167 69.166 145.5 110.499s84 84 122 128l85 94
c31.333 34 64.5 67.5 99.5 100.5s71.333 63.667 109 92s75.834 51.5 114.501 69.5l10 -11c-30.667 -14 -59.5 -31 -86.5 -51s-53 -41.833 -78 -65.5s-48.833 -48.334 -71.5 -74.001l-67 -77.5c13.333 8.66699 26 14.5 38 17.5s23.667 4.5 35 4.5
c17.333 0 31.333 -5.83301 42 -17.5s16 -27.167 16 -46.5c0 -10.667 -2.33301 -22.167 -7 -34.5s-10.667 -25.333 -18 -39s-15.666 -27.5 -24.999 -41.5l-28 -42c-16.667 -24 -31.334 -47 -44.001 -69s-19 -41.333 -19 -58c0 -6.66699 0.833008 -11 2.5 -13
s4.16699 -3 7.5 -3c9.33301 0 24.166 4.83301 44.499 14.5s41.833 20.5 64.5 32.5c8.66699 4.66699 18.167 9.5 28.5 14.5l27.5 13.5c8 0 12 -2 12 -6c0 -1.33301 -0.5 -2.66602 -1.5 -3.99902s-3.16699 -2.66602 -6.5 -3.99902zM666.002 301.001
c0 54.667 13.6699 106.334 41.0029 155.001s64.666 91 111.999 127s102.666 64.5 165.999 85.5s131 31.5 203 31.5c34 0 66.833 -2.83301 98.5 -8.5s62.167 -11.5 91.5 -17.5c23.333 -5.33301 45 -9.83301 65 -13.5s38.333 -5.5 55 -5.5c27.333 0 52.666 5.33301 75.999 16
s46.333 24.667 69 42l10 -9c-23.333 -20 -48.333 -37.167 -75 -51.5s-56.667 -21.5 -90 -21.5c-23.333 0 -46.333 2.66699 -69 8s-45.667 11.333 -69 18c-25.333 7.33301 -51 14 -77 20s-54 9 -84 9c-69.333 0 -134.5 -10 -195.5 -30s-114.333 -47.5 -160 -82.5
s-81.667 -75.833 -108 -122.5s-39.5 -96.334 -39.5 -149.001c0 -14 2.16699 -30.833 6.5 -50.5s9.5 -37.167 15.5 -52.5l-17 -9c-6.66699 17.333 -12.5 36.333 -17.5 57s-7.5 38.667 -7.5 54z" />
    <glyph glyph-name="afii10061" unicode="&#x40c;" horiz-adv-x="1125" 
d="M1124 84c6 0 8.99512 -1.99902 8.99512 -5.99902c0 -3.33301 -2.33301 -6 -7 -8l-47.5 -22.5c-19 -9 -38.667 -17.5 -59 -25.5s-40.166 -14.833 -59.499 -20.5s-36 -8.5 -50 -8.5c-12 0 -19.833 6.33301 -23.5 19s-5.5 32.667 -5.5 60c0 15.333 1 31 3 47
s4.66699 31.333 8 46c2.66699 14 5.16699 27.833 7.5 41.5s3.5 27.5 3.5 41.5v12c0 3.33301 -0.666992 7 -2 11c-8 0 -15.667 0.666992 -23 2s-14 3 -20 5c-41.333 -48 -84.166 -91.833 -128.499 -131.5s-92 -73.5 -143 -101.5s-106.667 -49.833 -167 -65.5
s-127.5 -23.834 -201.5 -24.501c-5.33301 -14 -9.33301 -28.5 -12 -43.5s-4 -30.167 -4 -45.5c0 -26.667 6.66699 -51.334 20 -74.001l-13 -6c-9.33301 12 -16.166 24.833 -20.499 38.5s-6.5 26.834 -6.5 39.501c0 31.333 5 61.666 15 90.999
c-23.333 0.666992 -46.333 3.66699 -69 9s-42.667 11.333 -60 18s-31.333 13.334 -42 20.001s-16 12 -16 16c0 6.66699 4.66699 10 14 10c5.33301 0 10.5 -1.33301 15.5 -4s10.833 -6 17.5 -10h-1l14.5 -8.5l15.5 -9.5c16 -8 32.833 -14.5 50.5 -19.5
s39.167 -7.83301 64.5 -8.5c12.667 30 29.834 58.833 51.501 86.5s44.5 53.167 68.5 76.5s47.667 43.666 71 60.999s43.333 30.666 60 39.999l60.5 29l65.5 29.5l65 28l60 24.5l56.5 22.5c19 7.66699 36.167 15.167 51.5 22.5c37.333 16 69.333 31.5 96 46.5
s51.667 30.667 75 47s46.5 34.5 69.5 54.5l78.5 70c7.33301 6 15.5 13.167 24.5 21.5l26.5 23.5l12 -12l-71 -63.5c-22 -20.333 -43.5 -41.333 -64.5 -63l-63.5 -68.5c-21.333 -24 -43.666 -51 -66.999 -81c-3.33301 -3.33301 -6.33301 -7 -9 -11
c-3.33301 -5.33301 -7.33301 -10.666 -12 -15.999l-13 -15c5.33301 -4.66699 10.166 -10.334 14.499 -17.001l11.5 -18c17.333 0.666992 35.5 5 54.5 13s38.667 18.5 59 31.5s41.666 28.167 63.999 45.5l69.5 55l103 78c38.667 28.667 81.334 58 128.001 88
s96.834 59.5 150.501 88.5s110.5 55.833 170.5 80.5l9 -15c-64 -26 -122.667 -53.167 -176 -81.5s-102.333 -57 -147 -86s-85.334 -57.5 -122.001 -85.5l-101 -79c-48 -39.333 -92.667 -72.666 -134 -99.999s-81.666 -43.333 -120.999 -48
c3.33301 -10 6.33301 -21.5 9 -34.5s4 -26.5 4 -40.5c0 -12 -1.16699 -24.333 -3.5 -37s-4.83301 -25.334 -7.5 -38.001c-3.33301 -13.333 -6 -26.666 -8 -39.999s-3 -27.333 -3 -42c0 -9.33301 0.833008 -15.666 2.5 -18.999s3.5 -5 5.5 -5c10.667 0 24.667 2.33301 42 7
s35.333 10.5 54 17.5s37 14.5 55 22.5s33.333 15.333 46 22h2zM460.995 216.001c-15.333 -8.66699 -34 -20.668 -56 -36.001s-44.5 -33.5 -67.5 -54.5s-44.667 -44.833 -65 -71.5s-36.833 -55.334 -49.5 -86.001c64 0.666992 124.833 10.334 182.5 29.001
s112.167 42.834 163.5 72.501s99.5 63.667 144.5 102s86.5 78.166 124.5 119.499c-4.66699 4.66699 -7 9.33398 -7 14.001c0 8.66699 2.33301 16 7 22s13 9 25 9l12 -3c6.66699 7.33301 12.667 14.333 18 21l17 21l35.5 43c12.333 14.667 26.833 31 43.5 49
c-25.333 -17.333 -52 -33.5 -80 -48.5s-58 -29.833 -90 -44.5l-53.5 -23l-57.5 -24l-123.5 -52c-42.333 -18 -83.5 -37.667 -123.5 -59zM1431 765c24.667 20 41.334 39 50.001 57c5.33301 11.333 13 17 23 17s15 -4.33301 15 -13c0 -7.33301 -7.33301 -17.5 -22 -30.5
s-34.334 -27.5 -59.001 -43.5zM868.995 291c8 -3.33301 16.667 -5 26 -5c-4.66699 10 -8.66699 17.667 -12 23zM862.995 322c-6.66699 0 -10 -4.66699 -10 -14l6 6c2 2 4 4.33301 6 7l-2 1v0z" />
    <glyph glyph-name="afii10062" unicode="&#x40e;" horiz-adv-x="675" 
d="M676 70c-28 -14.667 -61.332 -28.8359 -99.999 -42.5029l-123 -41.5c-34 -36 -68.167 -70.167 -102.5 -102.5s-68.5 -60.833 -102.5 -85.5s-67.5 -44.167 -100.5 -58.5s-65.167 -21.5 -96.5 -21.5c-12 0 -22.167 2.66699 -30.5 8s-12.5 11.666 -12.5 18.999
c0 22 8.16699 42.667 24.5 62s38.333 37.5 66 54.5s59.5 33.167 95.5 48.5s74 30 114 44c5.33301 11.333 9.33301 23.666 12 36.999s4.66699 26.333 6 39c-18.667 -9.33301 -35.167 -16.666 -49.5 -21.999s-25.833 -8 -34.5 -8c-3.33301 0 -6.33301 1.5 -9 4.5
s-4 6.5 -4 10.5c0 15.333 6.66699 33 20 53s30.333 41.333 51 64c-9.33301 23.333 -18.666 49.666 -27.999 78.999s-14 61 -14 95c0 34.667 4.83301 68.667 14.5 102s23 64.5 40 93.5s36.833 55.667 59.5 80s47 45.333 73 63s53 31.334 81 41.001s55.667 14.5 83 14.5
c34 0 61.667 -9 83 -27s32 -49.333 32 -94c0 -26.667 -9.5 -55.667 -28.5 -87s-43.333 -63.666 -73 -96.999s-62.5 -66.5 -98.5 -99.5l-105 -93.5l-48.5 -43.5l-43.5 -39.5c4 -10.667 7.66699 -21 11 -31s5.66602 -19.667 6.99902 -29c28 16 60 35.667 96 59l113 76
l118.5 83.5l113 81.5l96 71l67.5 51l11 -13c-78.667 -58.667 -153.834 -123.167 -225.501 -193.5l-210.5 -213.5l-24 -26l-25 -26c38 12 74 24.333 108 37s63.667 25.334 89 38.001c8 0 12 -2 12 -6c0 -1.33301 -0.5 -2.66602 -1.5 -3.99902
s-3.16699 -2.66602 -6.5 -3.99902zM278.001 304.998c0 -29.333 3.83203 -57.1699 11.499 -83.5029s16.167 -50.5 25.5 -72.5c16.667 16.667 36 34.834 58 54.501l62 56.5l94.5 86.5c31.667 29.667 60.334 59.334 86.001 89.001s46.5 58.5 62.5 86.5s24 54.333 24 79
c0 27.333 -8.5 48.5 -25.5 63.5s-39.833 22.5 -68.5 22.5c-26 0 -52 -5 -78 -15s-51.333 -24 -76 -42s-47.667 -39.167 -69 -63.5s-39.833 -50.666 -55.5 -78.999s-28.167 -58 -37.5 -89s-14 -62.167 -14 -93.5zM93 -205.006c44 5.33301 84.5 20.0029 121.5 44.0029
s65.5 56 85.5 96c-37.333 -13.333 -72.333 -26.833 -105 -40.5s-61.5 -28.167 -86.5 -43.5s-44.667 -31.833 -59 -49.5s-21.5 -36.5 -21.5 -56.5c0 -4 2.33301 -7.16699 7 -9.5s10 -3.5 16 -3.5c20 0 42.5 6 67.5 18s52 28.5 81 49.5s59.833 45.833 92.5 74.5l102 93
l-36 -11.5c-11.333 -3.66699 -23.333 -7.83398 -36 -12.501l3 1c-10 -22.667 -23 -43.334 -39 -62.001s-34.5 -34.834 -55.5 -48.501s-43.5 -25 -67.5 -34s-49 -14.833 -75 -17.5l1 11zM346 39.9971c-1.33301 -27.333 -5.99902 -52.999 -13.999 -76.999
c14.667 5.33301 29.167 10.166 43.5 14.499l42.5 13.5l66 64l66 65l41 41.5l35 35.5l35 35l42 41l-80 -55.5l-93.5 -63.5l-96 -62.5c-31.667 -20.333 -60.834 -37.5 -87.501 -51.5zM251.001 17.998c6.66699 0 16.501 2.66797 29.501 8.00098s28.167 12.666 45.5 21.999
c-0.666992 8.66699 -2.33398 18 -5.00098 28s-6 19.667 -10 29c-18 -17.333 -32.333 -33.333 -43 -48s-16 -27 -16 -37c0 -1.33301 -0.333008 -2 -1 -2zM921.002 715.999c2.66699 0 5.16602 -0.833008 7.49902 -2.5s3.5 -3.5 3.5 -5.5s-1 -4.16699 -3 -6.5
s-4 -4.83301 -6 -7.5c-3.33301 -3.33301 -6.16602 -6.5 -8.49902 -9.5s-3.5 -7.16699 -3.5 -12.5c0 -9.33301 3.33301 -14 10 -14c10 0 20.167 3.5 30.5 10.5s23.833 19.167 40.5 36.5l10 -9c-15.333 -18 -29.333 -30.833 -42 -38.5s-25.667 -11.5 -39 -11.5
c-9.33301 0 -16.5 2.5 -21.5 7.5s-7.5 11.167 -7.5 18.5c0 12 3.16699 22.333 9.5 31s12.833 13 19.5 13z" />
    <glyph glyph-name="afii10145" unicode="&#x40f;" horiz-adv-x="650" 
d="M651 70l-47.5 -23.9941c-17.667 -8.66699 -35 -16.667 -52 -24s-33.167 -13.5 -48.5 -18.5s-27.666 -7.5 -36.999 -7.5c-13.333 0 -22.5 3 -27.5 9s-7.5 14.667 -7.5 26c0 18.667 9 42.5 27 71.5s42 59.833 72 92.5c-3.33301 -2.66699 -5.83301 -4.83398 -7.5 -6.50098
s-4.16699 -3.83398 -7.5 -6.50098l-127.5 -105c-39.667 -32 -76.5 -57.667 -110.5 -77c-4 -32 -14 -61.833 -30 -89.5s-36 -52 -60 -73s-51.167 -38.167 -81.5 -51.5s-61.833 -21.666 -94.5 -24.999l-1 14c30 2.66699 58.833 9.83398 86.5 21.501s52.5 26.834 74.5 45.501
s40.5 40.5 55.5 65.5s24.5 52.167 28.5 81.5c-11.333 -5.33301 -21.666 -9.5 -30.999 -12.5s-18.333 -4.5 -27 -4.5c-2.66699 0 -5.33398 0.333008 -8.00098 1c-5.33301 -15.333 -12.333 -25.833 -21 -31.5s-17.667 -10.167 -27 -13.5c-8 -3.33301 -15.667 -7.5 -23 -12.5
s-13.666 -14.5 -18.999 -28.5l-15 2c4.66699 21.333 12.167 35.5 22.5 42.5s20.833 13.167 31.5 18.5c7.33301 3.33301 13.833 6.66602 19.5 9.99902s11.167 9.66602 16.5 18.999c-4.66699 3.33301 -7.66699 7.5 -9 12.5s-2 10.167 -2 15.5c0 15.333 6.66699 33 20 53
s30 40.667 50 62l-14.5 35.5c-5 12.333 -9.5 26 -13.5 41s-7.16699 32 -9.5 51s-3.5 40.5 -3.5 64.5c0 27.333 4.66699 55.666 14 84.999s22.166 58.166 38.499 86.499s35.666 55 57.999 80s46.333 47 72 66s52.334 34.167 80.001 45.5s55.5 17 83.5 17
c37.333 0 65.666 -11.333 84.999 -34s29 -53 29 -91c0 -30.667 -9.5 -62.334 -28.5 -95.001s-43.333 -65.5 -73 -98.5s-62.334 -65.667 -98.001 -98l-104.5 -91.5l-47 -39.5l-42 -36.5c5.33301 -12.667 9.83301 -26.167 13.5 -40.5s5.5 -30.5 5.5 -48.5v-4
c28 17.333 59.167 40 93.5 68l111.5 93l99.5 83c34.333 28.667 69.166 56 104.499 82s71 50.167 107 72.5s71.667 41.166 107 56.499l5 -12c-70 -40 -132.5 -81.833 -187.5 -125.5s-101.5 -85.334 -139.5 -125.001s-67 -75.334 -87 -107.001s-30 -55.834 -30 -72.501
c0 -8 0.833008 -13.333 2.5 -16s4.16699 -4 7.5 -4c6 0 15.833 2.5 29.5 7.5s28.834 11.167 45.501 18.5s33.834 15.333 51.501 24l48.5 24c8 0 12 -2 12 -6c0 -1.33301 -0.5 -2.66602 -1.5 -3.99902s-3.16699 -2.66602 -6.5 -3.99902zM211 316.006
c0 -22.667 1 -42.6709 3 -60.0039s4.66699 -33.166 8 -47.499s7.16602 -27.166 11.499 -38.499s8.83301 -22.333 13.5 -33l63 60.5l70 63.5l90 81c30 27.333 57 54.333 81 81s43.5 52.334 58.5 77.001s22.5 47.334 22.5 68.001c0 36 -8 63.667 -24 83s-40 29 -72 29
c-38 0 -76.167 -11.833 -114.5 -35.5s-73.166 -53.5 -104.499 -89.5s-56.833 -75.333 -76.5 -118s-29.5 -83 -29.5 -121zM200 -13.998c14.667 0 33.668 6.33105 57.001 18.998c0.666992 2 1 4.5 1 7.5v8.5c0 14 -1.5 27.333 -4.5 40s-6.5 24.334 -10.5 35.001
c-18.667 -17.333 -33.334 -33.166 -44.001 -47.499s-16 -26.833 -16 -37.5c0 -7.33301 1.16699 -13.333 3.5 -18s6.83301 -7 13.5 -7z" />
    <glyph glyph-name="afii10017" unicode="&#x410;" horiz-adv-x="975" 
d="M976 70c-37.333 -18 -72.168 -33.498 -104.501 -46.498s-67.166 -21.5 -104.499 -25.5c-7.33301 -8.66699 -13.666 -17 -18.999 -25l-16 6c1.33301 3.33301 2.33301 6.16602 3 8.49902s1.66699 5.16602 3 8.49902h-9c-26.667 0 -52.334 5.5 -77.001 16.5
s-47.667 26.167 -69 45.5c-60 -38.667 -120.333 -67.167 -181 -85.5s-127.667 -27.5 -201 -27.5c-26.667 0 -51.5 1.66699 -74.5 5s-43 7.66602 -60 12.999s-30.5 11.333 -40.5 18s-15 13.667 -15 21c0 8 6 12 18 12c9.33301 0 17.5 -1.83301 24.5 -5.5
s14.167 -8.16699 21.5 -13.5l13.5 -8.5l10.5 -6.5c9.33301 -6 24 -11 44 -15s39.667 -6 59 -6c68.667 0 132.167 9 190.5 27s117.5 46 177.5 84c-20.667 21.333 -37.667 45.833 -51 73.5s-20 55.5 -20 83.5c0 20 2.83301 39 8.5 57s13.334 33.667 23.001 47
s21 23.833 34 31.5s26.833 11.5 41.5 11.5c40 0 75.333 -13.333 106 -40s53 -61.334 67 -104.001l101 88.5l113 103.5c46.667 43.333 93.167 83.666 139.5 120.999s89.833 69.833 130.5 97.5s77.167 49.334 109.5 65.001s58.5 23.5 78.5 23.5
c2.66699 0 5.16699 -0.833008 7.5 -2.5s3.5 -4.16699 3.5 -7.5c0 -4.66699 -5 -9.66699 -15 -15h1c-30.667 -19.333 -64.667 -45.333 -102 -78s-76.5 -69 -117.5 -109l-124.5 -127.5l-122 -134.5l-111.5 -129.5l-91.5 -112.5c31.333 4 62.166 12.333 92.499 25
s63.833 28 100.5 46c8 0 12 -2 12 -6c0 -1.33301 -0.5 -2.66602 -1.5 -3.99902s-3.16699 -2.66602 -6.5 -3.99902zM1003 410.002l-116.502 -107.499l-102.5 -91.5c6 -23.333 9 -47.333 9 -72c0 -11.333 -0.666992 -24 -2 -38s-3.33301 -27.333 -6 -40
c17.333 24 41 53.833 71 89.5l100 115.5l118 127.5l126 126c42 40.333 82.833 77.5 122.5 111.5s75.834 62 108.501 84c-15.333 -3.33301 -37.666 -13.166 -66.999 -29.499s-63 -37.833 -101 -64.5s-79.333 -57.834 -124 -93.501s-90 -74.834 -136 -117.501z
M518.996 228.003c0 -28 5.83398 -54.833 17.501 -80.5s27.167 -48.5 46.5 -68.5c28.667 18.667 57.5 39 86.5 61s59.833 47 92.5 75c-6 20 -14.333 38.833 -25 56.5s-22.834 33 -36.501 46s-28.5 23.333 -44.5 31s-32.333 11.5 -49 11.5c-12 0 -23.333 -3.5 -34 -10.5
s-20 -16.5 -28 -28.5s-14.333 -26 -19 -42s-7 -33 -7 -51zM772.997 139.003c0 20 -2 39 -6 57l-88 -71c-28 -22 -55.333 -41.667 -82 -59c19.333 -17.333 40.333 -31 63 -41s45.667 -15 69 -15h14c8 20.667 15 41.5 21 62.5s9 43.167 9 66.5z" />
    <glyph glyph-name="afii10018" unicode="&#x411;" horiz-adv-x="1100" 
d="M1002 170c-13.333 1.33301 -23.9941 2.16504 -31.9941 2.49805s-15.667 0.5 -23 0.5c-28 0 -54.833 -5 -80.5 -15s-48.334 -22.5 -68.001 -37.5s-35.334 -31.833 -47.001 -50.5s-17.5 -36.334 -17.5 -53.001c0 -13.333 4.33301 -24 13 -32s21.667 -12 39 -12
c20 0 41.333 4.33301 64 13s44.834 20.334 66.501 35.001s42.5 31.834 62.5 51.501s37.667 40.5 53 62.5s27.5 44.5 36.5 67.5s13.5 45.5 13.5 67.5c0 29.333 -5.33301 51.5 -16 66.5s-24.667 22.5 -42 22.5c-20.667 0 -44.5 -7.16699 -71.5 -21.5
s-57.5 -40.166 -91.5 -77.499c-37.333 -42.667 -75.833 -83 -115.5 -121s-83.334 -71.333 -131.001 -100s-100.834 -51.5 -159.501 -68.5s-126 -25.5 -202 -25.5c-29.333 0 -58.666 2.66699 -87.999 8s-55.5 11.833 -78.5 19.5s-41.667 15.834 -56 24.501
s-21.5 16.667 -21.5 24c0 2.66699 1.66699 4.83398 5 6.50098s6.66602 2.5 9.99902 2.5c10.667 0 19.667 -1.83301 27 -5.5s14.666 -7.83398 21.999 -12.501c3.33301 -2.66699 6.66602 -4.83398 9.99902 -6.50098s6 -3.16699 8 -4.5s3.83301 -2.33301 5.5 -3
s3.5 -1.66699 5.5 -3l26 -12.5c9.33301 -4.33301 20 -8.16602 32 -11.499s25.5 -6.16602 40.5 -8.49902s32.5 -3.5 52.5 -3.5c70 0 134.833 10.833 194.5 32.5s115 49.834 166 84.501s98.167 73.5 141.5 116.5s84 86.167 122 129.5c6 7.33301 12.333 14.666 19 21.999
s13 14.666 19 21.999l65.5 73.5c22.333 25 46 49 71 72s51.833 44.667 80.5 65s59.667 38.166 93 53.499l6 -12c-33.333 -16 -64 -34.5 -92 -55.5s-54.667 -43.833 -80 -68.5s-49.5 -50.5 -72.5 -77.5l-68.5 -82.5c20 14.667 38.333 24.5 55 29.5s33.667 7.5 51 7.5
c25.333 0 45.5 -9.66699 60.5 -29s22.5 -45 22.5 -77c0 -37.333 -10.333 -74.333 -31 -111s-46.667 -69.5 -78 -98.5s-65.833 -52.5 -103.5 -70.5s-73.5 -27 -107.5 -27c-24.667 0 -43 5.33301 -55 16s-18 24.667 -18 42c0 18.667 6.5 38 19.5 58s30.167 38.333 51.5 55
s46.166 30.167 74.499 40.5s57.5 15.5 87.5 15.5c20 0 38.667 -1 56 -3zM516.006 300.999c0 54.667 13.6709 106.334 41.0039 155.001s64.666 91 111.999 127s102.666 64.5 165.999 85.5s131 31.5 203 31.5c34 0 67 -2.83301 99 -8.5s62.333 -11.5 91 -17.5
c23.333 -5.33301 45.166 -9.83301 65.499 -13.5s38.833 -5.5 55.5 -5.5c26.667 0 51.667 5.33301 75 16s46.666 24.667 69.999 42l10 -9c-23.333 -20 -48.5 -37.167 -75.5 -51.5s-56.833 -21.5 -89.5 -21.5c-23.333 0 -46.5 2.66699 -69.5 8s-46.167 11.333 -69.5 18
c-25.333 7.33301 -51 14 -77 20s-54 9 -84 9c-69.333 0 -134.5 -10 -195.5 -30s-114.333 -47.5 -160 -82.5s-81.667 -75.833 -108 -122.5s-39.5 -96.334 -39.5 -149.001c0 -14 2.16699 -30.833 6.5 -50.5s9.5 -37.167 15.5 -52.5l-17 -9
c-6.66699 17.333 -12.5 36.333 -17.5 57s-7.5 38.667 -7.5 54z" />
    <glyph glyph-name="afii10019" unicode="&#x412;" horiz-adv-x="1050" 
d="M996 170c-13.333 1.33301 -24.001 2.16895 -32.001 2.50195s-15.667 0.5 -23 0.5c-28 0 -54.667 -5 -80 -15s-47.833 -22.5 -67.5 -37.5s-35.334 -31.833 -47.001 -50.5s-17.5 -36.334 -17.5 -53.001c0 -13.333 4.16699 -24 12.5 -32s21.166 -12 38.499 -12
c30.667 0 62.334 8.5 95.001 25.5s62.5 38.667 89.5 65s49.167 55.666 66.5 87.999s26 63.833 26 94.5c0 15.333 -2.83301 30.166 -8.5 44.499s-12.834 26.5 -21.501 36.5c-20 -8 -40.333 -14.5 -61 -19.5s-39 -8.5 -55 -10.5l-9.5 -11.5l-9.5 -11.5
c-40 -51.333 -83 -98 -129 -140s-94.833 -78 -146.5 -108s-106.167 -53.333 -163.5 -70s-117.333 -25 -180 -25c-3.33301 0 -6.83301 0.166992 -10.5 0.5s-7.16699 0.5 -10.5 0.5h-15c-5.33301 -17.333 -9.66602 -35.166 -12.999 -53.499s-5 -36.833 -5 -55.5
c0 -22.667 3.5 -42.167 10.5 -58.5s18.833 -33.5 35.5 -51.5l-13 -12c-17.333 21.333 -30.333 41.5 -39 60.5s-13 39.5 -13 61.5c0 38 5.66699 74.667 17 110c-34.667 2 -65 5.83301 -91 11.5s-47.667 12 -65 19s-30.333 13.833 -39 20.5s-13 12.334 -13 17.001
c0 9.33301 5.33301 14 16 14c3.33301 0 7.66602 -1.5 12.999 -4.5l17 -9.5l31.5 -18.5c11.667 -7 23.834 -12.833 36.501 -17.5c16 -6.66699 31.833 -11.334 47.5 -14.001s32.167 -4.33398 49.5 -5.00098c15.333 40 39 77.833 71 113.5s73 68.5 123 98.5
c67.333 40 131.333 74 192 102s112.667 51 156 69l62 27l66 31.5l63.5 33c20.333 11 38.5 21.5 54.5 31.5c26 16 49.333 32.833 70 50.5l59 52.5c4.66699 4 9.5 8.66699 14.5 14s9.5 9.66602 13.5 12.999l12 -13l-23 -19.5l-23 -19.5l-54.5 -47
c-17.667 -15.333 -34.167 -30.666 -49.5 -45.999l-21.5 -24l-19.5 -22c-3.33301 -4 -6 -7.5 -8 -10.5s-4.66699 -6.16699 -8 -9.5c11.333 -1.33301 22.5 -4.33301 33.5 -9s20.5 -10.334 28.5 -17.001c32 14.667 63 32.667 93 54s56.333 43.833 79 67.5
s40.834 47.667 54.501 72s20.5 46.5 20.5 66.5c0 29.333 -9.33301 51.5 -28 66.5s-54 22.5 -106 22.5c-39.333 0 -78 -5.33301 -116 -16s-74.167 -25 -108.5 -43s-66 -38.833 -95 -62.5s-54 -48.167 -75 -73.5s-37.5 -51 -49.5 -77s-18 -50 -18 -72v-11.5
c0 -5 0.333008 -9.5 1 -13.5l-20 -2c-0.666992 3.33301 -1 8 -1 14v12c0 23.333 6.16699 48.5 18.5 75.5s29.666 53.833 51.999 80.5s48.666 52.167 78.999 76.5s63.333 45.833 99 64.5s73.334 33.667 113.001 45s80.167 17 121.5 17c56.667 0 96.834 -9.5 120.501 -28.5
s35.5 -45.167 35.5 -78.5c0 -28.667 -7.66699 -56.167 -23 -82.5s-35.333 -51 -60 -74s-52.5 -43.833 -83.5 -62.5s-61.833 -34.667 -92.5 -48c12 -12 21.5 -26.167 28.5 -42.5s10.5 -33.166 10.5 -50.499c0 -35.333 -9.33301 -70 -28 -104s-42.5 -64.167 -71.5 -90.5
s-61.333 -47.666 -97 -63.999s-70.5 -24.5 -104.5 -24.5c-24 0 -42 5.33301 -54 16s-18 24.667 -18 42c0 18.667 6.33301 38 19 58s29.834 38.333 51.501 55s46.5 30.167 74.5 40.5s57 15.5 87 15.5c20 0 38.667 -1 56 -3zM768.999 316.003
c-42.667 -17.333 -94.001 -40 -154.001 -68s-123.333 -61.667 -190 -101c-44 -27.333 -81.667 -58.333 -113 -93s-54.666 -71 -69.999 -109h32c56 0 112.167 10.5 168.5 31.5s110.666 48 162.999 81s101.5 69.333 147.5 109s86 78.167 120 115.5l12 14
c-13.333 0 -24.333 2.16699 -33 6.5s-13 9.83301 -13 16.5c0 14 10.333 25.833 31 35.5s46.334 15.167 77.001 16.5l24.5 27.5c8.33301 9 16.833 18.833 25.5 29.5c1.33301 1.33301 2 2.33301 2 3s0.666992 1.66699 2 3zM918.998 311.003
c31.333 4 63.335 12.999 96.002 26.999c-8.66699 6.66699 -17.334 11.834 -26.001 15.501s-18.334 5.5 -29.001 5.5zM937 358.002c-20 -2 -37.666 -6.5 -52.999 -13.5s-23 -15.167 -23 -24.5c0 -3.33301 2.66699 -6 8 -8s11.666 -3 18.999 -3h9z" />
    <glyph glyph-name="afii10020" unicode="&#x413;" horiz-adv-x="1075" 
d="M293 -85c-34.667 0 -68.832 2.6709 -102.499 8.00391s-63.834 12 -90.501 20s-48.334 16.333 -65.001 25s-25 16.334 -25 23.001c0 2.66699 1.66699 4.83398 5 6.50098s6.66602 2.5 9.99902 2.5c7.33301 0 14 -1.5 20 -4.5s13 -7.16699 21 -12.5
c10 -6.66699 22.5 -13.834 37.5 -21.501s31.833 -13.834 50.5 -18.501c17.333 -4 37.333 -7.33301 60 -10s48.667 -4 78 -4c84.667 0 160.167 9.66699 226.5 29s126.333 45.166 180 77.499s102.167 69.166 145.5 110.499s84 84 122 128l85 94
c31.333 34 64.5 67.5 99.5 100.5s71.333 63.667 109 92s75.834 51.5 114.501 69.5l10 -11c-34 -15.333 -66 -34.333 -96 -57s-58.5 -47.334 -85.5 -74.001s-52.833 -54.834 -77.5 -84.501l-72 -88.5l-22 -27l-22 -26c-36.667 -44 -78.667 -86.833 -126 -128.5
s-100.5 -78.667 -159.5 -111s-124.167 -58.333 -195.5 -78s-149.666 -29.5 -234.999 -29.5zM666.002 301.004c0 54.667 13.6699 106.334 41.0029 155.001s64.666 91 111.999 127s102.666 64.5 165.999 85.5s131 31.5 203 31.5c34 0 66.833 -2.83301 98.5 -8.5
s62.167 -11.5 91.5 -17.5c23.333 -5.33301 45 -9.83301 65 -13.5s38.333 -5.5 55 -5.5c27.333 0 52.666 5.33301 75.999 16s46.333 24.667 69 42l10 -9c-23.333 -20 -48.333 -37.167 -75 -51.5s-56.667 -21.5 -90 -21.5c-23.333 0 -46.333 2.66699 -69 8
s-45.667 11.333 -69 18c-25.333 7.33301 -51 14 -77 20s-54 9 -84 9c-69.333 0 -134.5 -10 -195.5 -30s-114.333 -47.5 -160 -82.5s-81.667 -75.833 -108 -122.5s-39.5 -96.334 -39.5 -149.001c0 -14 2.16699 -30.833 6.5 -50.5s9.5 -37.167 15.5 -52.5l-17 -9
c-6.66699 17.333 -12.5 36.333 -17.5 57s-7.5 38.667 -7.5 54z" />
    <glyph glyph-name="afii10021" unicode="&#x414;" horiz-adv-x="975" 
d="M8 47c0 6.66699 3.50195 12.9961 10.502 18.9961s16.5 11.167 28.5 15.5s26.167 7.83301 42.5 10.5s33.5 4 51.5 4c42 0 79.5 -5.83301 112.5 -17.5s64.5 -24.5 94.5 -38.5c5.33301 -2.66699 10.5 -5 15.5 -7l15.5 -6c21.333 8 42.333 17.167 63 27.5
s41 22.166 61 35.499c-1.33301 4 -2.33301 8 -3 12s-1.66699 8.33301 -3 13c-6 24 -11.667 50 -17 78s-8 58 -8 90c0 34 6.5 67.833 19.5 101.5s30.667 65.834 53 96.501s48.5 59.334 78.5 86.001s62 49.834 96 69.501s69.333 35 106 46s73 16.5 109 16.5
c22.667 0 43.834 -4.16699 63.501 -12.5s37 -19.5 52 -33.5s26.833 -30.5 35.5 -49.5s13 -39.167 13 -60.5c0 -44 -6.5 -88.333 -19.5 -133s-31.333 -87.5 -55 -128.5s-52.334 -79.333 -86.001 -115s-71.334 -67 -113.001 -94s-86.667 -48.667 -135 -65
s-98.833 -25.5 -151.5 -27.5c-2 -34 -10.833 -66 -26.5 -96s-36.5 -56.333 -62.5 -79s-56.333 -40.5 -91 -53.5s-71.334 -19.5 -110.001 -19.5c-22 0 -45.333 3 -70 9l6 14c26 -7.33301 47.333 -11 64 -11c36 0 69.833 6.16699 101.5 18.5s59.5 29 83.5 50
s43.5 45.833 58.5 74.5s23.5 59.334 25.5 92.001c-25.333 0.666992 -48.833 3.66699 -70.5 9s-41.167 11.333 -58.5 18c-27.333 -7.33301 -55.5 -13.166 -84.5 -17.499s-60.5 -6.5 -94.5 -6.5c-28 0 -54.167 1.66699 -78.5 5s-45.5 8 -63.5 14s-32.333 12.833 -43 20.5
s-16 16.167 -16 25.5zM1078 542.996c0 19.333 -3.83496 37.6689 -11.502 55.002s-18.167 32.5 -31.5 45.5s-28.666 23.167 -45.999 30.5s-36 11 -56 11c-32 0 -65.167 -5.83301 -99.5 -17.5s-67.833 -27.5 -100.5 -47.5s-63.667 -43.333 -93 -70
s-54.833 -55.334 -76.5 -86.001s-39 -62.334 -52 -95.001s-19.5 -65 -19.5 -97c0 -24.667 2.66699 -50.167 8 -76.5s10.666 -50.833 15.999 -73.5c1.33301 -3.33301 2 -6.33301 2 -9s0.666992 -6 2 -10c43.333 30.667 86.166 66.5 128.499 107.5l120.5 118.5l116.5 116
c41 39.333 82.5 73.333 124.5 102l8 -13c-42 -28 -79.833 -60.167 -113.5 -96.5s-67.167 -74.5 -100.5 -114.5l-61.5 -70.5c-21 -23.667 -42.667 -46.5 -65 -68.5s-45.666 -43 -69.999 -63s-50.5 -38.333 -78.5 -55c2.66699 -11.333 4.83398 -23.333 6.50098 -36
s2.5 -24.667 2.5 -36c48.667 2.66699 95.834 12.667 141.501 30s88.5 39.833 128.5 67.5s76.5 59.334 109.5 95.001s61.5 73.5 85.5 113.5s42.5 80.667 55.5 122s19.5 81.666 19.5 120.999zM140 82.999c-30 0 -55.833 -3.5 -77.5 -10.5s-32.5 -15.167 -32.5 -24.5
c0 -7.33301 4.66699 -14.166 14 -20.499s22.166 -11.833 38.499 -16.5s35.333 -8.33398 57 -11.001s44.834 -4 69.501 -4c26 0 51 2.16699 75 6.5s47.667 10.166 71 17.499l-14 6l-14 6c-28 12.667 -57 24.334 -87 35.001s-63.333 16 -100 16zM518 -4.00098
c0 20 -2 40 -6 60c-14.667 -8 -30.5 -15.667 -47.5 -23s-34.167 -14 -51.5 -20c19.333 -7.33301 36.5 -12.333 51.5 -15s32.833 -4 53.5 -4v2z" />
    <glyph glyph-name="afii10022" unicode="&#x415;" horiz-adv-x="800" 
d="M775 480c9.33301 0 17.834 0.166992 25.501 0.5s16.167 0.833008 25.5 1.5c10.667 25.333 30 51.666 58 78.999s61 52.166 99 74.499s78.5 40.833 121.5 55.5s84.833 22 125.5 22c9.33301 0 17.5 -2.33301 24.5 -7s10.5 -10.334 10.5 -17.001
c0 -16.667 -11.5 -36.334 -34.5 -59.001s-53.833 -45 -92.5 -67s-83.334 -41.667 -134.001 -59s-103.667 -29 -159 -35c-2.66699 -6.66699 -4 -12.334 -4 -17.001v-6c42 -1.33301 72.5 -5.16602 91.5 -11.499s28.5 -14.166 28.5 -23.499
c0 -7.33301 -4.66699 -13.833 -14 -19.5s-20.666 -8.5 -33.999 -8.5c-20 0 -38.333 4.83301 -55 14.5s-28 21.5 -34 35.5c-67.333 0 -131.333 -11.667 -192 -35s-114.167 -53.166 -160.5 -89.499s-83.166 -76.833 -110.499 -121.5s-41 -88.667 -41 -132
c0 -15.333 5.16699 -30.666 15.5 -45.999s26.166 -26.666 47.499 -33.999c5.33301 28 16 57 32 87s35.833 59.167 59.5 87.5s50.167 55 79.5 80s60 47 92 66s64.667 34 98 45s66 16.5 98 16.5c23.333 0 41.166 -6.16699 53.499 -18.5s18.5 -29.5 18.5 -51.5
s-6.33301 -45.5 -19 -70.5s-30.167 -50 -52.5 -75s-48.5 -49 -78.5 -72s-62.5 -43.333 -97.5 -61s-71.667 -31.667 -110 -42s-76.833 -15.5 -115.5 -15.5c-8 0 -15.167 0.333008 -21.5 1s-12.833 1.66699 -19.5 3c-0.666992 -3.33301 -1 -6.5 -1 -9.5v-9.5
c0 -30.667 8.66699 -59.334 26 -86.001s46 -49.667 86 -69l-7 -13c-24 11.333 -44.167 23.833 -60.5 37.5s-29.166 28 -38.499 43s-16 30 -20 45s-6 29.5 -6 43.5v11c0 4 0.333008 7.66699 1 11c-30.667 9.33301 -53.167 25 -67.5 47s-21.5 49.667 -21.5 83
c0 43.333 13.5 86.333 40.5 129s64.333 80.834 112 114.501s103.667 61 168 82s134.166 31.5 209.499 31.5v5v8c0 2.66699 0.333008 5.33398 1 8.00098c-8 -0.666992 -16 -1 -24 -1h-24c-68.667 0 -126.834 1.83301 -174.501 5.5s-89.167 7.16699 -124.5 10.5l-58.5 5.5
c-17.667 1.66699 -34.167 2.5 -49.5 2.5c-70.667 0 -134.834 -8.83301 -192.501 -26.5s-108.5 -49.834 -152.5 -96.501l-13 9c40.667 46.667 90.334 79.667 149.001 99s128.334 29 209.001 29c16 0 33.167 -0.833008 51.5 -2.5l60.5 -5.5
c34.667 -3.33301 75.667 -6.83301 123 -10.5s105 -5.5 173 -5.5zM845.001 343c-29.333 0 -59.832 -5.49805 -91.499 -16.498s-62.834 -25.833 -93.501 -44.5s-60.167 -40.5 -88.5 -65.5s-54 -51.333 -77 -79s-42.667 -55.834 -59 -84.501s-27.5 -56.334 -33.5 -83.001
c5.33301 -1.33301 11.5 -2.33301 18.5 -3s13.833 -1 20.5 -1c36 0 72.167 5 108.5 15s71.333 23.5 105 40.5s65.167 36.5 94.5 58.5s54.833 44.833 76.5 68.5s38.667 47.5 51 71.5s18.5 46.667 18.5 68c0 17.333 -5 30.833 -15 40.5s-21.667 14.5 -35 14.5zM1229 702.002
c-20.667 0 -43.168 -3.33301 -67.501 -10s-49 -15.667 -74 -27s-49.833 -24.5 -74.5 -39.5s-47.667 -30.5 -69 -46.5s-40.166 -32.167 -56.499 -48.5s-28.5 -31.5 -36.5 -45.5c52.667 6 102.834 17.333 150.501 34s89.667 35 126 55s65.166 40.333 86.499 61s32 38 32 52
c0 4 -1.5 7.5 -4.5 10.5s-7.16699 4.5 -12.5 4.5zM938.001 411.002c0 5.33301 -6.66699 10.168 -20 14.501s-37 6.83301 -71 7.5c5.33301 -10.667 14 -19.334 26 -26.001s25.333 -10 40 -10c7.33301 0 13.333 1.33301 18 4s7 6 7 10z" />
    <glyph glyph-name="afii10024" unicode="&#x416;" horiz-adv-x="1250" 
d="M793 252l82.9951 123.999c31.333 45.333 70.333 95 117 149l-24 -26l-24 -26l-108.5 -114c-38.333 -40 -79.166 -79.5 -122.499 -118.5s-89 -76.5 -137 -112.5s-98.333 -68.333 -151 -97c-3.33301 -33.333 -12.666 -64.166 -27.999 -92.499s-34.666 -53.5 -57.999 -75.5
s-49.833 -40 -79.5 -54s-60.167 -23 -91.5 -27l1 12c29.333 4 57.666 12.167 84.999 24.5s51.666 28.5 72.999 48.5s38.833 43 52.5 69s21.834 54.333 24.501 85c-32.667 -13.333 -66.5 -23.666 -101.5 -30.999s-71.167 -11 -108.5 -11c-24 0 -47.167 2 -69.5 6
s-42.166 9.16699 -59.499 15.5s-31.166 13.333 -41.499 21s-15.5 15.5 -15.5 23.5c0 6.66699 5.66699 10 17 10c6.66699 0 13.5 -1.83301 20.5 -5.5s13.167 -7.83398 18.5 -12.501l10.5 -7.5l11.5 -8c3.33301 -2.33301 5.83301 -4 7.5 -5s1.5 -0.833008 -0.5 0.5
c13.333 -7.33301 27.666 -13.166 42.999 -17.499s33.666 -6.5 54.999 -6.5c37.333 0 74 4.33301 110 13s71 21.334 105 38.001c-0.666992 12.667 -2.66699 27.5 -6 44.5s-7.33301 34.167 -12 51.5c-6.66699 24.667 -13.334 53.834 -20.001 87.501s-10 66.5 -10 98.5
c0 50.667 7.66699 98.667 23 144s36.5 85 63.5 119s58.833 61 95.5 81s76.334 30 119.001 30c35.333 0 63.5 -13.5 84.5 -40.5s31.5 -65.833 31.5 -116.5c0 -26.667 -2.83301 -54.167 -8.5 -82.5s-13.667 -56.5 -24 -84.5s-22.666 -55.667 -36.999 -83
s-30.166 -53 -47.499 -77c50 42 96.667 85 140 129l124 129l125 131c40.667 41.333 84 79.333 130 114l7 -13c-40 -38.667 -77.333 -77.834 -112 -117.501s-68 -80.334 -100 -122.001s-63.167 -84.5 -93.5 -128.5l-92.5 -135c-8 -12.667 -14.5 -22.5 -19.5 -29.5l-14 -19.5
c-4.33301 -6 -9 -12.833 -14 -20.5l-20.5 -31.5c56 66.667 112.833 129 170.5 187s113.5 108.333 167.5 151s104.667 76.167 152 100.5s89 36.5 125 36.5l-2 -12c-39.333 -5.33301 -80.5 -20.833 -123.5 -46.5s-82.5 -59.167 -118.5 -100.5s-65.833 -89 -89.5 -143
s-35.5 -111.333 -35.5 -172c0 -26 7 -48.333 21 -67s33.333 -28 58 -28c11.333 0 24.333 2 39 6s29.834 9.16699 45.501 15.5s31.334 13.333 47.001 21l44.5 21.5c4.66699 2 9 4 13 6l12 6c8 0 12 -2 12 -6c0 -1.33301 -0.5 -2.66602 -1.5 -3.99902
s-3.16699 -2.66602 -6.5 -3.99902l-19.5 -9l-21.5 -10c-12 -6 -25.333 -12.333 -40 -19s-29.334 -12.834 -44.001 -18.501s-29 -10.334 -43 -14.001s-27 -5.5 -39 -5.5c-16 0 -30.5 3.16699 -43.5 9.5s-24.167 15 -33.5 26s-16.5 24 -21.5 39s-7.5 30.833 -7.5 47.5
c0 30 3.83301 59.667 11.5 89s18 57.666 31 84.999s28.5 53.666 46.5 78.999s37 48.666 57 69.999c-64.667 -52.667 -134.5 -118.667 -209.5 -198s-152.833 -166 -233.5 -260l-14 8c12.667 24.667 26.167 48.834 40.5 72.501s29.833 46.834 46.5 69.501
c14.667 20 28.5 40 41.5 60zM756.995 542.999c0 47.333 -8.83203 83.167 -26.499 107.5s-41.5 36.5 -71.5 36.5c-38.667 0 -75 -10.167 -109 -30.5s-63.667 -47.333 -89 -81s-45.333 -72.334 -60 -116.001s-22 -88.5 -22 -134.5c0 -32 3.16699 -63 9.5 -93
s12.833 -58.333 19.5 -85v1c4.66699 -18.667 8.66699 -35.334 12 -50.001s5.33301 -29 6 -43c48 24.667 92.333 55.834 133 93.501s75.667 78.334 105 122.001s52.166 89 68.499 136s24.5 92.5 24.5 136.5z" />
    <glyph glyph-name="afii10025" unicode="&#x417;" horiz-adv-x="625" 
d="M627 70c-32.667 -17.333 -68.834 -34.501 -108.501 -51.501l-122.5 -51.5c-20 -32 -43.5 -63 -70.5 -93s-55.667 -56.5 -86 -79.5s-61.666 -41.5 -93.999 -55.5s-63.833 -21 -94.5 -21c-12 0 -22.167 2.66699 -30.5 8s-12.5 11.666 -12.5 18.999
c0 18.667 9.5 37.167 28.5 55.5s44.167 36.666 75.5 54.999s67.333 36.333 108 54l126 53.5c24 36.667 43.667 74.334 59 113.001s23 74.334 23 107.001c0 5.33301 -0.333008 11 -1 17s-1.66699 11.333 -3 16c-4 -0.666992 -8.66699 -1 -14 -1h-14
c-36 0 -59.667 3.16699 -71 9.5s-17 14.5 -17 24.5c0 7.33301 5 13.833 15 19.5s22.333 8.5 37 8.5c20 0 37.333 -3.5 52 -10.5s26 -16.833 34 -29.5c22 6 43.833 15.667 65.5 29s43 28.833 64 46.5s41.833 37 62.5 58l61 64.5c37.333 38.667 74.833 75.5 112.5 110.5
s77.167 61.5 118.5 79.5c-5.33301 -0.666992 -10.666 -0.833984 -15.999 -0.500977s-10 0.5 -14 0.5c-22 0 -43.833 3.16699 -65.5 9.5s-44.5 13.833 -68.5 22.5c-32.667 11.333 -67.834 22.333 -105.501 33s-80.5 16 -128.5 16c-34 0 -65.833 -3.5 -95.5 -10.5
s-55.667 -16.667 -78 -29s-40 -26.833 -53 -43.5s-19.5 -34.334 -19.5 -53.001c0 -12 0.666992 -22.333 2 -31s3.66602 -16.5 6.99902 -23.5s7.66602 -14 12.999 -21s12 -15.167 20 -24.5l-10 -10c-8.66699 10 -16.167 19 -22.5 27s-11.666 16 -15.999 24
s-7.5 16.667 -9.5 26s-3 20.333 -3 33c0 20.667 6.83301 40 20.5 58s32.5 33.833 56.5 47.5s52.167 24.5 84.5 32.5s66.833 12 103.5 12c56.667 0 105.667 -4.5 147 -13.5s79 -18.5 113 -28.5c25.333 -7.33301 49.5 -13.833 72.5 -19.5s46.5 -8.5 70.5 -8.5
c12 0 24.167 0.833008 36.5 2.5s25.166 4.5 38.499 8.5h-2c9.33301 6 20.666 11.833 33.999 17.5s24.333 8.5 33 8.5c8 0 12 -3.33301 12 -10s-7.83301 -13.334 -23.5 -20.001s-33.167 -11.667 -52.5 -15c-23.333 -7.33301 -46.166 -18 -68.499 -32s-44.166 -30 -65.499 -48
s-42.333 -37.5 -63 -58.5l-61 -63.5l-68 -71c-22.667 -23.333 -46.334 -45 -71.001 -65s-50.167 -37.333 -76.5 -52s-54.166 -25 -83.499 -31c2.66699 -8 4.66699 -16.167 6 -24.5s2 -17.833 2 -28.5c0 -28 -4.66699 -57.167 -14 -87.5s-22.666 -61.166 -39.999 -92.499
l114 47.5c37.333 15.667 71 31.834 101 48.501c7.33301 0 11 -2 11 -6c0 -1.33301 -0.333008 -2.66602 -1 -3.99902s-2.66699 -2.66602 -6 -3.99902zM51 -268.001c22 0 45.167 5.49902 69.5 16.499s48.833 26 73.5 45s48.667 41.167 72 66.5s45 52 65 80l-114.5 -49.5
c-36.333 -16.333 -68.5 -32.666 -96.5 -48.999s-50.333 -32.5 -67 -48.5s-25 -32 -25 -48c0 -4 2.33301 -7.16699 7 -9.5s10 -3.5 16 -3.5zM396 229.998c4 0 7.83203 -0.166992 11.499 -0.5s7.5 0.166992 11.5 1.5c-12 21.333 -31.667 32 -59 32c-8 0 -15 -1.16699 -21 -3.5
s-9 -5.5 -9 -9.5c0 -6 3.83301 -10.833 11.5 -14.5s25.834 -5.5 54.501 -5.5z" />
    <glyph glyph-name="afii10026" unicode="&#x418;" horiz-adv-x="650" 
d="M651 70l-47.5 -23.9961c-17.667 -8.66699 -35 -16.667 -52 -24s-33.167 -13.5 -48.5 -18.5s-27.666 -7.5 -36.999 -7.5c-13.333 0 -22.5 3 -27.5 9s-7.5 14.667 -7.5 26c0 18.667 9 42.5 27 71.5s42 59.833 72 92.5c-3.33301 -2.66699 -5.83301 -4.83398 -7.5 -6.50098
s-4.16699 -3.83398 -7.5 -6.50098l-127.5 -105c-39.667 -32 -76.5 -57.667 -110.5 -77c-4 -32 -14 -61.833 -30 -89.5s-36 -52 -60 -73s-51.167 -38.167 -81.5 -51.5s-61.833 -21.666 -94.5 -24.999l-1 14c30 2.66699 58.833 9.83398 86.5 21.501s52.5 26.834 74.5 45.501
s40.5 40.5 55.5 65.5s24.5 52.167 28.5 81.5c-11.333 -5.33301 -21.666 -9.5 -30.999 -12.5s-18.333 -4.5 -27 -4.5c-12.667 0 -21.5 3.5 -26.5 10.5s-7.5 15.167 -7.5 24.5c0 15.333 6.66699 33 20 53s30 40.667 50 62l-14.5 35.5c-5 12.333 -9.5 26 -13.5 41
s-7.16699 32 -9.5 51s-3.5 40.5 -3.5 64.5c0 27.333 4.66699 55.666 14 84.999s22.166 58.166 38.499 86.499s35.666 55 57.999 80s46.333 47 72 66s52.334 34.167 80.001 45.5s55.5 17 83.5 17c37.333 0 65.666 -11.333 84.999 -34s29 -53 29 -91
c0 -30.667 -9.5 -62.334 -28.5 -95.001s-43.333 -65.5 -73 -98.5s-62.334 -65.667 -98.001 -98l-104.5 -91.5l-47 -39.5l-42 -36.5c5.33301 -12.667 9.83301 -26.167 13.5 -40.5s5.5 -30.5 5.5 -48.5v-4c28 17.333 59.167 40 93.5 68l111.5 93l99.5 83
c34.333 28.667 69.166 56 104.499 82s71 50.167 107 72.5s71.667 41.166 107 56.499l5 -12c-70 -40 -132.5 -81.833 -187.5 -125.5s-101.5 -85.334 -139.5 -125.001s-67 -75.334 -87 -107.001s-30 -55.834 -30 -72.501c0 -8 0.833008 -13.333 2.5 -16s4.16699 -4 7.5 -4
c6 0 15.833 2.5 29.5 7.5s28.834 11.167 45.501 18.5s33.834 15.333 51.501 24l48.5 24c8 0 12 -2 12 -6c0 -1.33301 -0.5 -2.66602 -1.5 -3.99902s-3.16699 -2.66602 -6.5 -3.99902zM211 316.004c0 -22.667 1 -42.6709 3 -60.0039s4.66699 -33.166 8 -47.499
s7.16602 -27.166 11.499 -38.499s8.83301 -22.333 13.5 -33l63 60.5l70 63.5l90 81c30 27.333 57 54.333 81 81s43.5 52.334 58.5 77.001s22.5 47.334 22.5 68.001c0 36 -8 63.667 -24 83s-40 29 -72 29c-38 0 -76.167 -11.833 -114.5 -35.5s-73.166 -53.5 -104.499 -89.5
s-56.833 -75.333 -76.5 -118s-29.5 -83 -29.5 -121zM200 -14c14.667 0 33.668 6.33105 57.001 18.998c0.666992 2 1 4.5 1 7.5v8.5c0 14 -1.5 27.333 -4.5 40s-6.5 24.334 -10.5 35.001c-18.667 -17.333 -33.334 -33.166 -44.001 -47.499s-16 -26.833 -16 -37.5
c0 -7.33301 1.16699 -13.333 3.5 -18s6.83301 -7 13.5 -7z" />
    </font>
</defs>
</svg>
